<?xml version="1.0" encoding="UTF-8" standalone="no"?>
<!DOCTYPE svg PUBLIC "-//W3C//DTD SVG 1.1//EN" "http://www.w3.org/Graphics/SVG/1.1/DTD/svg11.dtd">
<svg xmlns="http://www.w3.org/2000/svg" version="1.1" viewBox="0 0 2509 334" width="2509" height="334">
<g stroke-width="2.0" fill="none" stroke-linecap="butt">
<path stroke="#80cbc9" vector-effect="non-scaling-stroke" d="
  M 186.25 58.96
  Q 186.55 58.03 185.78 57.62
  Q 185.39 57.41 184.98 57.06
  L 182.04 54.50"
/>
<path stroke="#80cbc9" vector-effect="non-scaling-stroke" d="
  M 181.50 55.04
  L 181.43 55.20
  A 0.24 0.12 -64.1 0 0 181.43 55.43
  L 185.96 59.25"
/>
<path stroke="#66c1bd" vector-effect="non-scaling-stroke" d="
  M 154.96 44.50
  L 151.71 45.25"
/>
<path stroke="#66c1bd" vector-effect="non-scaling-stroke" d="
  M 155.21 45.50
  Q 153.58 46.52 151.79 45.75"
/>
<path stroke="#2bb9ae" stroke-opacity="0.996" vector-effect="non-scaling-stroke" d="
  M 495.96 190.00
  Q 496.21 188.78 495.00 188.71"
/>
<path stroke="#80cbc9" vector-effect="non-scaling-stroke" d="
  M 429.00 182.54
  Q 428.07 182.65 427.61 181.91
  Q 420.74 170.95 412.55 160.93
  Q 412.01 160.26 412.00 161.12
  Q 411.96 164.40 413.74 167.28
  Q 416.36 171.55 419.77 175.23
  Q 420.91 176.46 425.81 182.94
  Q 426.99 184.50 429.04 183.50"
/>
<path stroke="#66c1bd" vector-effect="non-scaling-stroke" d="
  M 354.71 151.75
  Q 358.35 152.20 361.96 151.50"
/>
<path stroke="#80cbc9" vector-effect="non-scaling-stroke" d="
  M 388.00 140.96
  Q 388.46 140.37 387.81 139.94
  Q 386.62 139.13 382.65 135.50
  Q 382.42 135.30 382.15 135.24
  Q 381.23 135.07 381.71 135.80
  Q 383.82 139.02 386.96 141.25"
/>
<path stroke="#66c1bd" vector-effect="non-scaling-stroke" d="
  M 361.96 150.25
  L 354.96 150.25"
/>
<path stroke="#80cbc9" vector-effect="non-scaling-stroke" d="
  M 359.75 126.46
  Q 362.22 126.14 363.79 124.25"
/>
<path stroke="#66c1bd" vector-effect="non-scaling-stroke" d="
  M 386.75 97.04
  Q 388.18 96.03 388.01 94.30
  Q 387.96 93.77 387.54 94.12
  Q 386.16 95.27 385.50 96.96"
/>
<path stroke="#2bb9ae" stroke-opacity="0.996" vector-effect="non-scaling-stroke" d="
  M 493.50 189.04
  Q 492.96 190.71 494.96 190.50"
/>
<path stroke="#80cbc9" vector-effect="non-scaling-stroke" d="
  M 362.71 123.25
  L 359.75 124.96"
/>
<path stroke="#2bb9ae" stroke-opacity="0.996" vector-effect="non-scaling-stroke" d="
  M 177.29 99.25
  Q 176.97 98.42 176.04 98.75"
/>
<path stroke="#2bb9ae" stroke-opacity="0.996" vector-effect="non-scaling-stroke" d="
  M 175.71 100.00
  Q 176.26 100.46 177.00 100.21"
/>
<path stroke="#80cbc9" vector-effect="non-scaling-stroke" d="
  M 137.00 70.96
  Q 136.25 71.15 136.38 71.70
  Q 136.50 72.23 136.50 72.34
  Q 136.45 73.89 135.64 75.46
  A 0.35 0.34 -74.4 0 0 135.92 75.96
  Q 139.77 76.23 142.27 75.27
  Q 143.65 74.74 142.55 73.90
  L 138.04 70.50"
/>
<path stroke="#66c1bd" vector-effect="non-scaling-stroke" d="
  M 510.00 192.71
  Q 508.34 193.19 508.54 195.00"
/>
<path stroke="#66c1bd" vector-effect="non-scaling-stroke" d="
  M 510.00 195.04
  Q 511.41 194.55 511.25 193.04"
/>
<path stroke="#80cbc9" vector-effect="non-scaling-stroke" d="
  M 442.82 163.10
  L 432.75 158.74
  Q 432.09 158.46 432.29 159.13
  Q 433.14 162.00 435.79 165.37
  A 1.87 1.74 -26.2 0 0 437.70 165.94
  L 442.76 164.50
  Q 444.74 163.94 442.82 163.10"
/>
</g>
<path fill="#0164a7" d="
  M 68.95 31.95
  Q 111.99 0.74 164.74 0.10
  Q 174.71 -0.02 184.71 1.09
  Q 241.40 7.42 283.29 47.40
  A 0.57 0.54 -49.5 0 1 283.33 48.15
  L 272.28 62.47
  A 0.73 0.72 -49.3 0 1 271.20 62.56
  Q 236.60 28.79 190.41 21.09
  Q 180.68 19.47 170.52 19.27
  Q 118.45 18.28 77.47 49.40
  Q 69.42 55.51 62.41 62.55
  Q 35.86 89.21 25.25 125.25
  Q 19.31 145.42 19.40 167.26
  Q 19.44 177.17 20.87 187.18
  Q 27.61 234.37 60.25 268.50
  Q 92.57 302.29 138.88 311.37
  Q 148.53 313.26 158.72 313.74
  Q 224.29 316.79 270.69 271.19
  Q 304.91 237.55 312.49 189.41
  Q 314.08 179.32 314.26 169.51
  Q 314.83 139.02 303.24 110.46
  A 1.14 1.12 47.2 0 1 303.27 109.52
  Q 308.34 99.36 314.34 90.63
  A 0.59 0.59 48.8 0 1 315.35 90.70
  Q 329.32 118.42 332.68 148.78
  Q 333.75 158.44 333.58 168.75
  Q 332.46 234.41 287.69 281.94
  Q 263.05 308.09 228.87 321.79
  Q 219.66 325.48 209.90 328.04
  Q 160.68 340.97 112.75 324.75
  Q 71.01 310.62 40.94 276.31
  Q 11.67 242.93 3.00 198.25
  Q -5.68 153.55 10.25 109.25
  Q 27.15 62.25 68.95 31.95
  Z"
/>
<path fill="#0164a7" d="
  M 535.04 261.43
  Q 572.90 215.80 569.15 155.71
  Q 568.50 145.43 566.47 135.92
  Q 561.19 111.23 548.31 90.19
  Q 527.20 55.70 491.62 36.53
  Q 482.66 31.70 473.42 28.29
  Q 447.04 18.56 418.50 19.25
  Q 392.30 19.88 368.24 29.34
  Q 359.22 32.89 350.23 38.00
  Q 301.47 65.69 282.80 118.73
  Q 279.43 128.31 277.55 137.99
  Q 269.17 181.22 285.76 222.55
  A 2.11 2.10 47.1 0 1 285.70 224.26
  Q 280.71 234.57 274.37 243.03
  A 0.32 0.30 -40.4 0 1 273.84 243.00
  Q 253.08 202.64 255.72 157.00
  Q 257.37 128.55 268.47 102.34
  Q 287.57 57.25 327.19 29.69
  Q 358.80 7.69 397.07 1.95
  Q 406.86 0.49 416.99 0.19
  Q 464.83 -1.19 505.92 22.57
  Q 514.61 27.59 522.58 33.60
  Q 553.98 57.25 571.50 92.25
  Q 588.90 127.01 589.00 166.25
  Q 589.03 176.12 587.85 186.20
  Q 581.46 241.00 544.31 280.56
  Q 513.70 313.16 471.94 326.19
  Q 436.68 337.18 398.78 331.77
  Q 345.43 324.15 306.18 286.58
  A 1.06 1.05 -47.4 0 1 306.12 285.12
  Q 311.97 278.37 317.00 270.90
  A 0.61 0.61 39.4 0 1 317.93 270.81
  Q 347.62 299.91 387.50 310.00
  Q 411.24 316.00 437.54 313.26
  Q 447.58 312.22 457.21 309.81
  Q 493.48 300.76 521.21 275.85
  Q 528.54 269.26 535.04 261.43
  Z"
/>
<path fill="#009792" d="
  M 186.25 58.96
  Q 186.55 58.03 185.78 57.62
  Q 185.39 57.41 184.98 57.06
  L 182.04 54.50
  Q 181.24 53.71 181.51 52.93
  A 0.81 0.57 7.1 0 1 182.24 52.54
  Q 183.72 52.55 183.95 51.25
  A 1.34 1.12 37.1 0 0 183.74 50.33
  Q 181.80 47.41 178.57 48.48
  Q 176.02 49.32 174.57 46.95
  L 170.32 39.99
  A 0.98 0.96 67.0 0 1 170.89 38.54
  Q 171.98 38.27 173.11 38.37
  Q 174.13 38.47 175.13 39.13
  Q 177.92 40.97 179.62 44.04
  Q 180.33 45.32 181.06 44.06
  Q 186.03 35.58 194.35 29.15
  A 0.34 0.34 -26.4 0 1 194.89 29.33
  Q 195.96 33.46 197.35 37.22
  Q 198.41 40.09 200.36 41.37
  Q 204.09 43.83 208.38 42.36
  Q 212.53 40.93 212.65 40.90
  Q 216.52 39.96 220.55 39.01
  A 0.51 0.50 76.4 0 1 221.16 39.39
  L 224.91 53.86
  Q 225.53 56.26 227.58 54.80
  Q 231.95 51.68 234.19 55.81
  Q 236.92 60.80 242.69 63.06
  Q 244.40 63.73 246.63 65.07
  Q 248.70 66.31 249.45 68.23
  Q 252.19 75.16 244.29 78.32
  Q 241.96 79.25 242.10 82.43
  L 242.27 86.16
  A 2.38 1.90 -24.6 0 1 241.39 87.90
  Q 239.17 89.73 237.49 91.35
  Q 235.50 93.28 233.87 93.72
  Q 231.65 94.32 229.35 93.95
  Q 226.73 93.53 225.67 93.99
  Q 223.53 94.92 222.19 97.44
  Q 219.42 102.61 214.42 107.34
  Q 212.68 108.98 211.15 109.58
  Q 209.23 110.33 207.15 110.26
  A 1.01 1.00 86.1 0 1 206.20 109.42
  Q 203.36 92.87 209.69 78.69
  Q 210.93 75.91 210.58 71.26
  Q 210.06 64.30 203.18 63.60
  A 0.61 0.55 2.4 0 1 202.63 63.06
  L 202.49 53.37
  A 1.24 1.18 0.9 0 1 203.79 52.18
  L 210.27 52.50
  A 0.97 0.94 -10.0 0 0 211.22 51.19
  Q 210.39 49.28 208.66 48.39
  Q 207.37 47.74 205.13 48.03
  Q 200.88 48.58 196.60 49.53
  A 1.06 1.06 1.4 0 0 195.81 50.28
  Q 194.88 53.60 193.85 56.66
  Q 192.88 59.53 190.17 60.94
  A 1.28 1.27 64.7 0 1 188.40 60.30
  Q 187.92 59.13 186.25 58.96
  Z"
/>
<path fill="#0164a7" d="
  M 1490.44 70.56
  Q 1482.59 61.69 1471.00 56.87
  Q 1462.68 53.41 1451.64 52.14
  Q 1414.23 47.84 1385.44 72.94
  Q 1380.34 77.38 1375.15 83.54
  Q 1370.40 89.19 1366.55 95.50
  Q 1353.03 117.69 1348.95 143.69
  Q 1345.81 163.78 1346.61 184.02
  Q 1347.07 195.43 1348.28 203.95
  Q 1352.06 230.44 1366.55 252.77
  Q 1372.39 261.77 1379.07 268.30
  Q 1396.21 285.04 1420.69 291.06
  Q 1439.97 295.81 1458.51 292.84
  Q 1490.29 287.76 1514.56 266.97
  Q 1514.63 266.90 1515.90 265.53
  Q 1517.26 264.06 1518.63 265.66
  A 1.01 0.93 -59.7 0 1 1518.82 266.54
  L 1511.00 296.76
  A 1.07 1.07 85.0 0 1 1510.43 297.44
  Q 1496.01 304.16 1480.46 307.58
  Q 1457.09 312.72 1433.25 312.72
  Q 1422.44 312.73 1413.26 312.10
  Q 1387.59 310.33 1364.56 301.19
  Q 1305.70 277.81 1289.76 217.74
  Q 1287.25 208.31 1286.35 198.07
  Q 1284.21 173.83 1288.25 147.00
  Q 1291.75 123.74 1303.19 102.44
  Q 1314.21 81.90 1331.43 67.20
  Q 1354.61 47.42 1384.05 39.28
  Q 1406.86 32.98 1430.50 31.83
  Q 1477.54 29.56 1520.50 49.21
  A 1.16 1.16 -68.6 0 1 1521.12 50.63
  L 1508.81 88.09
  A 0.97 0.96 -80.7 0 1 1507.90 88.75
  L 1503.36 88.75
  A 1.97 1.96 -12.5 0 1 1501.58 87.62
  Q 1497.14 78.15 1490.44 70.56
  Z"
/>
<path fill="#009792" d="
  M 154.96 44.50
  L 151.71 45.25
  Q 149.40 44.59 147.83 42.88
  A 0.55 0.55 45.4 0 1 147.83 42.13
  Q 151.05 38.58 155.99 38.34
  Q 160.34 38.13 164.68 37.84
  A 0.49 0.47 -1.1 0 1 165.20 38.32
  Q 165.15 40.59 163.08 41.85
  Q 160.17 43.62 156.75 43.68
  Q 155.66 43.70 154.96 44.50
  Z"
/>
<path fill="#009792" d="
  M 495.96 190.00
  Q 496.21 188.78 495.00 188.71
  Q 495.13 187.41 494.49 186.28
  Q 490.86 179.94 487.09 173.74
  A 1.42 1.39 -5.2 0 0 486.34 173.13
  Q 483.90 172.28 482.46 170.96
  Q 481.56 170.14 480.93 167.63
  Q 480.16 164.58 477.94 162.81
  Q 476.03 161.30 474.55 162.72
  Q 474.13 163.12 473.50 165.01
  Q 473.21 165.89 472.59 166.58
  Q 472.12 167.11 471.06 167.37
  Q 468.88 167.92 468.06 169.06
  Q 464.19 174.47 462.05 180.62
  Q 461.66 181.73 462.81 181.47
  Q 465.71 180.81 465.43 183.15
  Q 465.25 184.64 465.24 184.87
  Q 465.17 186.11 464.83 187.32
  Q 464.34 189.07 462.27 188.99
  A 0.73 0.70 -86.2 0 1 461.60 188.20
  L 461.99 183.68
  A 0.65 0.63 -9.8 0 0 461.08 183.06
  Q 459.25 183.87 457.99 182.96
  Q 457.25 182.42 456.59 180.63
  Q 455.35 177.24 454.00 173.90
  A 1.18 1.00 2.4 0 0 453.34 173.29
  Q 451.25 172.52 450.69 170.06
  Q 450.27 168.22 448.99 164.90
  A 1.03 0.66 78.1 0 0 448.35 164.25
  L 444.83 163.76
  Q 443.10 163.52 444.33 164.95
  L 447.70 168.85
  A 0.60 0.55 -45.1 0 1 447.67 169.62
  Q 439.87 178.23 429.00 182.54
  Q 428.07 182.65 427.61 181.91
  Q 420.74 170.95 412.55 160.93
  Q 412.01 160.26 412.00 161.12
  Q 411.96 164.40 413.74 167.28
  Q 416.36 171.55 419.77 175.23
  Q 420.91 176.46 425.81 182.94
  Q 426.99 184.50 429.04 183.50
  L 438.20 184.49
  A 1.04 1.03 76.6 0 1 438.97 184.97
  Q 440.27 187.03 438.87 189.35
  Q 437.29 191.97 435.18 194.19
  Q 426.93 202.91 424.56 206.81
  Q 422.69 209.90 424.54 213.95
  Q 427.58 220.60 422.31 224.81
  Q 418.80 227.62 417.61 231.54
  Q 417.51 231.85 417.47 234.48
  Q 417.45 235.87 416.43 236.86
  Q 415.13 238.11 415.09 238.16
  Q 411.40 242.68 408.90 247.98
  A 1.04 0.97 -82.1 0 1 408.20 248.55
  L 393.93 251.47
  A 0.71 0.69 -20.5 0 1 393.18 251.14
  Q 391.92 248.96 391.06 245.94
  Q 389.14 239.14 385.02 232.67
  A 1.45 1.40 -58.2 0 1 384.82 231.75
  Q 385.34 227.45 384.17 223.27
  Q 382.55 217.54 379.56 210.94
  Q 378.49 208.57 377.62 205.23
  A 1.53 0.54 -61.6 0 1 377.76 204.32
  L 379.17 200.56
  A 1.78 1.50 15.5 0 0 377.76 198.50
  L 368.08 196.47
  A 3.91 3.50 -47.3 0 0 365.91 196.68
  L 361.22 198.57
  A 1.25 1.25 -90.0 0 1 360.28 198.57
  L 347.90 193.75
  A 1.49 1.45 84.5 0 1 347.18 193.14
  Q 343.97 187.94 341.02 182.60
  Q 340.00 180.76 340.00 178.63
  Q 340.02 174.56 340.06 170.50
  Q 340.16 162.20 346.56 157.06
  Q 348.74 155.32 354.71 151.75
  Q 358.35 152.20 361.96 151.50
  Q 363.48 151.56 364.99 151.20
  Q 370.74 149.84 376.85 148.76
  A 0.76 0.75 78.7 0 1 377.71 149.34
  L 378.57 153.08
  A 0.82 0.80 0.8 0 0 379.17 153.68
  Q 383.83 154.81 387.98 157.19
  Q 389.17 157.87 389.74 157.98
  Q 391.54 158.29 391.00 155.73
  A 1.47 1.47 -10.8 0 1 392.20 153.97
  Q 397.24 153.14 401.90 155.63
  Q 405.53 157.57 409.20 156.65
  Q 411.60 156.04 412.60 154.37
  Q 413.86 152.26 412.27 149.67
  A 1.10 1.04 -11.0 0 0 411.50 149.18
  L 402.25 148.05
  A 0.82 0.80 -6.3 0 1 401.58 147.53
  Q 400.57 144.75 399.73 141.93
  Q 399.07 139.73 397.14 140.48
  Q 396.73 140.64 396.20 140.64
  Q 395.60 140.63 395.14 140.93
  A 0.85 0.77 -22.6 0 0 394.75 141.76
  L 395.56 146.03
  A 0.73 0.52 73.6 0 1 395.31 146.76
  Q 393.99 147.46 392.67 146.76
  A 1.16 0.90 -86.5 0 1 392.16 146.01
  Q 391.38 142.37 388.00 140.96
  Q 388.46 140.37 387.81 139.94
  Q 386.62 139.13 382.65 135.50
  Q 382.42 135.30 382.15 135.24
  Q 381.23 135.07 381.71 135.80
  Q 383.82 139.02 386.96 141.25
  Q 386.91 142.15 387.36 142.91
  Q 388.65 145.06 387.33 145.17
  Q 386.23 145.25 385.27 145.79
  Q 381.94 147.66 382.17 145.24
  Q 382.20 144.93 381.97 144.33
  L 381.26 142.56
  A 1.59 0.90 83.4 0 0 380.73 141.83
  L 374.83 137.89
  A 1.33 0.56 41.6 0 0 373.94 137.59
  L 366.91 139.02
  A 1.25 0.87 -74.9 0 0 366.20 139.62
  Q 363.41 144.65 361.96 150.25
  L 354.96 150.25
  L 352.47 150.16
  A 1.16 0.90 -1.4 0 1 351.37 149.35
  Q 350.76 143.88 351.37 139.43
  A 0.64 0.62 0.5 0 1 351.94 138.89
  Q 354.16 138.69 356.38 138.57
  Q 358.58 138.46 359.48 137.86
  Q 361.22 136.71 360.37 134.29
  A 1.54 0.53 28.6 0 0 359.74 133.60
  L 355.60 130.62
  A 0.47 0.44 -46.4 0 1 355.61 129.90
  L 359.75 126.46
  Q 362.22 126.14 363.79 124.25
  Q 366.10 123.15 367.74 121.21
  Q 368.05 120.85 368.53 120.64
  Q 371.11 119.56 370.76 116.01
  Q 370.50 113.37 372.94 114.39
  Q 373.80 114.75 374.62 116.88
  A 1.01 1.00 77.2 0 0 375.64 117.53
  L 384.74 116.79
  A 1.20 1.13 15.8 0 0 385.57 116.36
  Q 387.37 114.12 388.51 111.47
  Q 390.07 107.83 393.31 106.31
  Q 394.21 105.89 393.98 105.19
  A 0.96 0.65 0.1 0 0 393.25 104.69
  L 387.04 103.71
  A 1.15 1.13 -73.1 0 1 386.20 102.10
  Q 387.35 99.59 386.75 97.04
  Q 388.18 96.03 388.01 94.30
  Q 387.96 93.77 387.54 94.12
  Q 386.16 95.27 385.50 96.96
  Q 382.41 99.56 382.19 103.36
  Q 382.19 103.42 382.64 107.09
  Q 383.01 110.04 381.89 113.66
  A 2.37 2.36 -83.4 0 1 379.81 115.32
  Q 377.15 115.50 375.44 111.77
  A 1.56 1.34 -8.5 0 0 374.18 110.98
  L 368.92 110.66
  A 0.62 0.53 -89.1 0 1 368.42 110.06
  Q 368.32 102.81 371.81 97.31
  Q 378.31 87.09 388.68 78.38
  A 1.19 1.17 27.5 0 1 389.56 78.11
  Q 398.64 79.04 403.95 85.47
  Q 405.45 87.29 403.46 88.56
  Q 399.53 91.07 403.27 92.35
  A 1.26 1.21 -47.6 0 0 404.20 92.29
  Q 410.69 89.12 411.75 81.81
  A 0.38 0.36 -73.6 0 1 412.27 81.51
  Q 413.86 82.28 414.62 83.97
  A 0.66 0.58 71.0 0 0 415.30 84.36
  Q 416.96 83.99 418.03 82.54
  Q 420.50 79.18 424.57 79.29
  A 0.56 0.52 2.7 0 0 425.14 78.81
  L 425.50 75.12
  A 0.73 0.71 -80.4 0 1 426.38 74.47
  L 432.41 75.93
  A 0.88 0.85 -76.7 0 0 433.44 75.27
  L 435.80 65.29
  A 0.74 0.71 3.8 0 1 436.44 64.75
  L 444.00 64.04
  A 1.56 1.44 20.0 0 0 444.89 63.67
  Q 447.09 61.68 447.73 58.69
  Q 448.78 53.71 449.25 52.25
  Q 449.91 50.17 451.73 49.04
  Q 452.22 48.74 455.44 48.09
  Q 458.21 47.52 460.04 45.05
  Q 461.84 42.61 463.72 40.24
  Q 465.63 37.83 468.74 38.12
  Q 479.84 39.17 489.87 43.18
  A 2.30 2.28 2.1 0 1 491.19 44.59
  Q 492.28 47.82 493.64 49.60
  Q 495.69 52.29 498.34 51.52
  Q 500.23 50.97 501.74 52.24
  Q 503.06 53.35 504.56 52.72
  A 1.27 0.99 -40.3 0 1 505.46 52.68
  Q 513.25 55.89 512.27 64.75
  Q 511.44 72.18 515.99 77.80
  A 1.16 0.95 -15.2 0 0 516.82 78.17
  L 521.71 78.25
  A 0.38 0.37 -78.8 0 1 522.04 78.76
  Q 521.07 81.25 522.49 82.51
  Q 524.40 84.19 525.74 86.32
  A 0.78 0.75 -44.0 0 1 525.71 87.16
  Q 523.00 91.15 523.00 97.12
  A 0.88 0.88 0.3 0 0 523.87 98.00
  Q 528.41 98.03 530.94 101.31
  Q 532.74 103.65 533.75 107.50
  Q 534.77 111.39 537.74 118.48
  A 0.73 0.67 58.8 0 1 537.58 119.29
  Q 536.55 120.17 535.36 119.78
  Q 534.54 119.52 533.86 118.43
  Q 532.54 116.34 531.62 114.03
  A 1.10 0.75 79.5 0 0 530.97 113.38
  Q 530.07 113.19 529.71 114.49
  Q 528.91 117.40 528.64 120.39
  Q 528.31 123.93 527.84 125.01
  Q 526.92 127.14 524.95 128.89
  A 0.54 0.53 50.9 0 0 524.88 129.63
  Q 526.26 131.40 527.33 133.03
  Q 528.71 135.13 528.83 136.86
  Q 529.03 140.08 526.44 142.48
  A 0.99 0.79 -54.6 0 1 525.57 142.73
  Q 524.91 142.52 524.64 141.84
  Q 524.49 141.44 524.62 140.66
  Q 525.15 137.25 522.56 133.94
  Q 519.66 130.23 515.80 131.18
  A 0.82 0.82 -0.6 0 0 515.19 131.80
  Q 514.38 135.43 516.76 138.49
  Q 525.00 149.05 516.98 159.88
  A 2.96 2.52 -75.8 0 1 515.50 160.93
  L 501.30 164.70
  A 0.52 0.50 -14.1 0 0 500.92 165.30
  Q 501.58 168.19 502.71 170.92
  Q 503.63 173.15 503.64 174.35
  Q 503.66 176.32 502.69 177.94
  Q 501.82 179.38 499.81 181.87
  A 0.68 0.58 -55.3 0 1 499.02 182.08
  L 495.44 180.06
  Q 494.01 179.26 494.50 180.75
  Q 495.11 182.61 496.51 183.99
  Q 499.26 186.72 497.88 190.23
  A 0.95 0.72 -78.9 0 1 497.22 190.82
  Q 496.43 190.92 495.96 190.00
  Z
  M 442.82 163.10
  L 432.75 158.74
  Q 432.09 158.46 432.29 159.13
  Q 433.14 162.00 435.79 165.37
  A 1.87 1.74 -26.2 0 0 437.70 165.94
  L 442.76 164.50
  Q 444.74 163.94 442.82 163.10
  Z"
/>
<path fill="#0164a7" d="
  M 721.06 276.94
  Q 728.85 285.26 741.50 288.75
  Q 754.54 292.35 769.78 290.20
  Q 791.83 287.08 806.69 271.94
  Q 818.47 259.93 824.71 242.70
  Q 829.96 228.19 831.58 212.98
  Q 832.23 206.86 832.31 193.00
  Q 832.72 116.78 832.25 40.94
  A 0.91 0.90 -0.0 0 1 833.16 40.04
  L 860.17 40.18
  A 0.63 0.62 0.0 0 1 860.80 40.80
  Q 861.27 115.47 860.75 188.75
  Q 860.60 209.96 857.10 229.52
  Q 852.38 255.85 838.31 275.56
  Q 825.21 293.92 802.40 302.84
  Q 781.87 310.86 756.25 311.75
  Q 741.92 312.25 730.11 310.84
  Q 720.03 309.65 710.63 306.52
  Q 673.58 294.20 656.31 258.69
  Q 645.76 236.98 645.76 210.50
  Q 645.80 125.59 645.69 40.69
  A 0.51 0.50 -90.0 0 1 646.19 40.18
  L 699.30 40.19
  A 0.45 0.45 -0.0 0 1 699.75 40.64
  Q 699.75 96.87 699.75 153.00
  Q 699.75 153.25 699.54 173.00
  Q 699.31 195.61 701.16 218.16
  Q 702.06 229.02 703.47 236.26
  Q 705.22 245.25 708.06 253.98
  Q 712.57 267.87 721.06 276.94
  Z"
/>
<path fill="#0164a7" d="
  M 1010.59 235.54
  Q 1011.24 236.68 1011.68 235.45
  L 1070.96 71.92
  A 1.56 1.53 48.1 0 0 1071.00 70.98
  L 1062.33 41.17
  A 0.56 0.56 -8.9 0 1 1062.85 40.46
  Q 1090.91 39.93 1117.37 40.49
  A 1.08 1.06 -6.9 0 1 1118.38 41.27
  L 1171.94 234.82
  Q 1172.64 237.37 1173.55 234.89
  L 1244.17 40.78
  A 0.71 0.71 9.9 0 1 1244.84 40.31
  L 1275.57 40.25
  A 0.59 0.58 -79.3 0 1 1276.11 41.05
  L 1176.29 302.86
  A 1.38 1.38 -79.5 0 1 1175.00 303.75
  L 1139.80 303.69
  A 0.67 0.65 81.7 0 1 1139.17 303.21
  L 1085.14 118.73
  A 1.07 0.82 86.5 0 0 1084.55 118.05
  Q 1083.46 117.71 1082.98 118.99
  Q 1048.94 210.77 1014.54 303.05
  A 0.76 0.74 -79.9 0 1 1013.84 303.55
  L 978.05 303.70
  A 0.69 0.65 80.9 0 1 977.42 303.21
  L 900.75 41.24
  A 0.77 0.77 81.8 0 1 901.49 40.25
  L 955.92 40.25
  A 0.73 0.73 82.1 0 1 956.62 40.78
  Q 983.09 136.54 1009.49 231.82
  Q 1009.52 231.91 1009.91 233.70
  Q 1010.14 234.77 1010.59 235.54
  Z"
/>
<path fill="#cbebe7" d="
  M 154.96 44.50
  Q 154.98 45.02 155.21 45.50
  Q 153.58 46.52 151.79 45.75
  L 151.71 45.25
  L 154.96 44.50
  Z"
/>
<path fill="#009792" d="
  M 155.21 45.50
  L 159.93 46.17
  Q 162.16 46.49 162.35 48.60
  Q 162.73 52.81 160.70 54.02
  Q 160.29 54.26 156.77 55.04
  Q 154.90 55.46 152.72 55.60
  A 2.65 2.24 -18.9 0 1 150.62 54.78
  L 146.73 50.06
  A 1.08 0.99 -38.2 0 1 146.97 48.58
  Q 148.56 47.39 150.75 46.75
  Q 151.79 46.45 151.79 45.75
  Q 153.58 46.52 155.21 45.50
  Z"
/>
<path fill="#009792" d="
  M 181.50 55.04
  L 181.43 55.20
  A 0.24 0.12 -64.1 0 0 181.43 55.43
  L 185.96 59.25
  Q 186.90 61.10 185.55 61.88
  Q 184.81 62.30 183.40 62.09
  Q 176.75 61.13 171.50 59.75
  Q 169.01 59.10 166.48 57.46
  A 1.44 1.41 -83.3 0 1 165.90 56.71
  Q 164.79 53.28 165.22 50.22
  A 1.20 1.19 12.2 0 1 166.74 49.25
  Q 174.38 51.50 181.50 55.04
  Z"
/>
<path fill="#009792" d="
  M 177.29 99.25
  Q 176.97 98.42 176.04 98.75
  Q 175.27 97.19 173.63 96.06
  A 1.30 1.29 -44.9 0 1 173.64 93.92
  Q 176.25 92.16 178.57 91.60
  Q 180.22 91.20 181.68 90.34
  Q 183.36 89.34 183.52 88.16
  Q 183.65 87.26 182.40 86.09
  Q 180.34 84.17 178.10 81.98
  A 0.58 0.57 -42.2 0 0 177.34 81.95
  Q 172.81 85.55 169.34 88.85
  Q 166.34 91.69 168.94 94.82
  Q 170.50 96.69 168.07 96.69
  Q 165.02 96.68 162.16 95.59
  Q 162.08 95.55 159.85 94.31
  Q 157.30 92.88 155.56 95.31
  Q 152.97 98.94 150.42 101.90
  Q 149.00 103.55 150.11 105.42
  Q 152.49 109.43 155.20 112.05
  Q 158.28 115.02 159.19 120.35
  Q 159.41 121.67 160.38 120.75
  Q 167.15 114.34 168.90 105.07
  Q 169.49 101.91 170.67 100.91
  Q 172.58 99.27 175.71 100.00
  Q 176.26 100.46 177.00 100.21
  Q 180.87 102.72 180.31 107.44
  Q 180.08 109.41 181.69 107.94
  Q 184.27 105.56 187.53 104.41
  A 0.70 0.70 -28.6 0 1 188.32 104.64
  Q 189.94 106.72 189.19 109.19
  Q 188.56 111.26 188.69 113.06
  Q 188.81 114.61 190.33 116.38
  Q 192.35 118.73 193.59 120.56
  Q 195.14 122.85 194.32 125.50
  Q 192.60 131.09 193.14 136.03
  A 0.85 0.85 -85.4 0 1 192.07 136.94
  Q 185.13 135.02 183.43 128.18
  A 0.85 0.81 88.5 0 0 182.82 127.57
  Q 178.58 126.62 174.67 128.70
  A 0.72 0.72 -41.8 0 0 174.60 129.93
  Q 176.91 131.48 179.31 133.24
  Q 182.39 135.49 180.61 137.69
  Q 179.47 139.08 177.28 138.98
  Q 174.78 138.86 172.42 137.81
  A 1.48 1.47 34.6 0 0 170.77 138.11
  Q 160.78 147.99 149.17 156.86
  A 1.22 1.21 -43.9 0 0 149.13 158.76
  Q 150.39 159.82 150.33 161.37
  Q 150.28 162.51 150.28 162.63
  Q 150.36 164.55 150.03 166.44
  A 0.93 0.84 86.2 0 1 149.48 167.14
  Q 147.85 167.73 146.56 166.44
  Q 146.05 165.92 144.56 162.69
  Q 143.65 160.71 141.25 160.05
  Q 139.55 159.59 137.25 160.04
  Q 135.04 160.48 132.95 161.39
  Q 129.96 162.70 126.42 163.31
  A 1.11 1.10 86.2 0 0 125.50 164.37
  Q 125.34 168.85 124.44 173.32
  Q 124.34 173.83 123.71 175.02
  Q 122.86 176.60 125.28 176.91
  Q 127.51 177.20 130.62 177.62
  A 1.17 1.15 -71.0 0 0 131.77 177.05
  Q 133.43 174.19 136.33 172.30
  A 1.15 1.14 65.5 0 1 138.05 172.95
  Q 139.06 176.48 137.52 180.42
  Q 137.13 181.42 138.17 181.13
  Q 143.39 179.67 143.32 184.93
  Q 143.30 186.58 144.12 188.01
  Q 146.27 191.76 149.75 190.26
  Q 152.29 189.17 154.84 188.14
  Q 159.53 186.24 164.13 188.43
  Q 170.12 191.28 174.72 196.08
  Q 175.07 196.44 175.54 196.58
  Q 178.08 197.35 180.54 198.34
  Q 182.64 199.18 183.87 200.95
  Q 185.74 203.68 186.92 206.58
  A 1.49 1.34 -0.3 0 0 187.82 207.38
  L 205.29 212.97
  Q 208.07 213.86 208.01 216.99
  Q 207.81 226.46 203.06 234.31
  Q 201.90 236.24 200.85 237.42
  Q 199.93 238.44 197.67 239.37
  Q 193.47 241.11 189.69 243.70
  Q 186.84 245.65 187.57 249.62
  Q 188.02 252.10 186.69 254.25
  Q 182.82 260.50 175.05 259.39
  Q 174.59 259.32 174.78 259.76
  L 176.96 264.61
  A 0.65 0.63 -11.4 0 1 176.35 265.50
  Q 171.31 265.46 168.94 269.69
  Q 166.70 273.68 164.87 280.76
  A 1.96 1.49 49.8 0 0 164.92 281.72
  Q 165.91 284.72 163.67 287.49
  Q 162.15 289.37 164.31 290.43
  Q 167.36 291.95 164.00 295.08
  A 1.47 1.46 -44.8 0 1 161.99 295.08
  Q 157.72 291.02 155.84 286.24
  Q 154.75 283.46 154.60 282.35
  Q 154.30 280.19 155.65 278.19
  Q 158.03 274.66 153.99 273.75
  A 0.62 0.62 19.8 0 1 153.57 272.87
  Q 154.92 270.08 154.75 266.80
  Q 154.31 258.02 156.39 249.93
  Q 156.89 247.98 155.57 246.45
  Q 154.26 244.93 153.69 243.05
  A 1.58 1.48 -45.0 0 1 153.72 242.10
  Q 154.90 238.68 156.25 237.00
  Q 162.14 229.66 152.75 227.75
  Q 149.98 227.19 148.27 225.58
  Q 147.53 224.88 145.44 221.74
  Q 142.54 217.39 140.45 211.98
  Q 139.83 210.36 141.22 209.33
  Q 144.57 206.82 146.47 202.20
  Q 147.76 199.04 145.97 195.20
  A 1.12 1.11 82.8 0 0 145.19 194.59
  Q 136.40 192.83 129.14 183.79
  A 1.38 1.37 66.9 0 0 127.91 183.29
  Q 118.89 184.30 113.24 177.20
  A 1.59 1.32 -7.9 0 0 112.45 176.71
  Q 110.94 176.32 110.47 175.14
  Q 110.17 174.40 110.71 172.94
  Q 111.49 170.79 110.94 169.06
  Q 109.48 164.50 105.39 159.35
  Q 105.26 159.18 104.82 158.48
  Q 104.20 157.49 103.69 158.54
  A 1.53 1.01 59.5 0 0 103.64 159.48
  L 105.64 167.27
  A 1.19 1.04 56.4 0 1 105.52 168.18
  Q 104.70 169.48 103.55 167.70
  Q 99.59 161.56 98.71 154.25
  Q 98.12 149.27 95.73 144.97
  Q 95.72 144.96 93.73 142.03
  Q 90.72 137.62 91.94 132.43
  Q 92.21 131.32 94.35 127.50
  Q 96.81 123.13 96.42 117.96
  Q 96.31 116.51 95.07 114.52
  Q 91.94 109.51 94.25 103.25
  Q 94.90 101.48 94.77 99.39
  Q 94.67 97.89 93.82 95.71
  Q 91.88 90.77 89.40 86.08
  Q 87.65 82.79 83.75 83.47
  Q 78.90 84.32 74.85 87.12
  Q 66.41 92.97 56.70 91.77
  Q 54.94 91.55 56.55 90.82
  Q 60.71 88.93 65.22 88.09
  Q 68.35 87.51 67.85 85.23
  Q 67.69 84.47 66.32 82.46
  Q 64.41 79.66 63.44 76.80
  A 1.66 1.66 57.5 0 1 63.81 75.11
  Q 74.47 64.05 85.43 56.65
  A 0.67 0.67 -43.2 0 1 86.21 56.67
  Q 88.81 58.63 91.14 57.42
  Q 93.01 56.45 93.10 56.42
  Q 95.54 55.49 97.45 54.79
  Q 99.49 54.04 101.36 55.17
  Q 105.32 57.54 109.57 56.54
  A 1.37 1.36 68.2 0 1 111.06 57.18
  Q 116.40 66.24 125.26 59.41
  A 0.70 0.69 50.9 0 1 126.21 59.51
  Q 127.50 61.00 128.48 61.76
  Q 133.52 65.64 137.00 70.96
  Q 136.25 71.15 136.38 71.70
  Q 136.50 72.23 136.50 72.34
  Q 136.45 73.89 135.64 75.46
  A 0.35 0.34 -74.4 0 0 135.92 75.96
  Q 139.77 76.23 142.27 75.27
  Q 143.65 74.74 142.55 73.90
  L 138.04 70.50
  Q 137.35 69.09 137.31 67.57
  A 1.29 1.26 65.4 0 1 137.63 66.67
  L 142.35 61.29
  A 1.44 1.03 -32.4 0 0 142.70 60.43
  Q 142.64 58.47 140.69 59.01
  Q 139.36 59.37 139.29 59.39
  Q 136.90 59.85 134.50 60.25
  Q 131.37 60.78 132.50 57.50
  Q 133.24 55.34 134.16 53.25
  Q 135.21 50.88 136.95 50.35
  Q 139.13 49.69 141.45 51.03
  Q 144.80 52.97 147.25 55.99
  Q 149.67 58.99 153.61 60.29
  A 2.49 2.49 89.3 0 1 155.19 61.83
  Q 156.30 64.92 155.88 69.60
  Q 155.68 71.72 153.69 72.62
  L 149.16 74.65
  A 0.99 0.99 58.1 0 0 148.81 76.18
  Q 152.23 80.40 157.85 77.54
  A 2.18 2.17 77.6 0 0 159.03 75.69
  Q 159.15 72.41 159.13 68.31
  Q 159.12 64.04 163.25 63.53
  Q 166.74 63.10 169.54 64.55
  A 1.44 1.43 -64.4 0 1 170.19 66.42
  Q 168.67 69.82 166.56 72.87
  Q 164.86 75.31 164.70 76.57
  Q 164.36 79.28 167.28 80.56
  A 0.96 0.93 -49.4 0 0 168.17 80.48
  Q 171.13 78.55 173.05 75.58
  A 1.85 1.84 -35.7 0 0 173.29 74.14
  Q 172.07 69.40 173.19 64.80
  A 0.71 0.71 -85.9 0 1 173.81 64.26
  Q 178.12 63.84 182.01 65.50
  Q 184.26 66.46 185.26 68.34
  Q 186.32 70.33 186.42 72.75
  Q 186.74 80.40 192.19 86.06
  Q 194.20 88.15 194.68 91.25
  A 1.07 1.03 -29.3 0 1 194.42 92.12
  Q 189.78 97.28 187.94 98.44
  Q 182.90 101.58 177.29 99.25
  Z"
/>
<path fill="#009792" d="
  M 425.81 53.44
  Q 427.23 54.03 427.23 55.44
  A 1.44 1.06 -30.3 0 1 426.86 56.30
  Q 420.79 62.98 420.06 65.06
  Q 418.33 70.05 421.74 73.86
  Q 422.86 75.11 421.27 75.00
  L 415.60 74.61
  A 1.48 1.39 -77.5 0 1 414.43 72.64
  Q 416.03 68.22 416.92 64.29
  Q 417.18 63.18 417.12 61.18
  Q 417.07 59.02 417.81 58.06
  Q 420.13 55.07 423.44 53.19
  A 3.05 1.29 29.0 0 1 425.81 53.44
  Z"
/>
<path fill="#ffffff" d="
  M 182.04 54.50
  L 184.98 57.06
  Q 185.39 57.41 185.78 57.62
  Q 186.55 58.03 186.25 58.96
  Q 186.02 59.02 185.96 59.25
  L 181.43 55.43
  A 0.24 0.12 -64.1 0 1 181.43 55.20
  L 181.50 55.04
  Q 181.87 54.87 182.04 54.50
  Z"
/>
<path fill="#ffffff" d="
  M 138.04 70.50
  L 142.55 73.90
  Q 143.65 74.74 142.27 75.27
  Q 139.77 76.23 135.92 75.96
  A 0.35 0.34 -74.4 0 1 135.64 75.46
  Q 136.45 73.89 136.50 72.34
  Q 136.50 72.23 136.38 71.70
  Q 136.25 71.15 137.00 70.96
  Q 137.74 71.18 138.04 70.50
  Z"
/>
<path fill="#009792" d="
  M 345.78 92.89
  Q 346.69 94.97 346.34 97.25
  A 0.91 0.89 -6.6 0 1 345.78 97.94
  Q 341.19 99.74 336.24 99.53
  A 1.26 1.17 68.4 0 1 335.40 99.13
  Q 334.05 97.70 332.76 96.21
  Q 330.94 94.09 333.43 94.18
  Q 334.37 94.21 335.04 94.03
  Q 339.97 92.69 345.07 92.46
  A 0.75 0.72 -12.7 0 1 345.78 92.89
  Z"
/>
<path fill="#cbebe7" d="
  M 386.75 97.04
  L 385.50 96.96
  Q 386.16 95.27 387.54 94.12
  Q 387.96 93.77 388.01 94.30
  Q 388.18 96.03 386.75 97.04
  Z"
/>
<path fill="#57dccb" fill-opacity="0.992" d="
  M 176.04 98.75
  Q 176.97 98.42 177.29 99.25
  Q 176.92 99.64 177.00 100.21
  Q 176.26 100.46 175.71 100.00
  Q 176.11 99.46 176.04 98.75
  Z"
/>
<path fill="#009792" d="
  M 362.71 123.25
  L 359.75 124.96
  Q 357.24 125.24 355.19 126.69
  Q 353.58 127.82 354.44 125.94
  L 355.68 123.21
  Q 356.39 121.65 354.83 122.31
  L 352.00 123.50
  Q 349.18 124.69 349.75 121.00
  Q 350.19 118.10 352.40 116.36
  A 0.93 0.83 35.7 0 1 353.27 116.27
  Q 355.05 117.00 354.41 115.51
  Q 354.30 115.27 353.88 114.65
  Q 352.09 112.06 354.75 109.75
  Q 356.75 108.01 357.44 110.81
  Q 358.85 116.59 363.13 120.66
  A 0.82 0.70 34.2 0 1 363.36 121.48
  L 362.71 123.25
  Z"
/>
<path fill="#009792" d="
  M 1945.12 153.83
  Q 1951.93 159.08 1959.73 162.79
  Q 1971.72 168.49 1978.69 176.31
  Q 1986.39 184.96 1985.07 197.98
  Q 1983.63 212.19 1971.75 219.50
  Q 1963.67 224.47 1953.75 225.46
  Q 1933.26 227.49 1915.48 216.73
  A 0.91 0.87 29.8 0 1 1915.13 215.54
  L 1922.49 202.18
  A 0.47 0.46 31.4 0 1 1923.16 202.03
  Q 1933.45 209.07 1946.00 209.71
  Q 1950.55 209.94 1954.73 208.60
  Q 1959.41 207.10 1962.01 204.21
  Q 1965.39 200.45 1964.33 195.32
  Q 1963.55 191.51 1960.26 188.02
  Q 1957.24 184.82 1953.44 182.81
  Q 1941.72 176.65 1933.26 171.20
  Q 1919.91 162.61 1918.84 148.24
  Q 1918.11 138.43 1922.95 130.65
  Q 1926.44 125.03 1932.23 121.52
  Q 1937.05 118.60 1944.21 117.25
  Q 1962.10 113.88 1979.26 121.78
  A 1.19 1.17 13.4 0 1 1979.95 122.88
  L 1979.54 139.20
  A 0.39 0.38 16.2 0 1 1978.95 139.52
  Q 1965.89 131.69 1950.75 132.50
  Q 1949.02 132.59 1946.38 133.65
  Q 1943.95 134.63 1942.48 135.88
  Q 1938.26 139.49 1939.25 145.25
  Q 1939.66 147.66 1941.41 150.14
  Q 1942.68 151.95 1945.12 153.83
  Z"
/>
<path fill="#009792" d="
  M 2240.16 125.64
  Q 2248.44 120.06 2258.23 117.89
  Q 2280.23 113.01 2301.08 121.62
  A 0.68 0.64 12.7 0 1 2301.50 122.24
  L 2301.29 139.27
  A 0.31 0.31 15.8 0 1 2300.82 139.53
  Q 2286.58 131.35 2270.52 132.74
  Q 2245.11 134.94 2238.56 158.81
  Q 2236.62 165.91 2237.23 173.82
  Q 2237.82 181.48 2240.78 188.22
  Q 2248.52 205.86 2267.88 208.35
  Q 2275.52 209.34 2283.55 207.54
  Q 2291.24 205.81 2298.46 202.05
  A 0.70 0.70 -24.3 0 1 2299.44 202.42
  L 2304.37 215.28
  A 0.63 0.61 64.7 0 1 2304.11 216.03
  Q 2284.23 228.06 2261.00 225.29
  Q 2249.31 223.89 2239.69 218.03
  Q 2231.12 212.81 2225.37 204.32
  Q 2215.45 189.68 2216.00 170.00
  Q 2216.80 141.38 2240.16 125.64
  Z"
/>
<path fill="#009792" d="
  M 1802.29 224.09
  L 1783.19 224.05
  A 1.54 1.51 -10.7 0 1 1781.77 223.10
  L 1771.88 198.03
  A 0.75 0.74 78.8 0 0 1771.19 197.56
  L 1734.06 197.56
  A 0.71 0.71 9.9 0 0 1733.39 198.03
  L 1723.86 223.47
  A 0.76 0.76 8.2 0 1 1723.19 223.97
  Q 1714.36 224.53 1704.87 224.03
  A 0.41 0.41 -78.0 0 1 1704.51 223.47
  L 1745.76 117.16
  A 0.77 0.69 -78.2 0 1 1746.44 116.66
  L 1759.62 116.74
  A 0.94 0.87 78.8 0 1 1760.43 117.33
  L 1802.89 223.21
  A 0.64 0.64 -10.8 0 1 1802.29 224.09
  Z
  M 1751.55 147.57
  L 1739.60 180.95
  A 0.47 0.46 9.7 0 0 1740.04 181.57
  L 1765.11 181.50
  A 0.40 0.39 -9.4 0 0 1765.49 180.98
  L 1754.01 147.57
  Q 1752.81 144.05 1751.55 147.57
  Z"
/>
<path fill="#009792" d="
  M 1875.94 197.56
  L 1838.57 197.56
  A 0.74 0.72 -79.5 0 0 1837.89 198.04
  L 1828.58 223.45
  A 0.85 0.81 -80.0 0 1 1827.82 224.01
  L 1810.17 224.23
  A 0.84 0.81 -79.5 0 1 1809.41 223.09
  L 1850.43 117.04
  A 0.45 0.43 -79.3 0 1 1850.84 116.75
  L 1864.20 116.49
  A 0.97 0.91 77.9 0 1 1865.08 117.10
  L 1907.63 223.44
  A 0.56 0.56 -10.2 0 1 1907.10 224.20
  L 1887.32 223.94
  A 0.77 0.73 -9.7 0 1 1886.63 223.48
  L 1876.62 198.03
  A 0.75 0.73 78.6 0 0 1875.94 197.56
  Z
  M 1856.50 146.24
  L 1844.25 180.48
  A 0.95 0.93 -79.9 0 0 1845.12 181.75
  L 1868.80 181.75
  A 1.29 1.29 -9.5 0 0 1870.02 180.04
  L 1858.34 146.24
  Q 1857.44 143.62 1856.50 146.24
  Z"
/>
<path fill="#009792" d="
  M 1672.44 151.42
  Q 1672.43 150.21 1671.78 151.23
  L 1644.46 194.01
  A 1.06 1.05 -77.2 0 1 1643.69 194.50
  Q 1639.32 195.06 1634.93 194.61
  A 1.11 1.08 74.8 0 1 1634.15 194.15
  L 1604.78 151.41
  A 0.75 0.53 58.6 0 0 1604.01 151.08
  Q 1603.49 151.31 1603.56 152.19
  Q 1603.96 157.19 1603.87 163.34
  Q 1603.74 172.06 1603.74 172.15
  Q 1603.72 197.63 1603.94 223.40
  A 0.78 0.78 89.6 0 1 1603.16 224.19
  L 1585.07 223.98
  A 0.84 0.83 -89.7 0 1 1584.25 223.14
  L 1584.18 117.75
  A 0.82 0.82 2.0 0 1 1585.06 116.93
  Q 1593.88 117.48 1601.80 116.98
  A 1.04 1.03 -19.2 0 1 1602.70 117.41
  Q 1614.53 134.37 1625.98 150.82
  Q 1632.62 160.38 1638.81 170.51
  Q 1639.56 171.74 1640.18 170.44
  Q 1643.78 162.91 1648.65 155.46
  Q 1661.03 136.51 1673.30 117.48
  A 0.92 0.84 14.6 0 1 1674.06 117.08
  L 1691.56 117.05
  A 0.69 0.66 0.0 0 1 1692.25 117.71
  L 1692.19 222.77
  A 1.51 1.49 0.2 0 1 1690.67 224.26
  L 1673.15 224.18
  A 0.69 0.68 -0.9 0 1 1672.46 223.52
  Q 1672.12 214.35 1672.26 205.75
  Q 1672.71 178.41 1672.44 151.42
  Z"
/>
<path fill="#009792" d="
  M 2023.19 133.59
  Q 2008.83 134.06 1993.76 133.52
  A 0.54 0.53 1.1 0 1 1993.24 132.99
  L 1993.18 117.68
  A 0.52 0.49 -0.0 0 1 1993.70 117.19
  L 2077.29 117.06
  A 0.53 0.52 8.2 0 1 2077.80 117.73
  L 2073.33 132.95
  A 0.70 0.66 -81.1 0 1 2072.69 133.45
  L 2044.32 133.82
  A 0.51 0.50 -0.0 0 0 2043.81 134.32
  Q 2043.63 183.19 2043.75 192.00
  Q 2043.96 207.47 2043.81 223.58
  A 0.68 0.68 1.0 0 1 2043.12 224.25
  L 2025.16 223.99
  A 0.93 0.93 0.6 0 1 2024.25 223.06
  L 2024.25 134.61
  A 1.02 1.02 -1.1 0 0 2023.19 133.59
  Z"
/>
<path fill="#009792" d="
  M 2108.82 182.57
  L 2108.83 222.97
  A 1.35 1.30 0.0 0 1 2107.48 224.27
  L 2090.38 224.25
  A 1.32 1.30 0.2 0 1 2089.06 222.94
  L 2089.19 117.69
  A 0.51 0.50 -0.0 0 1 2089.70 117.19
  Q 2104.72 117.29 2119.75 117.25
  Q 2126.88 117.23 2133.61 119.05
  Q 2141.13 121.09 2146.08 124.97
  Q 2156.46 133.09 2156.00 148.00
  Q 2155.95 149.67 2155.85 151.34
  Q 2155.75 153.12 2155.31 154.61
  Q 2151.18 168.45 2137.23 175.12
  A 0.51 0.51 56.4 0 0 2137.07 175.92
  Q 2141.72 180.99 2145.13 186.35
  Q 2156.85 204.75 2167.78 223.14
  Q 2168.27 223.96 2167.34 223.96
  L 2146.50 224.02
  A 0.98 0.88 71.6 0 1 2145.73 223.58
  Q 2138.93 212.99 2132.62 202.10
  Q 2128.37 194.79 2121.19 184.81
  Q 2119.42 182.36 2116.81 181.96
  Q 2116.29 181.88 2112.84 181.71
  Q 2111.06 181.62 2109.30 181.96
  A 0.63 0.59 85.0 0 0 2108.82 182.57
  Z
  M 2129.34 136.01
  Q 2127.00 134.53 2125.50 134.25
  Q 2118.07 132.85 2109.41 133.31
  A 0.96 0.96 -1.6 0 0 2108.50 134.27
  L 2108.50 166.93
  A 0.54 0.54 1.1 0 0 2109.02 167.47
  Q 2113.60 167.66 2117.85 167.40
  Q 2123.30 167.07 2126.47 165.76
  Q 2133.97 162.65 2136.19 154.19
  Q 2138.56 145.14 2132.56 138.65
  Q 2131.23 137.21 2129.34 136.01
  Z"
/>
<rect fill="#009792" x="2180.53" y="117.21" width="19.52" height="106.88" rx="0.26"/>
<path fill="#009792" d="
  M 2391.19 178.78
  A 0.49 0.47 0.0 0 0 2390.70 178.31
  L 2339.93 178.32
  A 0.68 0.67 0.0 0 0 2339.25 178.99
  L 2339.31 223.67
  A 0.52 0.51 -89.5 0 1 2338.79 224.19
  L 2320.25 223.78
  A 0.52 0.51 -89.4 0 1 2319.75 223.26
  L 2319.50 118.05
  A 0.77 0.75 -89.6 0 1 2320.26 117.28
  L 2338.95 117.30
  A 0.51 0.48 -90.0 0 1 2339.43 117.81
  L 2339.32 160.65
  A 0.68 0.66 0.4 0 0 2340.00 161.32
  L 2390.61 161.43
  A 0.57 0.56 0.0 0 0 2391.18 160.87
  L 2391.05 117.55
  A 0.49 0.48 -0.0 0 1 2391.54 117.07
  L 2410.17 117.02
  A 0.76 0.72 -0.4 0 1 2410.94 117.74
  L 2411.00 223.30
  A 0.90 0.90 0.3 0 1 2410.09 224.20
  L 2392.16 223.98
  A 1.14 1.12 -89.7 0 1 2391.05 222.84
  L 2391.19 178.78
  Z"
/>
<path fill="#009792" d="
  M 2509.00 117.31
  L 2509.00 117.81
  L 2504.67 132.32
  A 2.01 1.91 -81.2 0 1 2502.82 133.75
  L 2475.31 133.81
  A 0.49 0.49 89.4 0 0 2474.82 134.31
  L 2475.00 222.93
  A 1.35 1.30 0.0 0 1 2473.65 224.23
  L 2455.80 224.18
  A 0.74 0.72 0.0 0 1 2455.06 223.46
  L 2455.25 134.59
  A 0.85 0.84 0.0 0 0 2454.40 133.75
  L 2424.89 133.75
  A 0.83 0.82 -89.7 0 1 2424.07 132.91
  L 2424.19 117.69
  A 0.51 0.49 -89.4 0 1 2424.68 117.19
  L 2508.48 117.06
  A 0.63 0.20 39.5 0 1 2508.83 117.20
  L 2509.00 117.31
  Z"
/>
<path fill="#009792" d="
  M 537.39 132.67
  Q 539.29 131.26 540.05 130.08
  Q 541.20 128.30 539.86 126.85
  A 1.62 0.97 32.6 0 1 539.44 126.00
  Q 539.32 124.35 540.60 123.29
  A 0.59 0.56 48.1 0 1 541.36 123.35
  Q 546.80 128.88 542.77 135.93
  Q 541.97 137.32 540.44 138.03
  Q 539.12 138.64 539.26 137.18
  Q 539.38 135.84 538.00 135.75
  Q 534.17 135.51 535.31 138.44
  Q 536.51 141.51 534.46 143.43
  Q 532.30 145.45 532.06 142.50
  Q 531.80 139.28 532.43 136.80
  A 1.53 1.22 83.6 0 1 532.94 135.99
  L 537.39 132.67
  Z"
/>
<path fill="#ffffff" d="
  M 362.71 123.25
  Q 363.14 123.85 363.79 124.25
  Q 362.22 126.14 359.75 126.46
  Q 360.33 125.70 359.75 124.96
  L 362.71 123.25
  Z"
/>
<path fill="#ffffff" d="
  M 388.00 140.96
  Q 387.34 140.86 386.96 141.25
  Q 383.82 139.02 381.71 135.80
  Q 381.23 135.07 382.15 135.24
  Q 382.42 135.30 382.65 135.50
  Q 386.62 139.13 387.81 139.94
  Q 388.46 140.37 388.00 140.96
  Z"
/>
<path fill="#cbebe7" d="
  M 361.96 150.25
  L 361.96 151.50
  Q 358.35 152.20 354.71 151.75
  Q 355.19 151.10 354.96 150.25
  L 361.96 150.25
  Z"
/>
<path fill="#ffffff" d="
  M 442.82 163.10
  Q 444.74 163.94 442.76 164.50
  L 437.70 165.94
  A 1.87 1.74 -26.2 0 1 435.79 165.37
  Q 433.14 162.00 432.29 159.13
  Q 432.09 158.46 432.75 158.74
  L 442.82 163.10
  Z"
/>
<path fill="#ffffff" d="
  M 429.00 182.54
  L 429.04 183.50
  Q 426.99 184.50 425.81 182.94
  Q 420.91 176.46 419.77 175.23
  Q 416.36 171.55 413.74 167.28
  Q 411.96 164.40 412.00 161.12
  Q 412.01 160.26 412.55 160.93
  Q 420.74 170.95 427.61 181.91
  Q 428.07 182.65 429.00 182.54
  Z"
/>
<path fill="#009792" d="
  M 514.58 168.61
  Q 517.32 172.99 517.56 175.19
  Q 518.27 181.52 514.40 177.32
  A 1.64 1.46 -72.3 0 1 514.01 176.44
  Q 513.63 173.26 512.54 170.26
  Q 512.17 169.24 512.31 168.70
  Q 512.57 167.70 513.84 168.03
  A 1.40 1.12 76.6 0 1 514.58 168.61
  Z"
/>
<path fill="#009792" d="
  M 158.78 176.48
  Q 163.22 179.51 158.43 179.10
  Q 157.17 178.99 156.56 178.95
  Q 150.30 178.51 144.98 175.20
  A 1.33 0.70 21.9 0 1 144.36 174.47
  L 143.79 171.56
  A 0.46 0.38 -0.7 0 1 144.31 171.12
  Q 152.21 172.01 158.78 176.48
  Z"
/>
<path fill="#009792" d="
  M 515.88 182.57
  Q 516.55 181.24 518.26 180.84
  A 0.97 0.96 -29.4 0 1 519.13 181.08
  Q 520.66 182.58 519.67 184.43
  Q 518.98 185.71 518.49 186.22
  Q 517.38 187.40 515.91 184.69
  A 2.26 2.25 -45.9 0 1 515.88 182.57
  Z"
/>
<path fill="#009792" d="
  M 493.50 189.04
  Q 492.96 190.71 494.96 190.50
  L 499.41 196.40
  A 1.62 0.74 -80.1 0 1 499.65 197.32
  Q 499.69 198.81 501.50 199.50
  Q 505.78 201.14 508.58 201.19
  Q 508.61 201.19 509.26 201.03
  Q 509.54 200.96 509.51 201.35
  A 0.44 0.42 0.7 0 1 509.11 201.72
  Q 504.51 202.12 500.04 201.06
  A 1.70 1.56 74.1 0 1 499.23 200.56
  Q 494.63 195.32 490.61 189.62
  Q 489.69 188.32 490.10 187.16
  A 0.84 0.83 -56.5 0 1 491.50 186.87
  L 493.50 189.04
  Z"
/>
<path fill="#009792" d="
  M 510.00 192.71
  Q 508.34 193.19 508.54 195.00
  Q 507.85 195.85 507.74 197.09
  A 1.03 1.03 -3.5 0 1 506.93 198.00
  Q 504.76 198.46 503.80 197.72
  Q 503.32 197.36 503.22 196.07
  Q 503.17 195.33 503.00 194.25
  Q 502.69 192.27 503.84 190.88
  Q 504.10 190.56 506.26 188.71
  Q 511.73 184.01 510.00 192.71
  Z"
/>
<path fill="#57dccb" fill-opacity="0.992" d="
  M 495.00 188.71
  Q 496.21 188.78 495.96 190.00
  Q 495.09 189.73 494.96 190.50
  Q 492.96 190.71 493.50 189.04
  L 495.00 188.71
  Z"
/>
<path fill="#009792" d="
  M 510.00 195.04
  Q 511.41 194.55 511.25 193.04
  Q 512.49 192.11 513.25 192.25
  Q 514.20 192.43 514.16 193.02
  A 0.76 0.50 -3.8 0 1 513.50 193.52
  Q 512.55 193.65 512.05 194.38
  A 1.19 0.88 59.7 0 0 511.95 195.30
  L 512.56 197.46
  A 1.51 1.25 53.3 0 1 512.51 198.40
  Q 511.68 200.22 510.44 198.31
  Q 509.71 197.20 510.00 195.04
  Z"
/>
<path fill="#cbebe7" d="
  M 510.00 192.71
  Q 510.54 193.11 511.25 193.04
  Q 511.41 194.55 510.00 195.04
  L 508.54 195.00
  Q 508.34 193.19 510.00 192.71
  Z"
/>
<path fill="#009792" d="
  M 530.14 200.39
  Q 531.93 202.60 533.17 205.43
  Q 534.37 208.16 532.00 206.45
  L 528.50 203.91
  A 1.55 1.45 36.9 0 0 526.42 204.13
  Q 524.77 206.26 524.15 204.07
  Q 523.45 201.61 523.25 199.66
  A 1.53 1.52 1.5 0 0 521.96 198.31
  Q 519.41 197.94 521.41 196.64
  Q 524.23 194.79 525.17 197.45
  A 1.18 1.00 88.8 0 0 525.77 198.13
  Q 526.94 198.62 528.13 199.04
  Q 529.41 199.49 530.14 200.39
  Z"
/>
<path fill="#009792" d="
  M 516.19 236.64
  Q 515.55 236.68 515.00 236.44
  A 1.19 0.82 89.0 0 1 514.46 235.69
  Q 514.05 234.08 512.93 232.95
  Q 511.90 231.90 510.22 231.95
  Q 506.97 232.05 504.16 233.90
  Q 501.63 235.56 498.73 236.37
  A 1.42 1.22 -36.4 0 1 497.79 236.30
  Q 495.61 235.21 496.77 232.85
  Q 497.28 231.81 497.30 231.75
  Q 498.79 228.05 499.00 223.25
  Q 499.14 220.04 502.38 219.00
  Q 507.33 217.42 509.97 214.07
  A 2.24 2.23 -62.6 0 1 512.36 213.31
  Q 516.28 214.48 515.04 211.88
  A 1.02 0.90 50.0 0 1 515.06 210.99
  Q 516.33 208.81 518.50 208.25
  Q 522.86 207.13 521.99 210.74
  Q 521.42 213.14 521.44 213.44
  Q 521.57 215.00 523.04 215.97
  A 0.86 0.79 -62.3 0 0 524.23 215.55
  L 528.32 206.01
  Q 528.65 205.24 528.65 206.06
  L 528.59 211.75
  A 1.59 0.65 -80.3 0 0 528.79 212.65
  Q 529.68 213.97 530.04 215.48
  Q 530.05 215.52 530.02 218.01
  Q 530.00 219.33 531.04 220.25
  A 1.00 0.91 25.5 0 1 531.37 221.06
  Q 531.11 223.69 532.22 226.11
  Q 532.34 226.39 532.37 227.06
  L 532.58 231.44
  A 1.52 0.62 78.2 0 1 532.41 232.36
  Q 530.33 235.49 527.32 237.83
  Q 525.08 239.57 525.25 240.80
  Q 525.57 243.01 523.35 243.04
  Q 515.42 243.15 516.58 237.04
  A 0.36 0.34 2.8 0 0 516.19 236.64
  Z"
/>
<path fill="#009792" d="
  M 434.71 219.31
  Q 437.03 216.30 438.81 218.94
  Q 440.20 220.98 439.94 221.69
  L 434.56 236.50
  A 1.25 1.24 17.0 0 1 433.08 237.28
  Q 430.53 236.62 429.33 235.38
  A 1.14 1.13 25.4 0 1 429.01 234.50
  L 429.75 223.81
  A 0.73 0.64 -5.6 0 1 430.31 223.21
  Q 432.44 222.74 433.11 221.64
  Q 433.84 220.43 434.71 219.31
  Z"
/>
<path fill="#009792" d="
  M 538.52 239.66
  Q 538.99 236.27 539.98 237.57
  A 1.72 0.57 -88.2 0 1 540.26 238.51
  Q 540.40 239.92 541.94 240.81
  Q 543.87 241.93 541.79 242.67
  Q 541.33 242.83 540.95 243.16
  Q 539.11 244.78 537.70 242.74
  A 1.50 1.29 78.2 0 0 536.96 242.17
  Q 534.39 241.33 537.19 240.97
  A 1.55 1.54 -89.5 0 0 538.52 239.66
  Z"
/>
<path fill="#009792" d="
  M 533.30 245.49
  Q 534.10 243.73 535.96 243.26
  A 0.45 0.45 89.8 0 1 536.50 243.80
  Q 535.90 246.08 534.69 247.29
  Q 534.16 247.83 531.90 248.37
  Q 530.33 248.75 529.10 249.90
  A 0.92 0.79 -56.0 0 1 528.26 250.13
  Q 526.42 249.55 528.40 248.02
  A 4.61 4.59 -63.9 0 1 531.18 247.06
  Q 532.59 247.05 533.30 245.49
  Z"
/>
<path fill="#009792" d="
  M 517.72 248.41
  A 0.24 0.23 -50.1 0 1 517.42 248.44
  Q 514.94 246.73 517.63 244.91
  A 0.81 0.81 65.3 0 1 518.86 245.37
  Q 519.27 246.84 517.72 248.41
  Z"
/>
</svg>
