<?xml version="1.0" encoding="utf-8"?>
<!-- Generator: Adobe Illustrator 23.0.0, SVG Export Plug-In . SVG Version: 6.00 Build 0)  -->
<svg version="1.1" id="Layer_1" xmlns="http://www.w3.org/2000/svg" xmlns:xlink="http://www.w3.org/1999/xlink" x="0px" y="0px"
	 viewBox="0 0 1080 1080" style="enable-background:new 0 0 1080 1080;" xml:space="preserve">
<style type="text/css">
	.st0{fill:#7B7FB7;}
	.st1{fill:#565C99;}
	.st2{fill:#444C87;}
	.st3{fill:#273268;}
	.st4{fill:#01032C;}
	.st5{fill:#FFFFFF;}
</style>
<g>
	<path class="st0" d="M515.1,201.1c6.7,0,13.4,0.2,20.2,0.6c6.7,0.4,13.4,1,20.1,1.8c6.7,0.8,13.3,1.8,19.9,3
		c6.6,1.2,13.2,2.6,19.7,4.2c6.5,1.6,13,3.4,19.4,5.4c6.4,2,12.8,4.2,19.1,6.5c6.3,2.4,12.5,4.9,18.7,7.7c6.1,2.7,12.2,5.7,18.2,8.8
		c6,3.1,11.8,6.4,17.6,9.9c5.8,3.5,11.4,7.1,17,10.9c5.6,3.8,11,7.8,16.3,11.9c5.3,4.1,10.5,8.4,15.6,12.8c5.1,4.4,10,9,14.8,13.8
		s9.4,9.6,13.9,14.6c4.5,5,8.8,10.2,13,15.4c4.2,5.3,8.2,10.7,12.1,16.2l-137.7,96.3c-3.9-5.5-8-10.8-12.5-15.8
		c-4.5-5-9.3-9.7-14.3-14.2c-5.1-4.4-10.4-8.6-15.9-12.4c-5.6-3.8-11.3-7.3-17.3-10.4c-6-3.1-12.1-5.9-18.4-8.2
		c-6.3-2.4-12.7-4.4-19.3-6c-6.5-1.6-13.2-2.8-19.8-3.6c-6.7-0.8-13.4-1.2-20.1-1.2V201.1z"/>
	<path class="st1" d="M780.5,331.1c4.6,5.9,9,12,13.2,18.2c4.2,6.2,8.2,12.6,12,19.1c3.8,6.5,7.3,13.1,10.6,19.8
		c3.3,6.7,6.4,13.6,9.3,20.5c2.9,6.9,5.5,14,7.9,21.1c2.4,7.1,4.6,14.3,6.5,21.6c1.9,7.3,3.6,14.6,5,22c1.4,7.4,2.6,14.8,3.5,22.2
		c0.9,7.5,1.6,14.9,2,22.4c0.4,7.5,0.6,15,0.5,22.5c-0.1,7.5-0.4,15-1,22.5c-0.6,7.5-1.4,14.9-2.5,22.4s-2.4,14.8-4,22.2
		c-1.6,7.3-3.4,14.6-5.5,21.8c-2.1,7.2-4.4,14.4-6.9,21.4c-2.5,7.1-5.3,14-8.3,20.9c-3,6.9-6.2,13.7-9.7,20.3
		c-3.5,6.7-7.1,13.2-11,19.6c-3.9,6.4-8,12.7-12.3,18.8c-4.3,6.1-8.8,12.1-13.6,18c-4.7,5.8-9.6,11.5-14.7,17
		c-5.1,5.5-10.4,10.8-15.8,16c-5.5,5.2-11.1,10.1-16.9,14.9c-5.8,4.8-11.7,9.4-17.8,13.7c-6.1,4.4-12.3,8.6-18.7,12.5
		c-6.4,4-12.9,7.7-19.5,11.2c-6.6,3.5-13.4,6.8-20.2,9.9c-6.9,3.1-13.8,5.9-20.8,8.5c-7,2.6-14.2,5-21.4,7.1
		c-7.2,2.1-14.5,4-21.8,5.7c-7.3,1.6-14.7,3-22.1,4.2c-7.4,1.1-14.9,2-22.4,2.7l-14.5-167.4c7.5-0.7,14.9-1.8,22.2-3.4
		c7.3-1.6,14.5-3.8,21.6-6.4c7.1-2.6,13.9-5.7,20.5-9.2c6.6-3.5,13-7.5,19.1-11.9c6.1-4.4,11.9-9.2,17.4-14.3
		c5.5-5.2,10.6-10.7,15.3-16.5c4.7-5.8,9-12,12.9-18.4c3.9-6.4,7.4-13.1,10.4-20c3-6.9,5.5-13.9,7.6-21.2c2.1-7.2,3.6-14.6,4.7-22
		c1.1-7.4,1.7-14.9,1.7-22.4c0.1-7.5-0.4-15-1.3-22.5c-0.9-7.5-2.4-14.8-4.3-22.1c-1.9-7.3-4.3-14.4-7.2-21.3
		c-2.9-6.9-6.2-13.7-10-20.2c-3.8-6.5-8-12.7-12.6-18.7L780.5,331.1z"/>
	<path class="st2" d="M560.8,870.1c-7.4,1-14.9,1.8-22.4,2.3c-7.5,0.5-15,0.8-22.5,0.8c-7.5,0-15-0.2-22.5-0.7
		c-7.5-0.5-15-1.2-22.4-2.2s-14.8-2.2-22.2-3.7c-7.4-1.5-14.7-3.2-21.9-5.2c-7.2-2-14.4-4.2-21.5-6.6c-7.1-2.5-14.1-5.1-21-8.1
		c-6.9-2.9-13.7-6.1-20.4-9.4c-6.7-3.4-13.3-7-19.8-10.8c-6.5-3.8-12.8-7.9-19-12.1c-6.2-4.2-12.2-8.7-18.1-13.3
		c-5.9-4.6-11.6-9.5-17.2-14.5c-5.6-5-11-10.2-16.2-15.6c-5.2-5.4-10.3-11-15.1-16.7c-4.9-5.7-9.5-11.6-14-17.7
		c-4.5-6-8.7-12.2-12.7-18.6c-4-6.3-7.9-12.8-11.5-19.4c-3.6-6.6-7-13.3-10.2-20.1c-3.2-6.8-6.1-13.7-8.8-20.7
		c-2.7-7-5.2-14.1-7.4-21.3c-2.2-7.2-4.2-14.4-5.9-21.7s-3.2-14.7-4.5-22.1c-1.2-7.4-2.2-14.8-3-22.3c-0.7-7.5-1.2-15-1.5-22.5
		c-0.2-7.5-0.2-15,0-22.5c0.3-7.5,0.8-15,1.5-22.5c0.8-7.5,1.8-14.9,3-22.3c1.3-7.4,2.8-14.8,4.5-22.1c1.8-7.3,3.8-14.5,6-21.7
		c2.2-7.2,4.7-14.3,7.4-21.3c2.7-7,5.7-13.9,8.8-20.7l152.2,71.1c-3.2,6.8-5.9,13.8-8.1,21c-2.2,7.2-4,14.5-5.3,21.9
		c-1.3,7.4-2,14.9-2.3,22.4c-0.3,7.5,0,15,0.7,22.5c0.7,7.5,2,14.9,3.7,22.2c1.7,7.3,4,14.5,6.7,21.5c2.7,7,5.9,13.8,9.5,20.4
		c3.6,6.6,7.6,12.9,12.1,19c4.5,6.1,9.3,11.8,14.5,17.2c5.2,5.4,10.8,10.4,16.7,15.1c5.9,4.7,12.1,8.9,18.6,12.7
		c6.5,3.8,13.2,7.2,20.1,10.1s14,5.4,21.3,7.3c7.3,2,14.6,3.5,22.1,4.4c7.5,1,14.9,1.5,22.5,1.4c7.5,0,15-0.5,22.4-1.6L560.8,870.1z
		"/>
	<path class="st3" d="M203.8,410.3c4.1-10.1,8.7-20,13.8-29.6c5.1-9.7,10.6-19,16.6-28.2c6-9.1,12.4-17.9,19.3-26.4
		c6.9-8.5,14.1-16.6,21.7-24.4c7.6-7.8,15.6-15.2,24-22.2c8.4-7,17-13.6,26.1-19.7c9-6.2,18.3-11.9,27.8-17.1
		c9.6-5.3,19.4-10,29.4-14.3l66.3,154.4c-10,4.3-19.6,9.6-28.6,15.7c-9,6.2-17.4,13.2-25,21c-7.7,7.8-14.5,16.3-20.5,25.4
		c-6,9.1-11.1,18.8-15.2,28.9L203.8,410.3z"/>
	<path class="st4" d="M367.3,235.3c23-11.3,47-19.8,71.9-25.6c24.9-5.8,50.2-8.7,75.8-8.7l0,168c-12.8,0-25.4,1.4-37.9,4.3
		c-12.5,2.9-24.5,7.2-36,12.8L367.3,235.3z"/>
	<path class="st5" d="M274.4,701.8H307V697h-21.1l16.1-16c3-3,4.5-6.6,4.5-10.8c0-4.3-1.6-7.9-4.6-10.9c-3.1-3-6.8-4.6-11-4.6
		c-4.5,0-8.2,1.6-11.4,4.8c-3.1,3.1-4.5,6.9-4.3,11.4h4.8c-0.3-2.9,0.7-5.5,2.9-7.8c2.1-2.2,4.7-3.4,7.8-3.4c2.9,0,5.5,1,7.6,3.1
		c2.1,2.1,3.2,4.6,3.2,7.4c0,3-1,5.5-3.1,7.5L274.4,701.8z"/>
	<polygon class="st5" points="322.7,701.8 343.1,655.6 314,655.6 314,660.4 335.7,660.4 317.4,701.8 	"/>
	<path class="st5" d="M646.3,728.1H679v-4.8h-21.1l16.1-16c3-3,4.5-6.6,4.5-10.8c0-4.3-1.6-7.9-4.6-10.9c-3.1-3-6.8-4.6-11-4.6
		c-4.5,0-8.2,1.6-11.4,4.8c-3.1,3.1-4.5,6.9-4.3,11.4h4.8c-0.3-2.9,0.7-5.5,2.9-7.8c2.1-2.2,4.7-3.4,7.8-3.4c2.9,0,5.5,1,7.6,3.1
		c2.1,2.1,3.2,4.6,3.2,7.4c0,3-1,5.5-3.1,7.5L646.3,728.1z"/>
	<path class="st5" d="M708.2,727.6c1.9-0.8,3.5-1.9,5-3.3c3.1-3,4.6-6.6,4.6-11c0-4.3-1.6-8-4.7-11c-2.9-2.8-6.6-4.4-11-4.7l-2,1.2
		l14.5-17.2h-24.9v4.8h15.3l-14,16.4l3.6,2.9c2.2-2.2,4.8-3.3,7.8-3.3c3,0,5.5,1.1,7.6,3.2c2.1,2.1,3.2,4.6,3.2,7.6
		c0,2.9-1.1,5.5-3.3,7.5c-1,1-2.1,1.8-3.4,2.3c-1.4,0.5-2.9,0.8-4.8,0.8c-1.9,0-3.7-0.6-5.6-1.8c-1.9-1.2-3.2-2.9-4-5.1l-4.6,1.6
		c1,3.1,2.9,5.5,5.7,7.4c1.3,0.9,2.7,1.6,4.3,2c1.5,0.5,3.2,0.7,5.1,0.7C704.5,728.8,706.3,728.4,708.2,727.6z"/>
	<path class="st5" d="M426.8,275l2.6-10.3h13.9v-3.9h-16.9L422,278l4.3,1.9c1.6-1.2,3.6-1.8,5.8-1.8c2.3,0,4.3,0.9,6,2.7
		c1.7,1.9,2.6,3.9,2.6,6.3c0,2.5-0.9,4.6-2.7,6.2c-0.8,0.8-1.8,1.5-2.9,1.9s-2.4,0.7-3.9,0.7s-3.1-0.5-4.6-1.6
		c-1.6-1-2.7-2.4-3.3-4.1l-3.8,1.2c0.9,2.5,2.5,4.6,4.7,6.1c2.3,1.6,4.8,2.3,7.5,2.3c3.6,0,6.7-1.2,9.2-3.8c2.5-2.5,3.8-5.6,3.8-9.2
		c0-3.6-1.2-6.5-3.7-9c-1.2-1.1-2.5-2-4.1-2.7c-1.6-0.7-3.2-1-4.8-1C430.4,274.1,428.7,274.5,426.8,275z"/>
	<polygon class="st5" points="571.3,319.2 575.2,319.2 575.2,280.4 565.7,281.4 565.7,284.8 571.3,284.8 	"/>
	<path class="st5" d="M594.9,319.7c4.5,0,7.9-2.2,10.2-6.7c1.8-3.6,2.8-7.9,2.8-13.1c0-5.1-1-9.5-2.8-13c-2.3-4.5-5.7-6.7-10.2-6.7
		c-4.6,0-8,2.3-10.3,6.7c-1.8,3.6-2.7,7.9-2.7,13c0,5.2,0.9,9.5,2.7,13.1C586.9,317.5,590.3,319.7,594.9,319.7z M597.9,285.3
		c1.8,1.1,3.1,2.9,4,5.2c1.1,3,1.6,6.2,1.6,9.6c0,0.8-0.1,1.7-0.2,2.8c-0.5,4.2-1.5,7.4-3.3,9.8c-1.5,2-3.2,3-5.3,3
		c-2.4,0-4.3-1-5.8-2.9c-0.7-0.9-1.2-1.9-1.6-3c-0.5-1.1-0.7-2.3-1-3.4c-0.2-1.1-0.4-2.3-0.5-3.4c-0.1-1.1-0.1-2.3-0.1-3.7
		c0-1.4,0.2-3.2,0.6-5.3c0.2-1.1,0.5-2.3,1-3.4c0.4-1.1,0.9-2.1,1.6-3c0.7-0.9,1.5-1.6,2.4-2.1c0.9-0.6,2-0.8,3.3-0.8
		C595.9,284.4,597,284.7,597.9,285.3z"/>
	<path class="st5" d="M302.3,372.9c3.5,0,6.4-1,8.9-3.1c1.1-1,2-2.2,2.7-3.6c0.7-1.4,1-3,1-4.9s-0.6-3.6-1.7-5.4
		c-1.1-1.8-2.7-3.3-4.7-4.4c3-2.5,4.6-5.2,4.6-8.2c0-2.9-1.1-5.4-3.2-7.3c-2-1.8-4.5-2.7-7.6-2.7c-3.1,0-5.6,0.9-7.6,2.7
		c-2.1,1.9-3.1,4.3-3.1,7.2c0,3,1.5,5.8,4.6,8.2c-2.1,1.1-3.7,2.6-4.8,4.4c-1.1,1.8-1.6,3.6-1.6,5.5c0,3.5,1.2,6.3,3.7,8.4
		C295.8,371.9,298.8,372.9,302.3,372.9z M302.3,337.2c1.8,0,3.4,0.6,4.7,1.8c1.3,1.2,2,2.8,2,4.6c0,1.8-0.7,3.3-2,4.6
		c-1.3,1.3-2.9,1.9-4.7,1.9c-1.9,0-3.4-0.6-4.7-1.9c-1.4-1.3-2-2.8-2-4.6c0-1.8,0.6-3.3,2-4.6C298.9,337.9,300.5,337.2,302.3,337.2z
		 M302.3,352.8c2.3,0,4.2,0.8,5.8,2.3c1.6,1.5,2.4,3.4,2.4,5.6c0,2.3-0.8,4.2-2.3,5.8c-1.6,1.6-3.5,2.4-5.8,2.4
		c-2.4,0-4.3-0.8-5.8-2.4c-1.6-1.6-2.3-3.5-2.3-5.8c0-2.2,0.7-4.1,2.3-5.6C298.1,353.6,300,352.8,302.3,352.8z"/>
	<g>
		<path d="M475.3,506.4v-31.8h-9.7v-4.3H489v4.3h-9.8v31.8H475.3z"/>
		<path d="M486.5,493.3c0-4.5,0.9-7.9,2.8-10.2c1.9-2.3,4.3-3.4,7.2-3.4c2.9,0,5.2,1.1,7.2,3.4s2.9,5.6,2.9,9.9
			c0,4.7-0.9,8.2-2.8,10.5c-1.9,2.3-4.3,3.4-7.2,3.4c-2.9,0-5.3-1.2-7.2-3.5C487.4,501.2,486.5,497.8,486.5,493.3z M490.2,493.3
			c0,3.4,0.6,5.9,1.8,7.5c1.2,1.7,2.8,2.5,4.6,2.5c1.7,0,3.2-0.8,4.4-2.5c1.2-1.7,1.8-4.2,1.8-7.5c0-3.4-0.6-5.9-1.8-7.5
			c-1.2-1.7-2.8-2.5-4.6-2.5c-1.7,0-3.2,0.8-4.4,2.5C490.8,487.4,490.2,490,490.2,493.3z"/>
		<path d="M518.9,502.4l0.5,3.9c-1,0.3-1.9,0.4-2.7,0.4c-1.3,0-2.3-0.3-3-0.8c-0.8-0.5-1.3-1.2-1.6-2.1c-0.3-0.9-0.4-2.6-0.4-5.2
			v-15H509v-3.4h2.7v-6.5l3.6-2.7v9.1h3.7v3.4h-3.7V499c0,1.4,0.1,2.3,0.3,2.7c0.3,0.6,0.9,0.9,1.7,0.9
			C517.7,502.6,518.2,502.5,518.9,502.4z"/>
		<path d="M536.3,503.2c-1.2,1.3-2.5,2.2-3.8,2.9c-1.3,0.6-2.7,1-4.1,1c-2.2,0-4-0.7-5.3-2c-1.3-1.3-2-3.2-2-5.4
			c0-1.5,0.3-2.8,0.9-4c0.6-1.2,1.5-2.1,2.6-2.7c1.1-0.7,2.7-1.1,4.9-1.5c3-0.4,5.1-1,6.5-1.5l0-1.1c0-1.8-0.3-3-1-3.8
			c-0.9-1-2.3-1.6-4.2-1.6c-1.7,0-3,0.4-3.8,1.1c-0.8,0.7-1.5,2-1.8,3.9l-3.6-0.6c0.5-2.8,1.5-4.8,3.1-6.1c1.5-1.3,3.8-1.9,6.7-1.9
			c2.2,0,4,0.4,5.3,1.3c1.3,0.8,2.1,1.9,2.4,3.1c0.3,1.2,0.5,3.1,0.5,5.5v5.9c0,4.1,0.1,6.7,0.2,7.8c0.2,1.1,0.5,2.1,0.9,3.1H537
			C536.6,505.5,536.4,504.4,536.3,503.2z M536,493.3c-1.3,0.7-3.3,1.2-5.9,1.7c-1.5,0.3-2.6,0.6-3.2,0.9c-0.6,0.3-1.1,0.8-1.4,1.4
			s-0.5,1.3-0.5,2.1c0,1.2,0.4,2.2,1.2,3c0.8,0.7,1.8,1.1,3.2,1.1c1.3,0,2.5-0.3,3.5-1c1.1-0.7,1.8-1.6,2.4-2.7s0.8-2.8,0.8-4.9
			V493.3z"/>
		<path d="M545.2,506.4v-36.1h3.6v36.1H545.2z"/>
		<path d="M555.6,485.3v-5h4.1v5H555.6z M555.6,506.4v-5h4.1v5H555.6z"/>
		<path d="M409,535.5v-4.3h19.1v3.4c-2.9,3.7-5.4,8.5-7.5,14.5c-2.2,5.9-3.4,11.8-3.7,17.7h-3.7c0-3,0.5-6.5,1.4-10.6
			s2.2-7.8,3.7-11.5c1.6-3.6,3.3-6.7,5.1-9.3H409z"/>
		<path d="M431.7,557.3l3.6-0.6c0.8,4.7,2.7,7.1,5.7,7.1c1.7,0,3.1-0.7,4.3-2.1c1.2-1.4,1.8-3.2,1.8-5.5c0-2.1-0.6-3.8-1.7-5.1
			s-2.5-1.9-4.1-1.9c-0.7,0-1.5,0.2-2.6,0.5l0.4-3.9l0.6,0c1.8,0,3.3-0.5,4.4-1.6c1.1-1.1,1.7-2.6,1.7-4.4c0-1.7-0.5-3-1.4-4.1
			c-0.9-1-2.1-1.5-3.4-1.5c-1.4,0-2.6,0.5-3.5,1.6c-1,1.1-1.6,2.7-1.8,4.9l-3.6-0.8c0.5-3.1,1.5-5.4,3.1-7s3.5-2.4,5.8-2.4
			c2.4,0,4.4,0.9,6.1,2.7s2.5,4,2.5,6.7c0,1.6-0.4,3.1-1.1,4.4c-0.7,1.3-1.7,2.3-3,3c1.2,0.3,2.1,0.9,2.9,1.6s1.4,1.8,1.9,3
			c0.5,1.3,0.7,2.7,0.7,4.2c0,3.3-1,6-2.9,8.1c-2,2.1-4.3,3.2-7,3.2c-2.5,0-4.7-0.9-6.4-2.8C432.9,562.8,431.9,560.4,431.7,557.3z"
			/>
		<path d="M465.8,559l3.6-0.7c0.2,1.8,0.8,3.2,1.7,4.1c0.9,0.9,2.2,1.3,3.8,1.3c1.6,0,2.8-0.4,3.6-1.2c0.9-0.8,1.3-1.8,1.3-3
			c0-1-0.4-1.8-1.1-2.4c-0.5-0.4-1.7-0.9-3.7-1.5c-2.8-0.9-4.7-1.6-5.7-2.2c-1-0.6-1.7-1.4-2.2-2.4s-0.8-2.2-0.8-3.5
			c0-2.2,0.7-4,2.1-5.4c1.4-1.4,3.4-2.1,5.9-2.1c1.6,0,3,0.3,4.2,0.9c1.2,0.6,2.1,1.3,2.8,2.3c0.6,1,1.1,2.4,1.3,4.2l-3.5,0.6
			c-0.3-2.9-1.9-4.3-4.6-4.3c-1.6,0-2.7,0.3-3.5,0.9c-0.8,0.6-1.2,1.4-1.2,2.4c0,1,0.4,1.7,1.1,2.3c0.4,0.3,1.8,0.8,3.9,1.6
			c3,1,4.9,1.7,5.8,2.3c0.9,0.6,1.6,1.3,2.1,2.3c0.5,1,0.7,2.1,0.7,3.5c0,2.5-0.8,4.5-2.4,6.1c-1.6,1.5-3.7,2.3-6.5,2.3
			C469.6,567.4,466.6,564.6,465.8,559z"/>
		<path d="M495.9,562.9l0.5,3.9c-1,0.3-1.9,0.4-2.7,0.4c-1.3,0-2.3-0.3-3-0.8c-0.8-0.5-1.3-1.2-1.6-2.1c-0.3-0.9-0.4-2.6-0.4-5.2
			v-15H486v-3.4h2.7v-6.5l3.6-2.7v9.1h3.7v3.4h-3.7v15.3c0,1.4,0.1,2.3,0.3,2.7c0.3,0.6,0.9,0.9,1.7,0.9
			C494.7,563,495.3,563,495.9,562.9z"/>
		<path d="M513.4,566.8V563c-0.8,1.5-1.8,2.6-3,3.3c-1.1,0.7-2.4,1.1-3.8,1.1c-1.7,0-3.1-0.5-4.3-1.4s-2-2.1-2.4-3.5
			c-0.4-1.4-0.6-3.3-0.6-5.7v-16.2h3.6v14.5c0,2.7,0.1,4.5,0.4,5.4s0.8,1.6,1.5,2.2c0.7,0.5,1.6,0.8,2.5,0.8c1.7,0,3.2-0.7,4.3-2.1
			c1-1.2,1.4-3.5,1.4-6.8v-14h3.6v26.1H513.4z"/>
		<path d="M536.2,566.8v-3.3c-0.7,1.3-1.5,2.2-2.5,2.9c-1,0.7-2.1,1-3.3,1c-2.5,0-4.7-1.2-6.6-3.6s-2.8-5.7-2.8-10.1
			c0-3,0.4-5.5,1.2-7.6c0.8-2.1,1.9-3.6,3.3-4.6c1.4-1,2.9-1.5,4.6-1.5c1.2,0,2.3,0.3,3.3,0.9c1,0.6,1.9,1.5,2.5,2.6v-12.9h3.7v36.1
			H536.2z M524.7,553.8c0,3.4,0.6,5.9,1.8,7.5c1.2,1.6,2.5,2.5,4.1,2.5c1.5,0,2.9-0.8,4-2.4c1.1-1.6,1.7-4,1.7-7.1
			c0-3.7-0.6-6.3-1.7-8c-1.1-1.7-2.6-2.5-4.3-2.5c-1.5,0-2.8,0.8-3.9,2.4S524.7,550.3,524.7,553.8z"/>
		<path d="M559.9,558.4l3.7,0.6c-0.6,2.8-1.8,4.9-3.4,6.3c-1.6,1.4-3.7,2.1-6.1,2.1c-3,0-5.5-1.2-7.4-3.5c-1.9-2.3-2.8-5.6-2.8-10
			c0-4.5,0.9-7.9,2.8-10.3c1.9-2.4,4.3-3.6,7.2-3.6c2.8,0,5.1,1.2,6.9,3.5c1.9,2.3,2.8,5.7,2.8,10.1l0,1.2h-16
			c0.1,2.9,0.8,5.1,2,6.6c1.2,1.5,2.7,2.2,4.4,2.2C557,563.8,558.9,562,559.9,558.4z M548,551.2h12c-0.2-2.3-0.6-4-1.5-5.1
			c-1.2-1.6-2.6-2.4-4.5-2.4c-1.6,0-3,0.7-4.2,2C548.7,547.1,548.1,549,548,551.2z"/>
		<path d="M568.3,566.8v-26.1h3.3v3.7c0.8-1.4,1.7-2.5,2.9-3.2c1.1-0.7,2.4-1.1,3.9-1.1c1.1,0,2.2,0.2,3.2,0.7c1,0.5,1.8,1,2.4,1.8
			c0.6,0.7,1,1.7,1.3,2.8c0.3,1.2,0.4,3,0.4,5.4v16.1H582v-15.9c0-1.9-0.2-3.3-0.5-4.2c-0.3-0.9-0.8-1.6-1.5-2.1s-1.5-0.7-2.4-0.7
			c-1.7,0-3.1,0.6-4.2,1.9c-1,1.3-1.5,3.5-1.5,6.7v14.3H568.3z"/>
		<path d="M599.3,562.9l0.5,3.9c-1,0.3-1.9,0.4-2.7,0.4c-1.3,0-2.3-0.3-3-0.8c-0.8-0.5-1.3-1.2-1.6-2.1c-0.3-0.9-0.4-2.6-0.4-5.2
			v-15h-2.7v-3.4h2.7v-6.5l3.6-2.7v9.1h3.7v3.4h-3.7v15.3c0,1.4,0.1,2.3,0.3,2.7c0.3,0.6,0.9,0.9,1.7,0.9
			C598.1,563,598.6,563,599.3,562.9z"/>
		<path d="M601.3,559l3.6-0.7c0.2,1.8,0.8,3.2,1.7,4.1c0.9,0.9,2.2,1.3,3.8,1.3s2.8-0.4,3.6-1.2c0.9-0.8,1.3-1.8,1.3-3
			c0-1-0.4-1.8-1.1-2.4c-0.5-0.4-1.7-0.9-3.7-1.5c-2.8-0.9-4.7-1.6-5.7-2.2c-1-0.6-1.7-1.4-2.2-2.4c-0.5-1-0.8-2.2-0.8-3.5
			c0-2.2,0.7-4,2.1-5.4s3.4-2.1,5.9-2.1c1.6,0,3,0.3,4.2,0.9c1.2,0.6,2.1,1.3,2.8,2.3c0.6,1,1.1,2.4,1.3,4.2l-3.5,0.6
			c-0.3-2.9-1.9-4.3-4.6-4.3c-1.6,0-2.7,0.3-3.5,0.9c-0.8,0.6-1.2,1.4-1.2,2.4c0,1,0.4,1.7,1.1,2.3c0.4,0.3,1.8,0.8,3.9,1.6
			c3,1,4.9,1.7,5.8,2.3c0.9,0.6,1.6,1.3,2.1,2.3s0.7,2.1,0.7,3.5c0,2.5-0.8,4.5-2.4,6.1c-1.6,1.5-3.7,2.3-6.5,2.3
			C605.1,567.4,602.1,564.6,601.3,559z"/>
	</g>
	<g>
		<path d="M52.5,739.7l3.3-0.5c0.7,4.3,2.4,6.5,5.2,6.5c1.5,0,2.8-0.6,3.9-1.9s1.7-2.9,1.7-5c0-1.9-0.5-3.4-1.5-4.6
			c-1-1.2-2.3-1.7-3.7-1.7c-0.6,0-1.4,0.1-2.3,0.4l0.4-3.5l0.5,0c1.6,0,3-0.5,4-1.5c1-1,1.5-2.3,1.5-4c0-1.5-0.4-2.8-1.3-3.7
			c-0.9-0.9-1.9-1.4-3.1-1.4c-1.3,0-2.3,0.5-3.2,1.5c-0.9,1-1.4,2.5-1.7,4.4l-3.3-0.7c0.4-2.8,1.4-4.9,2.8-6.4
			c1.5-1.4,3.2-2.1,5.3-2.1c2.2,0,4,0.8,5.5,2.4c1.5,1.6,2.3,3.6,2.3,6.1c0,1.5-0.3,2.8-1,4c-0.6,1.1-1.5,2-2.7,2.7
			c1.1,0.3,2,0.8,2.6,1.5c0.7,0.7,1.3,1.6,1.7,2.7c0.4,1.1,0.6,2.4,0.6,3.8c0,3-0.9,5.5-2.7,7.4c-1.8,1.9-3.9,2.9-6.4,2.9
			c-2.3,0-4.2-0.8-5.8-2.5C53.6,744.8,52.7,742.5,52.5,739.7z"/>
		<path d="M75.3,748.4v-4.6h3.8v4.6H75.3z"/>
		<path d="M94.4,748.4v-7.8H82.7v-3.7L95,715.6h2.7v21.2h3.6v3.7h-3.6v7.8H94.4z M94.4,736.8v-14.8L86,736.8H94.4z"/>
		<path d="M104.4,738.5v-4h10.1v4H104.4z"/>
		<path d="M117.2,739.7l3.3-0.5c0.7,4.3,2.4,6.5,5.2,6.5c1.5,0,2.8-0.6,3.9-1.9s1.7-2.9,1.7-5c0-1.9-0.5-3.4-1.5-4.6
			c-1-1.2-2.3-1.7-3.7-1.7c-0.6,0-1.4,0.1-2.3,0.4l0.4-3.5l0.5,0c1.6,0,3-0.5,4-1.5c1-1,1.5-2.3,1.5-4c0-1.5-0.4-2.8-1.3-3.7
			c-0.9-0.9-1.9-1.4-3.1-1.4c-1.3,0-2.3,0.5-3.2,1.5c-0.9,1-1.4,2.5-1.7,4.4l-3.3-0.7c0.4-2.8,1.4-4.9,2.8-6.4
			c1.5-1.4,3.2-2.1,5.3-2.1c2.2,0,4,0.8,5.5,2.4c1.5,1.6,2.3,3.6,2.3,6.1c0,1.5-0.3,2.8-1,4c-0.6,1.1-1.5,2-2.7,2.7
			c1.1,0.3,2,0.8,2.6,1.5c0.7,0.7,1.3,1.6,1.7,2.7c0.4,1.1,0.6,2.4,0.6,3.8c0,3-0.9,5.5-2.7,7.4c-1.8,1.9-3.9,2.9-6.4,2.9
			c-2.3,0-4.2-0.8-5.8-2.5C118.3,744.8,117.4,742.5,117.2,739.7z"/>
		<path d="M140,748.4v-4.6h3.8v4.6H140z"/>
		<path d="M165.6,723.6l-3.3,0.3c-0.3-1.7-0.8-2.9-1.4-3.6c-0.9-1-1.9-1.6-3.2-1.6c-1.9,0-3.5,1.2-4.6,3.6c-1,2.1-1.5,5.1-1.5,9.1
			c0.8-1.4,1.7-2.5,2.9-3.3c1.1-0.7,2.4-1.1,3.6-1.1c2.1,0,4,1,5.6,2.9c1.6,1.9,2.4,4.5,2.4,7.7c0,2.2-0.4,4.2-1.2,6
			s-1.8,3.1-3.1,3.9s-2.6,1.3-4.1,1.3c-2.7,0-4.9-1.2-6.7-3.7c-1.8-2.4-2.6-6.5-2.6-12.2c0-6.3,0.9-10.8,2.7-13.5s4.1-4,6.9-4
			c2,0,3.7,0.7,5.1,2.1C164.5,718.9,165.3,721,165.6,723.6z M152.2,737.8c0,2.4,0.6,4.3,1.7,5.7c1.1,1.4,2.4,2.2,3.9,2.2
			c1.3,0,2.5-0.7,3.5-2c1-1.4,1.5-3.2,1.5-5.6c0-2.3-0.5-4.1-1.5-5.4c-1-1.3-2.3-1.9-3.7-1.9c-1.4,0-2.7,0.6-3.7,1.9
			C152.7,733.9,152.2,735.6,152.2,737.8z"/>
		<path d="M169.9,740.8l3.2-0.4c0.5,3.5,2,5.2,4.5,5.2c1.1,0,2.1-0.4,3-1.1s1.7-2.1,2.3-4s0.9-4.2,0.9-6.7V733
			c-0.7,1.3-1.6,2.4-2.8,3.2s-2.3,1.2-3.6,1.2c-2.2,0-4.1-1-5.7-2.9c-1.6-1.9-2.4-4.5-2.4-7.9c0-3.4,0.8-6.1,2.5-8.1
			c1.6-2,3.6-3,6-3c1.7,0,3.2,0.6,4.7,1.7c1.4,1.1,2.6,2.7,3.4,4.9s1.2,5.2,1.2,9.3c0,4.5-0.4,8-1.3,10.5s-2,4.3-3.5,5.5
			c-1.5,1.1-3.1,1.7-4.9,1.7c-2,0-3.7-0.7-5.1-2.1C171,745.5,170.2,743.4,169.9,740.8z M183.4,726.3c0-2.3-0.5-4.2-1.6-5.5
			c-1-1.3-2.2-2-3.6-2c-1.4,0-2.7,0.7-3.8,2.1c-1.1,1.4-1.7,3.3-1.7,5.7c0,2.2,0.5,3.9,1.6,5.1c1.1,1.3,2.3,1.9,3.8,1.9
			c1.5,0,2.7-0.6,3.7-1.9C182.9,730.5,183.4,728.7,183.4,726.3z"/>
		<path d="M83.8,794.7l3.3-0.5c0.7,4.3,2.4,6.5,5.2,6.5c1.5,0,2.8-0.6,3.9-1.9s1.7-2.9,1.7-5c0-1.9-0.5-3.4-1.5-4.6
			c-1-1.2-2.3-1.7-3.7-1.7c-0.6,0-1.4,0.1-2.3,0.4l0.4-3.5l0.5,0c1.6,0,3-0.5,4-1.5c1-1,1.5-2.3,1.5-4c0-1.5-0.4-2.8-1.3-3.7
			c-0.9-0.9-1.9-1.4-3.1-1.4c-1.3,0-2.3,0.5-3.2,1.5c-0.9,1-1.4,2.5-1.7,4.4l-3.3-0.7c0.4-2.8,1.4-4.9,2.8-6.4
			c1.5-1.4,3.2-2.1,5.3-2.1c2.2,0,4,0.8,5.5,2.4c1.5,1.6,2.3,3.6,2.3,6.1c0,1.5-0.3,2.8-1,4c-0.6,1.1-1.5,2-2.7,2.7
			c1.1,0.3,2,0.8,2.6,1.5c0.7,0.7,1.3,1.6,1.7,2.7c0.4,1.1,0.6,2.4,0.6,3.8c0,3-0.9,5.5-2.7,7.4c-1.8,1.9-3.9,2.9-6.4,2.9
			c-2.3,0-4.2-0.8-5.8-2.5C84.9,799.7,84,797.5,83.8,794.7z"/>
		<path d="M104.9,774.9V771h17.4v3.1c-2.6,3.4-4.9,7.8-6.8,13.2c-2,5.4-3.1,10.8-3.4,16.1h-3.4c0-2.7,0.5-5.9,1.3-9.6
			s2-7.1,3.4-10.4c1.4-3.3,3-6.1,4.7-8.5H104.9z"/>
		<path d="M126.2,778.4c0-2.7,0.5-4.8,1.6-6.3c1.1-1.4,2.4-2.2,4-2.2c1.6,0,3,0.7,4.2,2.2c1.1,1.4,1.7,3.6,1.7,6.5
			c0,2.8-0.6,5-1.7,6.5c-1.1,1.5-2.5,2.2-4.1,2.2c-1.6,0-2.9-0.7-4-2.2C126.7,783.7,126.2,781.4,126.2,778.4z M131.9,772.8
			c-0.8,0-1.5,0.4-2,1.3c-0.5,0.9-0.8,2.4-0.8,4.6s0.3,3.7,0.8,4.6c0.5,0.9,1.2,1.3,2.1,1.3c0.8,0,1.5-0.4,2-1.3
			c0.5-0.9,0.8-2.4,0.8-4.6s-0.3-3.7-0.8-4.6C133.4,773.2,132.7,772.8,131.9,772.8z M131.9,804.5l14.7-34.5h2.7l-14.7,34.5H131.9z
			 M143.6,795.6c0-2.7,0.5-4.8,1.6-6.3c1.1-1.4,2.4-2.2,4-2.2c1.7,0,3,0.7,4.2,2.2s1.7,3.6,1.7,6.5c0,2.8-0.6,5-1.7,6.5
			c-1.1,1.5-2.5,2.2-4.1,2.2c-1.6,0-2.9-0.7-4-2.2C144.1,800.9,143.6,798.6,143.6,795.6z M149.3,790c-0.8,0-1.5,0.4-2.1,1.3
			s-0.8,2.4-0.8,4.6c0,2.2,0.3,3.7,0.8,4.6c0.6,0.9,1.3,1.3,2.1,1.3c0.8,0,1.4-0.4,2-1.3c0.5-0.9,0.8-2.4,0.8-4.6s-0.3-3.7-0.8-4.6
			C150.8,790.4,150.1,790,149.3,790z"/>
	</g>
	<g>
		<path d="M105.1,238.1l3.3-0.5c0.7,4.3,2.4,6.5,5.2,6.5c1.5,0,2.8-0.6,3.9-1.9s1.7-2.9,1.7-5c0-1.9-0.5-3.4-1.5-4.6
			s-2.3-1.7-3.7-1.7c-0.6,0-1.4,0.1-2.3,0.4l0.4-3.5l0.5,0c1.6,0,3-0.5,4-1.5c1-1,1.5-2.3,1.5-4c0-1.5-0.4-2.8-1.3-3.7
			c-0.9-0.9-1.9-1.4-3.1-1.4c-1.3,0-2.3,0.5-3.2,1.5s-1.4,2.5-1.7,4.4l-3.3-0.7c0.4-2.8,1.4-4.9,2.8-6.3c1.5-1.4,3.2-2.1,5.3-2.1
			c2.2,0,4,0.8,5.5,2.4c1.5,1.6,2.3,3.6,2.3,6.1c0,1.5-0.3,2.8-1,4c-0.6,1.1-1.5,2-2.7,2.7c1.1,0.3,2,0.8,2.6,1.5s1.3,1.6,1.7,2.7
			c0.4,1.1,0.6,2.4,0.6,3.8c0,3-0.9,5.5-2.7,7.4s-3.9,2.9-6.4,2.9c-2.3,0-4.2-0.8-5.8-2.5C106.2,243.2,105.3,241,105.1,238.1z"/>
		<path d="M127.9,246.8v-4.6h3.8v4.6H127.9z"/>
		<path d="M148.9,246.8h-3.3v-25.6c-0.8,0.9-1.8,1.8-3.1,2.7c-1.3,0.9-2.5,1.6-3.5,2.1v-3.9c1.8-1,3.4-2.3,4.8-3.8
			c1.4-1.5,2.4-3,2.9-4.4h2.1V246.8z"/>
		<path d="M157,237v-4h10.1v4H157z"/>
		<path d="M169.8,238.1l3.3-0.5c0.7,4.3,2.4,6.5,5.2,6.5c1.5,0,2.8-0.6,3.9-1.9s1.7-2.9,1.7-5c0-1.9-0.5-3.4-1.5-4.6
			s-2.3-1.7-3.7-1.7c-0.6,0-1.4,0.1-2.3,0.4l0.4-3.5l0.5,0c1.6,0,3-0.5,4-1.5c1-1,1.5-2.3,1.5-4c0-1.5-0.4-2.8-1.3-3.7
			c-0.9-0.9-1.9-1.4-3.1-1.4c-1.3,0-2.3,0.5-3.2,1.5s-1.4,2.5-1.7,4.4l-3.3-0.7c0.4-2.8,1.4-4.9,2.8-6.3c1.5-1.4,3.2-2.1,5.3-2.1
			c2.2,0,4,0.8,5.5,2.4c1.5,1.6,2.3,3.6,2.3,6.1c0,1.5-0.3,2.8-1,4c-0.6,1.1-1.5,2-2.7,2.7c1.1,0.3,2,0.8,2.6,1.5s1.3,1.6,1.7,2.7
			c0.4,1.1,0.6,2.4,0.6,3.8c0,3-0.9,5.5-2.7,7.4s-3.9,2.9-6.4,2.9c-2.3,0-4.2-0.8-5.8-2.5C170.9,243.2,170,241,169.8,238.1z"/>
		<path d="M192.7,246.8v-4.6h3.8v4.6H192.7z"/>
		<path d="M201.1,238.1l3.3-0.5c0.7,4.3,2.4,6.5,5.2,6.5c1.5,0,2.8-0.6,3.9-1.9s1.7-2.9,1.7-5c0-1.9-0.5-3.4-1.5-4.6
			s-2.3-1.7-3.7-1.7c-0.6,0-1.4,0.1-2.3,0.4l0.4-3.5l0.5,0c1.6,0,3-0.5,4-1.5c1-1,1.5-2.3,1.5-4c0-1.5-0.4-2.8-1.3-3.7
			c-0.9-0.9-1.9-1.4-3.1-1.4c-1.3,0-2.3,0.5-3.2,1.5s-1.4,2.5-1.7,4.4l-3.3-0.7c0.4-2.8,1.4-4.9,2.8-6.3c1.5-1.4,3.2-2.1,5.3-2.1
			c2.2,0,4,0.8,5.5,2.4c1.5,1.6,2.3,3.6,2.3,6.1c0,1.5-0.3,2.8-1,4c-0.6,1.1-1.5,2-2.7,2.7c1.1,0.3,2,0.8,2.6,1.5s1.3,1.6,1.7,2.7
			c0.4,1.1,0.6,2.4,0.6,3.8c0,3-0.9,5.5-2.7,7.4s-3.9,2.9-6.4,2.9c-2.3,0-4.2-0.8-5.8-2.5C202.3,243.2,201.4,241,201.1,238.1z"/>
		<path d="M222.5,239.2l3.2-0.4c0.5,3.5,2,5.2,4.5,5.2c1.1,0,2.1-0.4,3-1.1s1.7-2.1,2.3-4s0.9-4.2,0.9-6.7v-0.8
			c-0.7,1.3-1.6,2.4-2.8,3.2s-2.3,1.2-3.6,1.2c-2.2,0-4.1-1-5.7-2.9s-2.4-4.5-2.4-7.9c0-3.4,0.8-6.1,2.5-8.1c1.6-2,3.6-3,6-3
			c1.7,0,3.2,0.6,4.7,1.7c1.4,1.1,2.6,2.7,3.4,4.9s1.2,5.2,1.2,9.3c0,4.5-0.4,8-1.3,10.5s-2,4.3-3.5,5.5c-1.5,1.1-3.1,1.7-4.9,1.7
			c-2,0-3.7-0.7-5.1-2.1C223.6,243.9,222.8,241.9,222.5,239.2z M236,224.8c0-2.3-0.5-4.2-1.6-5.5c-1-1.3-2.2-2-3.6-2
			c-1.4,0-2.7,0.7-3.8,2.1c-1.1,1.4-1.7,3.3-1.7,5.7c0,2.1,0.5,3.9,1.6,5.1c1.1,1.3,2.3,1.9,3.8,1.9c1.5,0,2.7-0.6,3.7-1.9
			C235.5,228.9,236,227.1,236,224.8z"/>
		<path d="M150.2,301.8h-3.3v-25.6c-0.8,0.9-1.8,1.8-3.1,2.7c-1.3,0.9-2.5,1.6-3.5,2.1v-3.9c1.8-1,3.4-2.3,4.8-3.8
			c1.4-1.5,2.4-3,2.9-4.4h2.1V301.8z"/>
		<path d="M168.4,301.8h-3.3v-25.6c-0.8,0.9-1.8,1.8-3.1,2.7c-1.3,0.9-2.5,1.6-3.5,2.1v-3.9c1.8-1,3.4-2.3,4.8-3.8
			c1.4-1.5,2.4-3,2.9-4.4h2.1V301.8z"/>
		<path d="M177.4,276.9c0-2.7,0.5-4.8,1.6-6.3c1.1-1.4,2.4-2.2,4-2.2c1.6,0,3,0.7,4.2,2.2c1.1,1.4,1.7,3.6,1.7,6.5
			c0,2.8-0.6,5-1.7,6.5s-2.5,2.2-4.1,2.2c-1.6,0-2.9-0.7-4-2.2C178,282.1,177.4,279.9,177.4,276.9z M183.1,271.2
			c-0.8,0-1.5,0.4-2,1.3c-0.5,0.9-0.8,2.4-0.8,4.6s0.3,3.7,0.8,4.6c0.5,0.9,1.2,1.3,2.1,1.3c0.8,0,1.5-0.4,2-1.3
			c0.5-0.9,0.8-2.4,0.8-4.6c0-2.2-0.3-3.7-0.8-4.6C184.6,271.6,184,271.2,183.1,271.2z M183.1,303l14.7-34.5h2.7L185.9,303H183.1z
			 M194.8,294.1c0-2.7,0.5-4.8,1.6-6.3c1.1-1.4,2.4-2.2,4-2.2c1.7,0,3,0.7,4.2,2.2s1.7,3.6,1.7,6.5c0,2.8-0.6,5-1.7,6.5
			c-1.1,1.5-2.5,2.2-4.1,2.2c-1.6,0-2.9-0.7-4-2.2C195.3,299.3,194.8,297.1,194.8,294.1z M200.5,288.4c-0.8,0-1.5,0.4-2.1,1.3
			s-0.8,2.4-0.8,4.6s0.3,3.7,0.8,4.6s1.3,1.3,2.1,1.3c0.8,0,1.4-0.4,2-1.3c0.5-0.9,0.8-2.4,0.8-4.6c0-2.2-0.3-3.7-0.8-4.6
			C202,288.9,201.4,288.4,200.5,288.4z"/>
	</g>
	<g>
		<path d="M354,130.1H351V97.3h3.3V109c0.7-1.1,1.5-1.9,2.4-2.4c0.9-0.5,1.9-0.8,3-0.8c1.5,0,2.9,0.5,4.1,1.4c1.2,0.9,2.2,2.3,3,4.1
			c0.7,1.8,1.1,4.1,1.1,6.7c0,4-0.8,7.1-2.5,9.3s-3.7,3.3-5.9,3.3c-1.1,0-2.2-0.3-3.1-0.9s-1.7-1.5-2.3-2.6V130.1z M354,118
			c0,2.5,0.2,4.3,0.7,5.5c0.4,1.2,1.1,2.2,1.9,2.8c0.8,0.6,1.7,1,2.7,1c1.4,0,2.6-0.8,3.6-2.3s1.6-3.8,1.6-6.9
			c0-3.1-0.5-5.4-1.5-6.9s-2.3-2.2-3.7-2.2c-1.4,0-2.6,0.8-3.6,2.3C354.5,112.9,354,115.1,354,118z"/>
		<path d="M385.2,122.4l3.4,0.5c-0.6,2.5-1.6,4.4-3.1,5.7s-3.3,1.9-5.5,1.9c-2.8,0-5-1-6.7-3.1c-1.7-2.1-2.6-5.1-2.6-9.1
			c0-4.1,0.9-7.2,2.6-9.4c1.7-2.2,3.9-3.2,6.5-3.2c2.5,0,4.6,1.1,6.3,3.2c1.7,2.1,2.5,5.2,2.5,9.2l0,1.1h-14.5
			c0.1,2.7,0.8,4.7,1.9,6c1.1,1.4,2.4,2,4,2C382.5,127.3,384.2,125.7,385.2,122.4z M374.3,115.9h10.9c-0.1-2.1-0.6-3.6-1.3-4.6
			c-1.1-1.5-2.4-2.2-4-2.2c-1.5,0-2.7,0.6-3.8,1.8C375,112.2,374.4,113.8,374.3,115.9z"/>
		<path d="M392.7,130.1V97.3h3.3v32.8H392.7z"/>
		<path d="M399.9,118.2c0-4.1,0.9-7.2,2.6-9.3s3.9-3.1,6.5-3.1c2.6,0,4.8,1,6.5,3.1c1.7,2.1,2.6,5.1,2.6,9c0,4.3-0.9,7.4-2.6,9.5
			c-1.7,2.1-3.9,3.1-6.6,3.1c-2.6,0-4.8-1-6.5-3.1C400.7,125.4,399.9,122.3,399.9,118.2z M403.2,118.2c0,3.1,0.6,5.4,1.7,6.9
			c1.1,1.5,2.5,2.3,4.2,2.3c1.6,0,2.9-0.8,4-2.3c1.1-1.5,1.7-3.8,1.7-6.8c0-3.1-0.6-5.3-1.7-6.8c-1.1-1.5-2.5-2.3-4.2-2.3
			c-1.6,0-2.9,0.8-4,2.3C403.8,112.8,403.2,115.1,403.2,118.2z"/>
		<path d="M425.6,130.1l-6-23.7h3.4l3.1,13.7l1.1,5.1l1-4.9l3.1-13.9h3.4l2.9,13.8l1,4.5l1.1-4.6l3.3-13.7h3.2l-6.1,23.7h-3.4
			l-3.1-14.2l-0.7-4l-3.9,18.3H425.6z"/>
		<path d="M458.6,121.4l3.3-0.5c0.7,4.3,2.4,6.5,5.2,6.5c1.5,0,2.8-0.6,3.9-1.9s1.7-2.9,1.7-5c0-1.9-0.5-3.4-1.5-4.6
			c-1-1.2-2.3-1.7-3.7-1.7c-0.6,0-1.4,0.1-2.3,0.4l0.4-3.5l0.5,0c1.6,0,3-0.5,4-1.5c1-1,1.5-2.3,1.5-4c0-1.5-0.4-2.8-1.3-3.7
			c-0.9-0.9-1.9-1.4-3.1-1.4c-1.3,0-2.3,0.5-3.2,1.5c-0.9,1-1.4,2.5-1.7,4.4l-3.3-0.7c0.4-2.8,1.4-4.9,2.8-6.3
			c1.5-1.4,3.2-2.1,5.3-2.1c2.2,0,4,0.8,5.5,2.4c1.5,1.6,2.3,3.6,2.3,6.1c0,1.5-0.3,2.8-1,4c-0.6,1.1-1.5,2-2.7,2.7
			c1.1,0.3,2,0.8,2.6,1.5c0.7,0.7,1.3,1.6,1.7,2.7c0.4,1.1,0.6,2.4,0.6,3.8c0,3-0.9,5.5-2.7,7.4s-3.9,2.9-6.4,2.9
			c-2.3,0-4.2-0.8-5.8-2.5C459.7,126.4,458.8,124.2,458.6,121.4z"/>
		<path d="M481.4,130.1v-4.6h3.8v4.6H481.4z"/>
		<path d="M502.3,130.1H499v-25.6c-0.8,0.9-1.8,1.8-3.1,2.7c-1.3,0.9-2.5,1.6-3.5,2.1v-3.9c1.8-1,3.4-2.3,4.8-3.8
			c1.4-1.5,2.4-3,2.9-4.4h2.1V130.1z"/>
		<path d="M404.7,160.2l-3.3,0.3c-0.3-1.7-0.8-2.9-1.4-3.6c-0.9-1-1.9-1.6-3.2-1.6c-1.9,0-3.5,1.2-4.6,3.6c-1,2.1-1.5,5.1-1.5,9.1
			c0.8-1.4,1.7-2.5,2.9-3.3c1.1-0.7,2.4-1.1,3.6-1.1c2.1,0,4,1,5.6,2.9c1.6,1.9,2.4,4.5,2.4,7.7c0,2.2-0.4,4.2-1.2,6
			s-1.8,3.1-3.1,3.9s-2.6,1.3-4.1,1.3c-2.7,0-4.9-1.2-6.7-3.7c-1.8-2.4-2.6-6.5-2.6-12.2c0-6.3,0.9-10.8,2.7-13.5s4.1-4,6.9-4
			c2,0,3.7,0.7,5.1,2.1C403.6,155.6,404.4,157.6,404.7,160.2z M391.3,174.4c0,2.4,0.6,4.3,1.7,5.7c1.1,1.4,2.4,2.2,3.9,2.2
			c1.3,0,2.5-0.7,3.5-2c1-1.4,1.5-3.2,1.5-5.6c0-2.3-0.5-4.1-1.5-5.4c-1-1.3-2.3-1.9-3.7-1.9c-1.4,0-2.7,0.6-3.7,1.9
			C391.8,170.5,391.3,172.2,391.3,174.4z"/>
		<path d="M410.5,185v-4.6h3.8v4.6H410.5z"/>
		<path d="M424.1,167.2c-1.3-0.6-2.3-1.4-3-2.6c-0.7-1.1-1-2.5-1-4.1c0-2.5,0.7-4.5,2.2-6.1c1.5-1.6,3.3-2.3,5.5-2.3
			c2.2,0,4.1,0.8,5.6,2.4s2.2,3.6,2.2,6.2c0,1.6-0.3,2.9-1,4s-1.6,1.9-3,2.6c1.6,0.6,2.9,1.7,3.7,3.1c0.9,1.4,1.3,3.2,1.3,5.3
			c0,2.9-0.8,5.3-2.5,7.1c-1.7,1.8-3.8,2.8-6.3,2.8c-2.5,0-4.6-0.9-6.3-2.8c-1.7-1.8-2.5-4.3-2.5-7.3c0-2.2,0.5-4,1.4-5.4
			C421.2,168.7,422.5,167.7,424.1,167.2z M422.3,175.5c0,2,0.5,3.6,1.6,4.9c1.1,1.2,2.4,1.8,3.9,1.8c1.5,0,2.8-0.6,3.9-1.8
			s1.6-2.8,1.6-4.8c0-2-0.5-3.6-1.6-4.9c-1.1-1.2-2.4-1.8-3.9-1.8c-1.5,0-2.8,0.6-3.8,1.8C422.9,172,422.3,173.6,422.3,175.5z
			 M423.4,160.4c0,1.6,0.4,2.9,1.3,3.8c0.8,1,1.9,1.4,3.1,1.4c1.2,0,2.2-0.5,3.1-1.4c0.8-0.9,1.3-2.1,1.3-3.6c0-1.5-0.4-2.8-1.3-3.8
			c-0.9-1-1.9-1.5-3.1-1.5c-1.2,0-2.2,0.5-3.1,1.4S423.4,159,423.4,160.4z"/>
		<path d="M440.4,160.1c0-2.7,0.5-4.8,1.6-6.3c1.1-1.4,2.4-2.2,4-2.2c1.6,0,3,0.7,4.2,2.2c1.1,1.4,1.7,3.6,1.7,6.5
			c0,2.8-0.6,5-1.7,6.5c-1.1,1.5-2.5,2.2-4.1,2.2c-1.6,0-2.9-0.7-4-2.2C441,165.3,440.4,163.1,440.4,160.1z M446.2,154.4
			c-0.8,0-1.5,0.4-2,1.3c-0.5,0.9-0.8,2.4-0.8,4.6c0,2.2,0.3,3.7,0.8,4.6c0.5,0.9,1.2,1.3,2.1,1.3c0.8,0,1.5-0.4,2-1.3
			c0.5-0.9,0.8-2.4,0.8-4.6c0-2.2-0.3-3.7-0.8-4.6C447.7,154.9,447,154.4,446.2,154.4z M446.2,186.2l14.7-34.5h2.7l-14.7,34.5H446.2
			z M457.8,177.3c0-2.7,0.5-4.8,1.6-6.3c1.1-1.4,2.4-2.2,4-2.2c1.7,0,3,0.7,4.2,2.2s1.7,3.6,1.7,6.5c0,2.8-0.6,5-1.7,6.5
			s-2.5,2.2-4.1,2.2c-1.6,0-2.9-0.7-4-2.2C458.4,182.5,457.8,180.3,457.8,177.3z M463.6,171.7c-0.8,0-1.5,0.4-2.1,1.3
			s-0.8,2.4-0.8,4.6c0,2.2,0.3,3.7,0.8,4.6c0.6,0.9,1.3,1.3,2.1,1.3c0.8,0,1.4-0.4,2-1.3c0.5-0.9,0.8-2.4,0.8-4.6
			c0-2.2-0.3-3.7-0.8-4.6C465.1,172.1,464.4,171.7,463.6,171.7z"/>
	</g>
	<g>
		<path d="M618,147.7c-1.1,1.1-2.3,2-3.4,2.6s-2.4,0.9-3.7,0.9c-2,0-3.6-0.6-4.9-1.8c-1.2-1.2-1.8-2.9-1.8-4.9
			c0-1.4,0.3-2.6,0.8-3.6s1.3-1.9,2.3-2.5c1-0.6,2.5-1,4.5-1.3c2.7-0.4,4.7-0.9,5.9-1.4l0-1c0-1.6-0.3-2.8-0.9-3.4
			c-0.8-1-2.1-1.4-3.8-1.4c-1.5,0-2.7,0.3-3.4,1c-0.8,0.6-1.3,1.8-1.7,3.6l-3.2-0.5c0.5-2.5,1.4-4.4,2.8-5.6c1.4-1.2,3.4-1.7,6-1.7
			c2,0,3.6,0.4,4.8,1.2s1.9,1.7,2.2,2.9c0.3,1.1,0.5,2.8,0.5,5v5.4c0,3.8,0.1,6.1,0.2,7.1c0.1,1,0.4,1.9,0.8,2.9h-3.4
			C618.3,149.8,618.1,148.9,618,147.7z M617.7,138.7c-1.2,0.6-3,1.1-5.4,1.5c-1.4,0.2-2.4,0.5-2.9,0.8c-0.6,0.3-1,0.7-1.3,1.3
			c-0.3,0.6-0.5,1.2-0.5,1.9c0,1.1,0.3,2,1.1,2.7c0.7,0.7,1.7,1,2.9,1c1.2,0,2.2-0.3,3.2-0.9c1-0.6,1.7-1.4,2.2-2.4
			c0.5-1,0.7-2.5,0.7-4.5V138.7z"/>
		<path d="M629.2,150.7h-3.1v-32.8h3.3v11.7c0.7-1.1,1.5-1.9,2.4-2.4s1.9-0.8,3-0.8c1.5,0,2.9,0.5,4.1,1.4c1.2,0.9,2.2,2.3,3,4.1
			c0.7,1.8,1.1,4.1,1.1,6.7c0,4-0.8,7.1-2.5,9.3c-1.7,2.2-3.7,3.3-5.9,3.3c-1.1,0-2.2-0.3-3.1-0.9c-0.9-0.6-1.7-1.5-2.3-2.6V150.7z
			 M629.2,138.6c0,2.5,0.2,4.3,0.7,5.5c0.4,1.2,1.1,2.2,1.9,2.8c0.8,0.6,1.7,1,2.7,1c1.4,0,2.6-0.8,3.6-2.3c1.1-1.5,1.6-3.8,1.6-6.9
			c0-3.1-0.5-5.4-1.5-6.9s-2.3-2.2-3.7-2.2c-1.4,0-2.6,0.8-3.6,2.3C629.7,133.5,629.2,135.7,629.2,138.6z"/>
		<path d="M645.8,138.8c0-4.1,0.9-7.2,2.6-9.3c1.7-2.1,3.9-3.1,6.5-3.1c2.6,0,4.8,1,6.5,3.1s2.6,5.1,2.6,9c0,4.3-0.9,7.4-2.6,9.5
			s-3.9,3.1-6.6,3.1c-2.6,0-4.8-1-6.5-3.1C646.7,146,645.8,142.9,645.8,138.8z M649.2,138.8c0,3.1,0.6,5.4,1.7,6.9
			c1.1,1.5,2.5,2.3,4.2,2.3c1.5,0,2.9-0.8,4-2.3c1.1-1.5,1.7-3.8,1.7-6.8c0-3.1-0.6-5.3-1.7-6.8c-1.1-1.5-2.5-2.3-4.2-2.3
			c-1.6,0-2.9,0.8-4,2.3C649.8,133.5,649.2,135.7,649.2,138.8z"/>
		<path d="M673.4,150.7l-7.4-23.7h3.5l4.2,14.2c0.5,1.6,0.9,3.2,1.3,4.8c0.3-1.3,0.7-2.8,1.2-4.5l4.3-14.5h3.4l-7.4,23.7H673.4z"/>
		<path d="M700.1,143l3.4,0.5c-0.6,2.5-1.6,4.4-3.1,5.7s-3.3,1.9-5.5,1.9c-2.8,0-5-1-6.7-3.1c-1.7-2.1-2.6-5.1-2.6-9.1
			c0-4.1,0.9-7.2,2.6-9.4c1.7-2.2,3.9-3.2,6.5-3.2c2.5,0,4.6,1.1,6.3,3.2c1.7,2.1,2.5,5.2,2.5,9.2l0,1.1H689c0.1,2.7,0.8,4.7,1.9,6
			s2.4,2,4,2C697.4,147.9,699.1,146.3,700.1,143z M689.2,136.5h10.9c-0.2-2.1-0.6-3.6-1.3-4.6c-1.1-1.5-2.4-2.2-4-2.2
			c-1.5,0-2.7,0.6-3.8,1.8C689.9,132.8,689.3,134.4,689.2,136.5z"/>
		<path d="M717.1,142l3.3-0.5c0.7,4.3,2.4,6.5,5.2,6.5c1.5,0,2.8-0.6,3.9-1.9c1.1-1.3,1.7-2.9,1.7-5c0-1.9-0.5-3.4-1.5-4.6
			c-1-1.2-2.3-1.7-3.7-1.7c-0.6,0-1.4,0.1-2.3,0.4l0.4-3.5l0.5,0c1.6,0,3-0.5,4-1.5c1-1,1.5-2.3,1.5-4c0-1.5-0.4-2.8-1.3-3.7
			c-0.9-0.9-1.9-1.4-3.1-1.4c-1.3,0-2.3,0.5-3.2,1.5c-0.9,1-1.4,2.5-1.7,4.4l-3.3-0.7c0.4-2.8,1.4-4.9,2.8-6.3s3.2-2.1,5.3-2.1
			c2.2,0,4,0.8,5.5,2.4c1.5,1.6,2.3,3.6,2.3,6.1c0,1.5-0.3,2.8-1,4c-0.6,1.1-1.5,2-2.7,2.7c1.1,0.3,2,0.8,2.7,1.5
			c0.7,0.7,1.3,1.6,1.7,2.7c0.4,1.1,0.6,2.4,0.6,3.8c0,3-0.9,5.5-2.7,7.4c-1.8,1.9-3.9,2.9-6.4,2.9c-2.3,0-4.2-0.8-5.8-2.5
			C718.3,147,717.4,144.8,717.1,142z"/>
		<path d="M740,150.7v-4.6h3.8v4.6H740z"/>
		<path d="M749,143.1l3.2-0.4c0.5,3.5,2,5.2,4.5,5.2c1.1,0,2.1-0.4,3-1.1c0.9-0.8,1.7-2.1,2.3-4s0.9-4.2,0.9-6.7v-0.8
			c-0.7,1.3-1.6,2.4-2.8,3.2c-1.2,0.8-2.3,1.2-3.6,1.2c-2.2,0-4.1-1-5.7-2.9c-1.6-1.9-2.4-4.5-2.4-7.9c0-3.4,0.8-6.1,2.5-8.1
			c1.6-2,3.6-3,6-3c1.7,0,3.2,0.6,4.7,1.7c1.4,1.1,2.6,2.7,3.4,4.9c0.8,2.1,1.2,5.2,1.2,9.3c0,4.5-0.4,8-1.3,10.5s-2,4.3-3.5,5.5
			c-1.5,1.1-3.1,1.7-4.9,1.7c-2,0-3.7-0.7-5.1-2.1C750,147.7,749.2,145.7,749,143.1z M762.5,128.6c0-2.3-0.5-4.2-1.6-5.5
			c-1-1.3-2.2-2-3.6-2c-1.4,0-2.7,0.7-3.8,2.1c-1.1,1.4-1.7,3.3-1.7,5.7c0,2.2,0.5,3.9,1.6,5.1s2.3,1.9,3.8,1.9
			c1.5,0,2.7-0.6,3.7-1.9C762,132.8,762.5,131,762.5,128.6z"/>
		<path d="M646.1,205.6h-3.3V180c-0.8,0.9-1.8,1.8-3.1,2.7c-1.3,0.9-2.5,1.6-3.5,2.1v-3.9c1.8-1,3.4-2.3,4.8-3.8
			c1.4-1.5,2.4-3,2.9-4.4h2.1V205.6z"/>
		<path d="M654.5,196.9l3.3-0.5c0.7,4.3,2.4,6.5,5.2,6.5c1.5,0,2.8-0.6,3.9-1.9s1.7-2.9,1.7-5c0-1.9-0.5-3.4-1.5-4.6
			c-1-1.2-2.3-1.7-3.7-1.7c-0.6,0-1.4,0.1-2.3,0.4l0.4-3.5l0.5,0c1.6,0,3-0.5,4-1.5c1-1,1.5-2.3,1.5-4c0-1.5-0.4-2.8-1.3-3.7
			s-1.9-1.4-3.1-1.4c-1.3,0-2.3,0.5-3.2,1.5c-0.9,1-1.4,2.5-1.7,4.4l-3.3-0.7c0.4-2.8,1.4-4.9,2.8-6.3s3.2-2.1,5.3-2.1
			c2.2,0,4,0.8,5.5,2.4c1.5,1.6,2.3,3.6,2.3,6.1c0,1.5-0.3,2.8-1,4c-0.6,1.1-1.5,2-2.7,2.7c1.1,0.3,2,0.8,2.6,1.5
			c0.7,0.7,1.3,1.6,1.7,2.7c0.4,1.1,0.6,2.4,0.6,3.8c0,3-0.9,5.5-2.7,7.4s-3.9,2.9-6.4,2.9c-2.3,0-4.2-0.8-5.8-2.5
			C655.6,202,654.7,199.8,654.5,196.9z"/>
		<path d="M677.4,205.6V201h3.8v4.6H677.4z"/>
		<path d="M686.1,177.1v-3.9h17.4v3.1c-2.6,3.4-4.9,7.8-6.8,13.2c-2,5.4-3.1,10.8-3.4,16.1h-3.4c0-2.7,0.5-5.9,1.3-9.6
			c0.8-3.7,2-7.1,3.4-10.4c1.4-3.3,3-6.1,4.7-8.5H686.1z"/>
		<path d="M707.3,180.7c0-2.7,0.5-4.8,1.6-6.3c1.1-1.4,2.4-2.2,4-2.2c1.6,0,3,0.7,4.2,2.2c1.1,1.4,1.7,3.6,1.7,6.5
			c0,2.8-0.6,5-1.7,6.5c-1.1,1.5-2.5,2.2-4.1,2.2c-1.6,0-2.9-0.7-4-2.2C707.9,185.9,707.3,183.7,707.3,180.7z M713,175
			c-0.8,0-1.5,0.4-2,1.3c-0.5,0.9-0.8,2.4-0.8,4.6c0,2.2,0.3,3.7,0.8,4.6c0.5,0.9,1.2,1.3,2.1,1.3c0.8,0,1.5-0.4,2-1.3
			c0.5-0.9,0.8-2.4,0.8-4.6c0-2.2-0.3-3.7-0.8-4.6C714.5,175.5,713.9,175,713,175z M713,206.8l14.7-34.5h2.7l-14.7,34.5H713z
			 M724.7,197.9c0-2.7,0.5-4.8,1.6-6.3c1.1-1.4,2.4-2.2,4-2.2c1.7,0,3,0.7,4.2,2.2s1.7,3.6,1.7,6.5c0,2.8-0.6,5-1.7,6.5
			c-1.1,1.5-2.5,2.2-4.1,2.2c-1.6,0-2.9-0.7-4-2.2C725.2,203.1,724.7,200.9,724.7,197.9z M730.4,192.3c-0.8,0-1.5,0.4-2.1,1.3
			s-0.8,2.4-0.8,4.6c0,2.2,0.3,3.7,0.8,4.6c0.6,0.9,1.3,1.3,2.1,1.3c0.8,0,1.4-0.4,2-1.3c0.5-0.9,0.8-2.4,0.8-4.6
			c0-2.2-0.3-3.7-0.8-4.6C731.9,192.7,731.3,192.3,730.4,192.3z"/>
	</g>
	<g>
		<path d="M892.7,625.1l3.3-0.5c0.7,4.3,2.4,6.5,5.2,6.5c1.5,0,2.8-0.6,3.9-1.9c1.1-1.3,1.7-2.9,1.7-5c0-1.9-0.5-3.4-1.5-4.6
			c-1-1.2-2.3-1.7-3.7-1.7c-0.6,0-1.4,0.1-2.3,0.4l0.4-3.5l0.5,0c1.6,0,3-0.5,4-1.5c1-1,1.5-2.3,1.5-4c0-1.5-0.4-2.8-1.3-3.7
			c-0.9-0.9-1.9-1.4-3.1-1.4c-1.3,0-2.3,0.5-3.2,1.5c-0.9,1-1.4,2.5-1.7,4.4l-3.3-0.7c0.4-2.8,1.4-4.9,2.8-6.4
			c1.5-1.4,3.2-2.1,5.3-2.1c2.2,0,4,0.8,5.5,2.4c1.5,1.6,2.3,3.6,2.3,6.1c0,1.5-0.3,2.8-1,4s-1.5,2-2.7,2.7c1.1,0.3,2,0.8,2.7,1.5
			c0.7,0.7,1.3,1.6,1.7,2.7c0.4,1.1,0.6,2.4,0.6,3.8c0,3-0.9,5.5-2.7,7.4c-1.8,1.9-3.9,2.9-6.4,2.9c-2.3,0-4.2-0.8-5.8-2.5
			C893.8,630.1,892.9,627.9,892.7,625.1z"/>
		<path d="M915.6,633.8v-4.6h3.8v4.6H915.6z"/>
		<path d="M924.3,605.3v-3.9h17.4v3.1c-2.6,3.4-4.9,7.8-6.8,13.2c-2,5.4-3.1,10.8-3.4,16.1H928c0-2.7,0.5-5.9,1.3-9.6
			c0.8-3.7,2-7.1,3.4-10.4c1.4-3.3,3-6.1,4.7-8.5H924.3z"/>
		<path d="M944.6,623.9v-4h10.1v4H944.6z"/>
		<path d="M957.4,625.1l3.3-0.5c0.7,4.3,2.4,6.5,5.2,6.5c1.5,0,2.8-0.6,3.9-1.9s1.7-2.9,1.7-5c0-1.9-0.5-3.4-1.5-4.6
			c-1-1.2-2.3-1.7-3.7-1.7c-0.6,0-1.4,0.1-2.3,0.4l0.4-3.5l0.5,0c1.6,0,3-0.5,4-1.5c1-1,1.5-2.3,1.5-4c0-1.5-0.4-2.8-1.3-3.7
			s-1.9-1.4-3.1-1.4c-1.3,0-2.3,0.5-3.2,1.5c-0.9,1-1.4,2.5-1.7,4.4l-3.3-0.7c0.4-2.8,1.4-4.9,2.8-6.4c1.5-1.4,3.2-2.1,5.3-2.1
			c2.2,0,4,0.8,5.5,2.4c1.5,1.6,2.3,3.6,2.3,6.1c0,1.5-0.3,2.8-1,4s-1.5,2-2.7,2.7c1.1,0.3,2,0.8,2.6,1.5c0.7,0.7,1.3,1.6,1.7,2.7
			c0.4,1.1,0.6,2.4,0.6,3.8c0,3-0.9,5.5-2.7,7.4c-1.8,1.9-3.9,2.9-6.4,2.9c-2.3,0-4.2-0.8-5.8-2.5
			C958.6,630.1,957.6,627.9,957.4,625.1z"/>
		<path d="M980.3,633.8v-4.6h3.8v4.6H980.3z"/>
		<path d="M993.8,616c-1.3-0.6-2.3-1.4-3-2.6s-1-2.5-1-4.1c0-2.5,0.7-4.5,2.2-6.1c1.5-1.6,3.3-2.3,5.5-2.3c2.2,0,4.1,0.8,5.6,2.4
			s2.2,3.6,2.2,6.2c0,1.6-0.3,2.9-1,4s-1.6,1.9-3,2.6c1.6,0.6,2.9,1.7,3.7,3.1c0.9,1.4,1.3,3.2,1.3,5.3c0,2.9-0.8,5.3-2.5,7.1
			s-3.8,2.8-6.3,2.8c-2.5,0-4.6-0.9-6.3-2.8s-2.5-4.3-2.5-7.3c0-2.2,0.5-4,1.4-5.4C991,617.4,992.2,616.5,993.8,616z M992.1,624.3
			c0,2,0.5,3.6,1.6,4.9s2.4,1.8,3.9,1.8c1.5,0,2.8-0.6,3.9-1.8c1.1-1.2,1.6-2.8,1.6-4.8c0-2-0.5-3.6-1.6-4.9
			c-1.1-1.2-2.4-1.8-3.9-1.8c-1.5,0-2.8,0.6-3.8,1.8C992.6,620.8,992.1,622.4,992.1,624.3z M993.2,609.2c0,1.6,0.4,2.9,1.3,3.8
			s1.9,1.4,3.1,1.4c1.2,0,2.2-0.5,3.1-1.4c0.8-0.9,1.3-2.1,1.3-3.6c0-1.5-0.4-2.8-1.3-3.8c-0.9-1-1.9-1.5-3.1-1.5s-2.2,0.5-3.1,1.4
			C993.6,606.5,993.2,607.7,993.2,609.2z"/>
		<path d="M1010.1,626.2l3.2-0.4c0.5,3.5,2,5.2,4.5,5.2c1.1,0,2.1-0.4,3-1.1c0.9-0.8,1.7-2.1,2.3-4s0.9-4.2,0.9-6.7v-0.8
			c-0.7,1.3-1.6,2.4-2.8,3.2c-1.2,0.8-2.3,1.2-3.6,1.2c-2.2,0-4.1-1-5.7-2.9c-1.6-1.9-2.4-4.5-2.4-7.9c0-3.4,0.8-6.1,2.5-8.1
			c1.6-2,3.6-3,6-3c1.7,0,3.2,0.6,4.7,1.7c1.4,1.1,2.6,2.7,3.4,4.9c0.8,2.1,1.2,5.2,1.2,9.3c0,4.5-0.4,8-1.3,10.5s-2,4.3-3.5,5.5
			c-1.5,1.1-3.1,1.7-4.9,1.7c-2,0-3.7-0.7-5.1-2.1S1010.4,628.8,1010.1,626.2z M1023.7,611.7c0-2.3-0.5-4.2-1.6-5.5
			c-1-1.3-2.2-2-3.6-2c-1.4,0-2.7,0.7-3.8,2.1c-1.1,1.4-1.7,3.3-1.7,5.7c0,2.2,0.5,3.9,1.6,5.1s2.3,1.9,3.8,1.9
			c1.5,0,2.7-0.6,3.7-1.9C1023.1,615.9,1023.7,614.1,1023.7,611.7z"/>
		<path d="M908.4,680l3.3-0.5c0.7,4.3,2.4,6.5,5.2,6.5c1.5,0,2.8-0.6,3.9-1.9s1.7-2.9,1.7-5c0-1.9-0.5-3.4-1.5-4.6
			c-1-1.2-2.3-1.7-3.7-1.7c-0.6,0-1.4,0.1-2.3,0.4l0.4-3.5l0.5,0c1.6,0,3-0.5,4-1.5c1-1,1.5-2.3,1.5-4c0-1.5-0.4-2.8-1.3-3.7
			s-1.9-1.4-3.1-1.4c-1.3,0-2.3,0.5-3.2,1.5c-0.9,1-1.4,2.5-1.7,4.4l-3.3-0.7c0.4-2.8,1.4-4.9,2.8-6.4c1.5-1.4,3.2-2.1,5.3-2.1
			c2.2,0,4,0.8,5.5,2.4c1.5,1.6,2.3,3.6,2.3,6.1c0,1.5-0.3,2.8-1,4s-1.5,2-2.7,2.7c1.1,0.3,2,0.8,2.6,1.5c0.7,0.7,1.3,1.6,1.7,2.7
			c0.4,1.1,0.6,2.4,0.6,3.8c0,3-0.9,5.5-2.7,7.4c-1.8,1.9-3.9,2.9-6.4,2.9c-2.3,0-4.2-0.8-5.8-2.5
			C909.5,685.1,908.6,682.9,908.4,680z"/>
		<path d="M941.7,688.7h-3.3v-25.6c-0.8,0.9-1.8,1.8-3.1,2.7c-1.3,0.9-2.5,1.6-3.5,2.1V664c1.8-1,3.4-2.3,4.8-3.8
			c1.4-1.5,2.4-3,2.9-4.4h2.1V688.7z"/>
		<path d="M952.1,688.7v-4.6h3.8v4.6H952.1z"/>
		<path d="M960.6,680.1l3.5-0.4c0.3,2.1,0.9,3.6,1.8,4.7c0.9,1,2,1.5,3.3,1.5c1.6,0,2.9-0.7,4-2.2s1.7-3.4,1.7-5.9
			c0-2.3-0.5-4.2-1.6-5.5c-1.1-1.3-2.5-1.9-4.1-1.9c-1,0-1.9,0.3-2.8,0.8c-0.9,0.6-1.6,1.3-2.1,2.3l-3.1-0.5l2.6-16.8h13.3v3.8
			h-10.7L965,669c1.6-1.4,3.3-2.1,5.1-2.1c2.3,0,4.2,1,5.9,2.9c1.7,1.9,2.5,4.5,2.5,7.8c0,3.2-0.8,6-2.5,8.2
			c-1.7,2.3-3.9,3.4-6.7,3.4c-2.3,0-4.3-0.8-5.9-2.4C961.7,685.2,960.8,683,960.6,680.1z"/>
		<path d="M982.1,663.8c0-2.7,0.5-4.8,1.6-6.3c1.1-1.4,2.4-2.2,4-2.2c1.6,0,3,0.7,4.2,2.2c1.1,1.4,1.7,3.6,1.7,6.5
			c0,2.8-0.6,5-1.7,6.5c-1.1,1.5-2.5,2.2-4.1,2.2c-1.6,0-2.9-0.7-4-2.2C982.6,669,982.1,666.8,982.1,663.8z M987.8,658.1
			c-0.8,0-1.5,0.4-2,1.3c-0.5,0.9-0.8,2.4-0.8,4.6s0.3,3.7,0.8,4.6c0.5,0.9,1.2,1.3,2.1,1.3c0.8,0,1.5-0.4,2-1.3
			c0.5-0.9,0.8-2.4,0.8-4.6s-0.3-3.7-0.8-4.6C989.3,658.6,988.6,658.1,987.8,658.1z M987.8,689.9l14.7-34.5h2.7l-14.7,34.5H987.8z
			 M999.4,681c0-2.7,0.5-4.8,1.6-6.3c1.1-1.4,2.4-2.2,4-2.2c1.7,0,3,0.7,4.2,2.2s1.7,3.6,1.7,6.5c0,2.8-0.6,5-1.7,6.5
			c-1.1,1.5-2.5,2.2-4.1,2.2c-1.6,0-2.9-0.7-4-2.2S999.4,684,999.4,681z M1005.2,675.4c-0.8,0-1.5,0.4-2.1,1.3
			c-0.5,0.9-0.8,2.4-0.8,4.6c0,2.2,0.3,3.7,0.8,4.6c0.6,0.9,1.3,1.3,2.1,1.3c0.8,0,1.4-0.4,2-1.3c0.5-0.9,0.8-2.4,0.8-4.6
			s-0.3-3.7-0.8-4.6S1006,675.4,1005.2,675.4z"/>
	</g>
</g>
</svg>
