<?xml version="1.0" encoding="utf-8"?>
<!-- Generator: Adobe Illustrator 23.0.0, SVG Export Plug-In . SVG Version: 6.00 Build 0)  -->
<svg version="1.1" id="Layer_1" xmlns="http://www.w3.org/2000/svg" xmlns:xlink="http://www.w3.org/1999/xlink" x="0px" y="0px"
	 viewBox="0 0 1770.9 516.1" style="enable-background:new 0 0 1770.9 516.1;" xml:space="preserve">
<style type="text/css">
	.st0{fill:#FFFFFF;}
	.st1{fill-rule:evenodd;clip-rule:evenodd;fill:#EA8331;}
	.st2{fill:none;stroke:#EA8331;stroke-width:4;stroke-miterlimit:10;}
	.st3{fill:#01032C;}
	.st4{enable-background:new    ;}
	.st5{clip-path:url(#SVGID_3_);fill:#01032C;}
	.st6{clip-path:url(#SVGID_5_);fill:#01032C;}
	.st7{fill:none;stroke:#01032C;stroke-width:10;stroke-miterlimit:10;}
</style>
<g>
	<g>
		<g>
			<path class="st0" d="M606.6,238.5v-5.6c10.4-1.4,10.9-3.2,8.6-9.9c-1.8-5.4-4.7-13.1-7.5-21h-33.2c-2.1,5.9-4.4,12.2-6.3,17.8
				c-3.5,10.4-0.1,11.8,13,13.1v5.6h-39.6v-5.6c10.3-1.3,13-2.7,18.6-16.8l34.1-85.3l7-1.3c10.4,28.4,21.6,58.2,32.2,85.9
				c5.8,14.9,7.3,16.1,18.3,17.4v5.6L606.6,238.5L606.6,238.5z M591.5,156.9c-4.9,12.6-9.9,25-14.3,37.3h27.7L591.5,156.9z"/>
			<path class="st0" d="M740.2,158.2c-3.1-10.6-7.7-22.1-22.9-22.1c-10.7,0-16.3,7.6-16.3,16.6c0,9.8,6.5,15.4,20.6,22.5
				c18.3,9.2,28.5,17.4,28.5,33.4c0,18.6-15.7,32.4-38.3,32.4c-10.3,0-19.3-2.8-26.7-5.2c-1.1-4.1-3.6-19.1-4.7-27.2l5.9-1.4
				c3.3,10.6,11.8,27.2,28.2,27.2c10.6,0,17.1-6.9,17.1-17.5s-6.2-16-20.2-23.6c-17.1-9.2-27.8-17.3-27.8-33.8c0-16.3,13-30,36.6-30
				c10.6,0,19.3,2.5,22.8,3c0.7,6,1.6,13.9,2.9,24.3L740.2,158.2z"/>
			<path class="st0" d="M882.3,137.4c-10.8,1.2-14,3.3-20.1,13.5c-6.4,10.8-11.9,20.6-19.9,36.4c-1.5,3-2,5-2,9v20.3
				c0,14,1.4,14.7,15.5,16.3v5.6h-50.2v-5.6c13.6-1.8,14.8-2.2,14.8-16.3v-19.7c0-3.5-0.7-5.1-2.3-8.2c-5.1-10-11-20.8-20.5-37.4
				c-6.2-10.8-8.4-12.9-18.4-13.9v-5.6h45.4v5.6c-11.3,1.5-10.8,3.7-8,9.3c5.9,11.4,13.2,25,19.7,37.1c5.3-9.8,13.7-26.3,18.2-36
				c3.3-7.1,2.3-9.1-9.9-10.5v-5.6h37.8L882.3,137.4L882.3,137.4z"/>
			<path class="st0" d="M1019.3,137.4c-10.4,0.9-13.6,3.8-14.1,10.3c-0.4,4.5-0.7,10.6-0.7,23.3v20.2c0,15-2.2,28.8-11.6,38.7
				c-7.6,7.9-19.1,11-30.6,11c-10.4,0-21-2.2-28.5-8.2c-9.6-7.3-14.3-17.8-14.3-36.5v-41.6c0-15-1.4-16.1-14.1-17.2v-5.6h48v5.6
				c-12.6,1-14,2.2-14,17.2v42.8c0,20.3,9.8,32.8,28.1,32.8c20.8,0,29-14.4,29-40V171c0-12.6-0.5-18.7-0.8-23.4
				c-0.6-7.5-4.9-9.5-16.6-10.2v-5.6h40.2L1019.3,137.4L1019.3,137.4z"/>
			<path class="st0" d="M1142.1,159.3c-1.7-6.7-4.7-12.7-6.4-15.2c-2.8-3.8-4.3-5-13.7-5h-12.6v78.1c0,13.4,1.5,14.7,16.5,15.8v5.6
				h-52.1V233c14.4-1.1,15.8-2.3,15.8-15.8v-78.1h-11.7c-9.1,0-11.8,1.3-14.8,5.6c-2.2,3.2-4.1,8.4-6.3,14.8h-5.8
				c1.1-11.3,2.2-23.2,2.6-31.5h4.5c2.5,3.8,4.4,4,9.2,4h65.4c4.5,0,6.4-0.9,9.1-4h4.5c0.1,7.2,0.8,20.7,1.6,31L1142.1,159.3z"/>
			<path class="st0" d="M1308,158.2c-3.1-10.6-7.7-22.1-22.9-22.1c-10.7,0-16.3,7.6-16.3,16.6c0,9.8,6.5,15.4,20.6,22.5
				c18.3,9.2,28.5,17.4,28.5,33.4c0,18.6-15.7,32.4-38.3,32.4c-10.3,0-19.3-2.8-26.7-5.2c-1.1-4.1-3.6-19.1-4.7-27.2l5.9-1.4
				c3.3,10.6,11.8,27.2,28.2,27.2c10.6,0,17.1-6.9,17.1-17.5s-6.2-16-20.2-23.6c-17.1-9.2-27.8-17.3-27.8-33.8c0-16.3,13-30,36.6-30
				c10.6,0,19.3,2.5,22.8,3c0.7,6,1.6,13.9,2.9,24.3L1308,158.2z"/>
			<path class="st0" d="M1446.3,159.3c-1.7-6.7-4.7-12.7-6.4-15.2c-2.8-3.8-4.3-5-13.7-5h-12.6v78.1c0,13.4,1.5,14.7,16.5,15.8v5.6
				H1378V233c14.4-1.1,15.8-2.3,15.8-15.8v-78.1h-11.7c-9.1,0-11.8,1.3-14.8,5.6c-2.2,3.2-4.1,8.4-6.3,14.8h-5.8
				c1.1-11.3,2.2-23.2,2.6-31.5h4.5c2.5,3.8,4.4,4,9.2,4h65.4c4.5,0,6.4-0.9,9.1-4h4.5c0.1,7.2,0.8,20.7,1.6,31L1446.3,159.3z"/>
			<path class="st0" d="M1577.8,211.3c-0.9,4.4-5.4,22.5-6.9,27.3h-83.2v-5.4c15-1.4,16.1-2.4,16.1-16.1v-63.4
				c0-14.2-1.9-15.1-13.5-16.1V132h52.2c16.6,0,22.6-0.2,24.7-0.3c0.2,3.4,0.9,16.4,1.6,26.1l-5.9,0.8c-1.5-5.6-3.9-11.2-6.3-14.3
				c-2.8-4-5.5-5.1-14.4-5.1h-12.4c-5.8,0-6.4,0.4-6.4,5.7v35h16.8c10.3,0,11.6-2.5,13.9-13.9h5.9v35.4h-5.9
				c-2.5-12-3.8-13.9-14.1-13.9h-16.7v29.8c0,11.4,1.5,14,11,14.1h12.9c9.5,0,11.6-1.3,15.3-5.6c3.8-4.3,7.1-10.6,9.6-15.9
				L1577.8,211.3z"/>
			<path class="st0" d="M1702,238.5v-5.6c12.8-1.3,13.5-2.4,13.5-18.1v-65c-12.4,28.8-28.4,65.5-38.1,88.7h-5
				c-8.9-22.6-22.9-58.2-35-87.3c-2.4,53.6-2.4,64.7-2.4,69.6c0.2,9,3.7,10.9,15.6,12.1v5.6h-40v-5.6c9.4-0.9,13.6-2.7,14.9-12.2
				c0.8-5.7,1.3-13.9,5.2-70c0.5-8.1-0.8-12-15-13.3v-5.6h33l33.3,76.1l34.3-76.1h32.5v5.6c-13.5,1.4-15.1,2.8-14.7,15.3l1.1,62
				c0.3,15.7,0.9,16.5,14.6,18.1v5.6H1702V238.5z"/>
			<path class="st0" d="M899.6,325.9c-2.3-8-5.8-16.6-17.2-16.6c-8,0-12.2,5.7-12.2,12.4c0,7.4,4.9,11.5,15.5,16.9
				c13.7,6.9,21.4,13,21.4,25.1c0,14-11.8,24.3-28.7,24.3c-7.7,0-14.5-2.1-20-3.9c-0.8-3-2.7-14.3-3.6-20.4l4.5-1.1
				c2.5,7.9,8.8,20.4,21.1,20.4c8,0,12.8-5.2,12.8-13.1c0-8-4.6-12-15.1-17.7c-12.8-6.9-20.8-13-20.8-25.3
				c0-12.2,9.7-22.5,27.4-22.5c7.9,0,14.5,1.8,17.1,2.3c0.5,4.5,1.2,10.4,2.2,18.2L899.6,325.9z"/>
			<path class="st0" d="M1012.3,365.5c-1.7,6.1-4.9,15.2-6.8,19.4c-3.3,0.7-13.2,3.1-22.6,3.1c-31.8,0-45.9-20.7-45.9-40.9
				c0-25.3,19.3-42.6,48.1-42.6c10.7,0,19.8,2.5,23.3,2.9c0.6,5.7,1.4,14.2,2.3,19.9l-4.5,0.9c-2.5-9.1-6-13.8-12.4-16.4
				c-3-1.3-7.7-1.9-11.5-1.9c-18.7,0-28.3,14.9-28.3,34.6c0,22.9,11.8,38.2,29.8,38.2c11.1,0,17.7-5.5,24.3-18.6L1012.3,365.5z"/>
			<path class="st0" d="M1129.2,310.3c-9.8,1-10.7,1.7-10.7,11.9v47.9c0,10.3,1,10.9,10.7,11.8v4.2H1093v-4.2
				c9.9-1.2,10.7-1.6,10.7-11.8v-23.6h-36.3v23.6c0,10.2,1.1,10.7,10.6,11.8v4.2h-36.1v-4.2c9.4-1,10.7-1.6,10.7-11.8v-47.9
				c0-10.3-1.1-11.1-10.7-11.9v-4.2h36.1v4.2c-9.5,0.9-10.6,1.7-10.6,11.9v18.3h36.3v-18.3c0-10.2-1.3-11-10.7-11.9v-4.2h36.2V310.3
				z"/>
			<path class="st0" d="M1201.6,304.4c22.2,0,40.8,16.4,40.8,40.8c0,26.3-18.4,42.8-41.5,42.8c-24.3,0-41.9-18-41.9-41.5
				C1159.1,325.1,1174.3,304.4,1201.6,304.4z M1199.6,309.5c-13,0-23.4,12-23.4,34.2c0,21.5,9.7,39,26.7,39
				c12.8,0,22.6-11.2,22.6-34.2C1225.5,323.8,1214.5,309.5,1199.6,309.5z"/>
			<path class="st0" d="M1315.3,304.4c22.2,0,40.8,16.4,40.8,40.8c0,26.3-18.4,42.8-41.5,42.8c-24.3,0-41.9-18-41.9-41.5
				C1272.8,325.1,1288,304.4,1315.3,304.4z M1313.2,309.5c-13,0-23.4,12-23.4,34.2c0,21.5,9.7,39,26.7,39
				c12.8,0,22.6-11.2,22.6-34.2C1339.2,323.8,1328.2,309.5,1313.2,309.5z"/>
			<path class="st0" d="M1450.2,364.9c-0.9,4.8-4.4,17.7-5.6,21.2h-59.7v-4.2c11-0.9,11.9-1.6,11.9-12v-47.5
				c0-10.4-1.2-11.2-10.7-12.1v-4.2h36.5v4.2c-9.7,0.9-11,1.6-11,12.1v48.5c0,7,0.5,9.6,7.4,9.7c0.2,0.1,7,0.1,7.6,0.1
				c6.8,0,8.6-1.2,11.5-4.5c2.6-2.7,5.6-7.9,7.7-12.8L1450.2,364.9z"/>
		</g>
	</g>
</g>
<g>
	<g>
		<circle class="st1" cx="265.6" cy="148.1" r="30"/>
		<g>
			<g>
				<line class="st2" x1="400.8" y1="147.2" x2="430.6" y2="147.2"/>
				<line class="st2" x1="292.8" y1="147.2" x2="390" y2="147.2"/>
				<line class="st2" x1="124.7" y1="147.2" x2="101.7" y2="147.2"/>
				<line class="st2" x1="242.1" y1="147.2" x2="135.6" y2="147.2"/>
				<line class="st2" x1="321.6" y1="106.2" x2="287.2" y2="130.3"/>
				<line class="st2" x1="332.6" y1="98.5" x2="321.6" y2="106.2"/>
				<line class="st2" x1="346.5" y1="88.8" x2="332.6" y2="98.5"/>
				<line class="st2" x1="323.7" y1="117.6" x2="382.5" y2="89.1"/>
				<line class="st2" x1="306.5" y1="126.2" x2="319.5" y2="119.9"/>
				<line class="st2" x1="291.1" y1="133.7" x2="306.5" y2="126.2"/>
				<line class="st2" x1="373.2" y1="113.1" x2="428.4" y2="96.5"/>
				<line class="st2" x1="350.4" y1="120" x2="359.7" y2="117.2"/>
				<line class="st2" x1="291.1" y1="137.9" x2="341.2" y2="122.8"/>
				<line class="st2" x1="365" y1="130.5" x2="430.6" y2="119.6"/>
				<line class="st2" x1="340.8" y1="134.5" x2="355.8" y2="132"/>
				<line class="st2" x1="289" y1="143.1" x2="325.3" y2="137.1"/>
				<line class="st2" x1="271.7" y1="119.6" x2="287.2" y2="65.5"/>
				<line class="st2" x1="303.9" y1="81.8" x2="308" y2="74.9"/>
				<line class="st2" x1="298.7" y1="90.4" x2="303.9" y2="81.8"/>
				<line class="st2" x1="279.5" y1="122.8" x2="298.7" y2="90.4"/>
				<line class="st2" x1="318.1" y1="90.8" x2="325.3" y2="82.2"/>
				<line class="st2" x1="286.3" y1="125.4" x2="314.6" y2="94.5"/>
				<path class="st2" d="M92.3,147.6"/>
				<path class="st2" d="M118.5,147.6"/>
				<path class="st2" d="M139.3,147.6"/>
				<path class="st2" d="M226.9,147.6"/>
				<line class="st2" x1="207.7" y1="106.6" x2="245.8" y2="133.3"/>
				<line class="st2" x1="196.7" y1="98.9" x2="207.7" y2="106.6"/>
				<line class="st2" x1="182.8" y1="89.1" x2="196.7" y2="98.9"/>
				<line class="st2" x1="205.5" y1="118" x2="146" y2="89.1"/>
				<line class="st2" x1="222.8" y1="126.6" x2="209.7" y2="120.3"/>
				<line class="st2" x1="242.1" y1="135.9" x2="222.8" y2="126.6"/>
				<line class="st2" x1="156" y1="113.5" x2="101.8" y2="97.1"/>
				<line class="st2" x1="178.9" y1="120.4" x2="169.6" y2="117.6"/>
				<line class="st2" x1="243" y1="139.8" x2="188" y2="123.2"/>
				<line class="st2" x1="164.2" y1="130.9" x2="98.7" y2="120"/>
				<line class="st2" x1="188.5" y1="134.9" x2="173.4" y2="132.4"/>
				<line class="st2" x1="243" y1="143.9" x2="203.9" y2="137.5"/>
				<line class="st2" x1="260" y1="119.6" x2="243" y2="66"/>
				<line class="st2" x1="230.5" y1="90.8" x2="222.2" y2="76.9"/>
				<line class="st2" x1="230.5" y1="90.8" x2="228" y2="86.5"/>
				<line class="st2" x1="249.9" y1="123.4" x2="230.5" y2="90.8"/>
				<line class="st2" x1="213.4" y1="92.6" x2="204.8" y2="83.1"/>
				<line class="st2" x1="247.9" y1="130.3" x2="215.5" y2="94.8"/>
			</g>
		</g>
		<g>
			<path class="st3" d="M457.9,63.9c0-0.4,0-0.6,0-0.6c-53,5.4-135.3,8.5-191.9-48.1C210,71.1,118.6,68,74.1,63.3
				c-0.1,3.4-1.4,38.6-0.7,51.1c-0.2,45.2,7.3,111.3,28.9,167.1c33.3,84,163.7,154.6,163.7,154.6s131.1-71.4,163.7-154.6
				c21.5-55.1,29.5-122.7,27.8-167.5c0.7-12.6,0.4-12.2,0.6-21.6C458.2,76.8,457.9,66.4,457.9,63.9z M443.9,102.2
				c-0.1,8.7,0.1,8.4-0.5,20c1.6,41.5-5.8,104.1-25.7,155.2C387.5,354.5,266,420.6,266,420.6s-120.9-65.3-151.7-143.2
				c-20-51.7-27-113-26.8-154.9c-0.6-11.6,0.6-44.2,0.7-47.4c41.2,4.4,126,7.3,177.8-44.5C318.4,83,394.7,80.2,443.8,75.1
				c0,0,0,0.2,0,0.5C443.8,78.1,444.1,87.8,443.9,102.2z"/>
		</g>
		<g>
			<path class="st3" d="M59.5,279.5c0,0,22.6-11.9,19.5-36C79,243.5,53.1,247.9,59.5,279.5"/>
			<path class="st3" d="M52.5,244.8c0,0,22-13.2,17.7-37.2C70.2,207.5,44.4,213.3,52.5,244.8"/>
			<path class="st3" d="M44.5,210.9c0.7,16.7,2.6,33.4,6,49.8c3.3,16.4,8,32.5,14.1,48c6.1,15.5,13.6,30.5,22.5,44.6
				s19,27.4,30.2,39.7c22.4,24.6,49.1,45.2,77.9,61.8c28.9,16.6,59.9,29.2,91.9,38.5l0,0c2.1,0.6,3.2,2.8,2.6,4.8
				c-0.6,2.1-2.8,3.2-4.8,2.6c0,0,0,0-0.1,0c-32.3-10-63.7-23.3-92.8-40.6s-55.9-38.6-78.3-64c-11.2-12.7-21.3-26.3-30.1-40.8
				s-16.2-29.7-22.1-45.5c-6-15.8-10.5-32.1-13.6-48.7c-3.1-16.6-4.8-33.4-5.3-50.2c0-0.5,0.4-0.9,0.9-0.9
				C44,210,44.5,210.4,44.5,210.9"/>
			<path class="st3" d="M212.2,461.2c0,0,19.2-28.8,0-55.6C212.2,405.6,184.1,427.6,212.2,461.2"/>
			<path class="st3" d="M199.6,469.5c0,0-28.7,19.4-55.6,0.4C144.1,469.9,165.8,441.6,199.6,469.5"/>
			<path class="st3" d="M166,447.6c0,0-28.7,19.4-55.6,0.4C110.5,447.9,132.2,419.7,166,447.6"/>
			<path class="st3" d="M133.9,424.6c0,0-29.4,12.6-50.5-9.4C83.4,415.2,108.2,393.4,133.9,424.6"/>
			<path class="st3" d="M105.8,396.8c0,0-28.4,7.4-44.5-15.4C61.2,381.3,86.6,364.9,105.8,396.8"/>
			<path class="st3" d="M80.1,361.2c0,0-28.2,4.4-41.6-19.3C38.5,342,64.7,328.5,80.1,361.2"/>
			<path class="st3" d="M62.6,323.6c0,0-26.3,3.6-38.3-18.6C24.3,305,48.8,293,62.6,323.6"/>
			<path class="st3" d="M48,285.5c0,0-25.4,0.5-34.3-22C13.7,263.5,38.4,254.9,48,285.5"/>
			<path class="st3" d="M42.1,248.5c0,0-26-5.4-29.9-30.3C12.2,218.1,39.3,215,42.1,248.5"/>
			<path class="st3" d="M43.7,213.8c0,0,13.1-18.7,0.9-36.6C44.6,177.2,25.8,191.2,43.7,213.8"/>
			<path class="st3" d="M180.3,442.3c0,0,19.2-28.8,0-55.6C180.3,386.8,152.2,408.7,180.3,442.3"/>
			<path class="st3" d="M147.9,418.4c0,0,19.2-24.7,3.7-50C151.6,368.4,124.8,386.3,147.9,418.4"/>
			<path class="st3" d="M116.7,386.8c0,0,18.3-24.2,2.9-48.7C119.6,338.2,93.8,355.9,116.7,386.8"/>
			<path class="st3" d="M92,358.1c0,0,18.2-21.3,5.4-44.6C97.4,313.5,72.6,328.4,92,358.1"/>
			<path class="st3" d="M74.8,317.8c0,0,20.3-17.9,11.1-41.9C85.9,275.9,60.3,286.8,74.8,317.8"/>
			<path class="st3" d="M471.7,279.5c0,0-22.6-11.9-19.5-36C452.2,243.5,478.2,247.9,471.7,279.5"/>
			<path class="st3" d="M478.7,244.8c0,0-22-13.2-17.7-37.2C461.1,207.5,486.9,213.3,478.7,244.8"/>
			<path class="st3" d="M488.6,210.9c-0.5,16.8-2.2,33.6-5.3,50.2s-7.6,32.9-13.6,48.7s-13.3,31.1-22.1,45.5
				c-8.8,14.5-18.9,28.1-30.1,40.8c-22.4,25.4-49.2,46.7-78.3,64c-29.1,17.3-60.5,30.6-92.8,40.6c-2,0.6-4.2-0.5-4.9-2.6
				c-0.6-2,0.5-4.2,2.6-4.9l0,0l0,0c31.9-9.3,63-22,91.9-38.5c28.8-16.6,55.5-37.1,77.9-61.8c11.2-12.3,21.4-25.6,30.2-39.7
				c8.8-14.1,16.4-29.1,22.5-44.6s10.8-31.6,14.1-48s5.2-33,6-49.8c0-0.5,0.5-0.9,1-0.9C488.2,210,488.6,210.4,488.6,210.9"/>
			<path class="st3" d="M319,461.2c0,0-19.2-28.8,0-55.6C319,405.6,347.2,427.6,319,461.2"/>
			<path class="st3" d="M331.6,469.5c0,0,28.7,19.4,55.6,0.4C387.2,469.9,365.4,441.6,331.6,469.5"/>
			<path class="st3" d="M365.2,447.6c0,0,28.7,19.4,55.6,0.4C420.8,447.9,399,419.7,365.2,447.6"/>
			<path class="st3" d="M397.3,424.6c0,0,29.4,12.6,50.5-9.4C447.8,415.2,423.1,393.4,397.3,424.6"/>
			<path class="st3" d="M425.5,396.8c0,0,28.4,7.4,44.5-15.4C470,381.3,444.6,364.9,425.5,396.8"/>
			<path class="st3" d="M451.2,361.2c0,0,28.2,4.4,41.6-19.3C492.8,342,466.6,328.5,451.2,361.2"/>
			<path class="st3" d="M468.6,323.6c0,0,26.3,3.6,38.3-18.6C507,305,482.4,293,468.6,323.6"/>
			<path class="st3" d="M483.3,285.5c0,0,25.4,0.5,34.3-22C517.5,263.5,492.9,254.9,483.3,285.5"/>
			<path class="st3" d="M489.2,248.5c0,0,26-5.4,29.9-30.3C519.1,218.1,491.9,215,489.2,248.5"/>
			<path class="st3" d="M487.5,213.8c0,0-13.1-18.7-0.9-36.6C486.6,177.2,505.5,191.2,487.5,213.8"/>
			<path class="st3" d="M350.9,442.3c0,0-19.2-28.8,0-55.6C350.9,386.8,379.1,408.7,350.9,442.3"/>
			<path class="st3" d="M383.3,418.4c0,0-19.2-24.7-3.7-50C379.7,368.4,406.4,386.3,383.3,418.4"/>
			<path class="st3" d="M414.6,386.8c0,0-18.3-24.2-2.9-48.7C411.6,338.2,437.4,355.9,414.6,386.8"/>
			<path class="st3" d="M439.3,358.1c0,0-18.2-21.3-5.4-44.6C433.9,313.5,458.6,328.4,439.3,358.1"/>
			<path class="st3" d="M456.5,317.8c0,0-20.3-17.9-11.1-41.9C445.4,275.9,471,286.8,456.5,317.8"/>
		</g>
		<path class="st3" d="M400.5,281.9c-33.1,66.8-135.3,122.5-135.3,122.5s-100-54.1-134.4-120.8c4.2-1.4,8-3.3,11.8-5.2
			c7.7-3.8,15-7.3,24.4-7.3s16.7,3.6,24.4,7.3c7.7,3.8,15.7,7.7,26,7.7c10.3,0,18.3-3.9,26-7.7s15-7.3,24.4-7.3s16.7,3.6,24.4,7.3
			c7.7,3.8,15.7,7.7,26,7.7s18.3-3.9,26-7.7s15-7.3,24.4-7.3s16.7,3.6,24.4,7.3C395.6,279.7,398,280.8,400.5,281.9"/>
		<g>
			<path class="st3" d="M123.1,258.3v-62.2c0-16.6,13.5-30.1,30.1-30.1s30.1,13.5,30.1,30.1v53.7c3.4,1.3,6.7,2.9,9.9,4.5
				c1.7,0.8,3.3,1.6,5,2.4v-60.5c0-16.6,13.5-30.1,30.1-30.1l0,0c16.6,0,30.1,13.5,30.1,30.1v51.6c3-0.7,6.2-1.2,9.6-1.2
				c1.8,0,3.6,0.1,5.3,0.4v-50.8c0-16.6,13.5-30.1,30.1-30.1s30.1,13.5,30.1,30.1v62.2h0.5c3-1.2,5.9-2.6,8.9-4.1
				c1.8-0.9,3.7-1.8,5.5-2.6v-55.5c0-16.6,13.5-30.1,30.1-30.1s30.1,13.5,30.1,30.1v62.2h2.5c10.7-33.8,16.2-70.9,17.4-101.5h-326
				c1.7,30.6,7.1,67.4,17.9,101.5h2.7V258.3z"/>
		</g>
		<g class="st4">
			<path class="st0" d="M223.7,346.5h-1.5c-0.3-1.9-0.8-3.2-1.5-3.9c-0.7-0.7-1.6-1-2.7-1c-1,0-1.8,0.3-2.4,0.8
				c-0.6,0.5-0.9,1.2-0.9,2.1c0,0.7,0.3,1.4,0.8,2c0.5,0.6,1.8,1.4,3.8,2.3c2,0.9,3.4,1.9,4.2,2.9c0.8,1,1.2,2.3,1.2,3.8
				c0,1.8-0.7,3.4-2,4.8c-1.4,1.4-3.6,2-6.6,2c-1.1,0-2.1-0.1-3.1-0.2c-0.7-0.1-1.6-0.3-2.7-0.7c0.2-1.8,0.3-3.5,0.3-5.2v-1h1.5
				c0.4,2,0.9,3.3,1.4,4c0.8,0.9,1.8,1.4,3.1,1.4c1.1,0,1.9-0.3,2.6-0.9c0.6-0.6,1-1.4,1-2.4c0-0.6-0.1-1.2-0.4-1.7
				c-0.3-0.5-0.7-0.9-1.2-1.3s-1.5-0.9-2.9-1.6c-2.1-1-3.6-2-4.3-2.9c-0.7-0.9-1.1-2-1.1-3.3c0-1.8,0.7-3.4,2-4.6
				c1.4-1.2,3.3-1.8,5.9-1.8c1.7,0,3.6,0.3,5.6,1c-0.1,1.6-0.1,2.7-0.1,3.3C223.6,344.9,223.7,345.7,223.7,346.5z"/>
			<path class="st0" d="M253.9,346.7h-1.4c-0.7-2.1-1.1-3.3-1.3-3.6c-0.2-0.3-0.4-0.5-0.7-0.6s-1.2-0.2-2.7-0.2h-1.5v14.1
				c0,1.7,0.1,2.8,0.2,3.2c0.1,0.2,0.2,0.3,0.4,0.5c0.2,0.1,1.1,0.3,2.7,0.6v1.1c-3.1-0.1-5-0.2-5.9-0.2c-1.2,0-3,0.1-5.4,0.2v-1.1
				c1.6-0.3,2.6-0.5,2.9-0.7c0.2-0.1,0.3-0.3,0.4-0.5c0.1-0.3,0.1-1.3,0.1-3.2v-13.9h-2.5c-0.9,0-1.4,0.1-1.7,0.2
				c-0.3,0.1-0.5,0.4-0.7,0.8c-0.3,0.6-0.7,1.7-1.1,3.4h-1.4c0.2-1.5,0.3-2.5,0.3-3.1s0.1-1.7,0.1-3.3c4,0.1,7.9,0.2,11.7,0.1
				c3.2,0,5.5-0.1,6.9-0.1C253.5,342.3,253.6,344.4,253.9,346.7z"/>
			<path class="st0" d="M262.8,341.5v-1.1c2.4,0.1,5.1,0.2,7.9,0.2c3.3,0,6.7-0.1,10.2-0.2c0,2.1,0.2,3.9,0.4,5.5H280
				c-0.1-0.3-0.2-0.6-0.3-0.7c-0.5-1.4-0.9-2.3-1.2-2.5c-0.3-0.2-0.9-0.3-1.9-0.3h-5.8c-0.1,1.7-0.1,4.2-0.2,7.4l2.6,0
				c1.4,0,2.2-0.1,2.5-0.4c0.3-0.3,0.7-1.2,1-2.7h1.3c-0.1,1.5-0.2,2.8-0.2,3.9c0,1.1,0.1,2.4,0.2,4h-1.3c-0.3-1.6-0.6-2.5-0.8-2.8
				c-0.3-0.2-1.1-0.4-2.4-0.4h-3v8.4h6c0.7,0,1.1,0,1.3-0.1c0.4-0.1,0.7-0.4,1-0.7c0.6-0.7,1.3-1.8,2.2-3.2h1.3
				c-0.6,1.7-1.2,3.6-1.9,6c-3.4-0.1-7-0.2-10.7-0.2c-1.7,0-4.1,0.1-7.1,0.2v-1.1c1.7-0.3,2.6-0.5,2.9-0.7c0.3-0.2,0.5-0.8,0.5-1.7
				v-0.5l0-6v-4.8l0-2.2c0-1.1-0.1-1.7-0.2-2c-0.1-0.3-0.3-0.5-0.6-0.6S264.2,341.7,262.8,341.5z"/>
			<path class="st0" d="M291.3,341.5v-1.1c1.8,0.1,3.3,0.2,4.4,0.2c1.2,0,2.6-0.1,4.1-0.2c0.4,1.1,1,2.5,1.7,4.1
				c1.9,4.2,3.5,7.8,5,10.7l3.8-8.2c0.6-1.3,1.1-2.4,1.4-3.3c0.4-0.9,0.8-2,1.3-3.3c1.9,0.1,3.3,0.2,4.2,0.2c0.7,0,2.1-0.1,4-0.2
				v1.1c-0.3,0.1-0.5,0.1-0.7,0.1c-1.3,0.2-2,0.4-2.2,0.6c-0.2,0.2-0.3,0.6-0.4,1.1s-0.1,2.8-0.1,6.8c0,5.1,0,7.7,0,7.9
				c0,0.8,0.1,1.3,0.2,1.5s0.2,0.3,0.3,0.4c0.4,0.2,1.1,0.4,2.2,0.6l0.7,0.1v1.1c-2.4-0.1-4.3-0.2-5.6-0.2c-1.3,0-3.3,0.1-5.8,0.2
				v-1.1c1.6-0.3,2.5-0.5,2.7-0.6c0.2-0.1,0.3-0.2,0.4-0.3c0.1-0.1,0.2-0.3,0.2-0.6c0-0.2,0.1-1.3,0.1-3.1c0-3.9,0-7,0-9.3
				c0-0.2,0-0.9,0-2c-0.6,1.1-2.6,5.6-6.1,13.4l-1.5,3.4h-1.2c-1.1-2.6-3.7-8.2-7.7-16.8c0,1.3,0,2.4,0,3.3c0,5,0,8.3,0.1,9.9
				c0.1,0.9,0.1,1.4,0.2,1.6c0.1,0.2,0.2,0.3,0.5,0.5c0.2,0.1,0.9,0.3,2,0.5c0.1,0,0.3,0.1,0.6,0.1v1.1c-1.4-0.1-2.8-0.2-4.1-0.2
				c-1.3,0-2.9,0.1-4.6,0.2v-1.1c1.3-0.2,2.1-0.4,2.4-0.5s0.5-0.3,0.6-0.5c0.1-0.2,0.2-0.7,0.2-1.3l0.2-9.6c0-1.7,0.1-2.9,0.1-3.7
				c0-1.3-0.1-2.1-0.2-2.5c-0.1-0.2-0.2-0.4-0.5-0.5c-0.2-0.1-1-0.3-2.2-0.4C291.8,341.6,291.6,341.6,291.3,341.5z"/>
		</g>
		<g>
			<g>
				<g>
					<path class="st0" d="M197.5,329.5V328c2.9-0.4,3-0.9,2.4-2.8c-0.5-1.5-1.3-3.6-2.1-5.8h-9.2c-0.6,1.6-1.2,3.4-1.8,5
						c-1,2.9,0,3.3,3.6,3.6v1.5h-11V328c2.9-0.4,3.6-0.7,5.2-4.7l9.5-23.7l1.9-0.4c2.9,7.9,6,16.2,8.9,23.9c1.6,4.1,2,4.5,5.1,4.8
						v1.5h-12.5V329.5z M193.3,306.8c-1.4,3.5-2.7,6.9-4,10.4h7.7L193.3,306.8z"/>
					<path class="st0" d="M234.6,307.2c-0.9-2.9-2.1-6.1-6.4-6.1c-3,0-4.5,2.1-4.5,4.6c0,2.7,1.8,4.3,5.7,6.3
						c5.1,2.6,7.9,4.8,7.9,9.3c0,5.2-4.4,9-10.6,9c-2.9,0-5.4-0.8-7.4-1.4c-0.3-1.1-1-5.3-1.3-7.5l1.6-0.4c0.9,2.9,3.3,7.5,7.8,7.5
						c3,0,4.8-1.9,4.8-4.9c0-2.9-1.7-4.4-5.6-6.5c-4.8-2.6-7.7-4.8-7.7-9.4c0-4.5,3.6-8.3,10.2-8.3c2.9,0,5.4,0.7,6.3,0.8
						c0.2,1.7,0.5,3.8,0.8,6.8L234.6,307.2z"/>
					<path class="st0" d="M274,301.4c-3,0.3-3.9,0.9-5.6,3.8c-1.8,3-3.3,5.7-5.5,10.1c-0.4,0.8-0.6,1.4-0.6,2.5v5.6
						c0,3.9,0.4,4.1,4.3,4.5v1.5h-13.9v-1.5c3.8-0.5,4.1-0.6,4.1-4.5v-5.5c0-1-0.2-1.4-0.6-2.3c-1.4-2.8-3.1-5.8-5.7-10.4
						c-1.7-3-2.3-3.6-5.1-3.9v-1.5H258v1.5c-3.1,0.4-3,1-2.2,2.6c1.6,3.2,3.7,7,5.5,10.3c1.5-2.7,3.8-7.3,5.1-10
						c0.9-2,0.6-2.5-2.7-2.9v-1.5h10.5v1.6H274z"/>
					<path class="st0" d="M312.1,301.4c-2.9,0.2-3.8,1.1-3.9,2.9c-0.1,1.3-0.2,2.9-0.2,6.5v5.6c0,4.2-0.6,8-3.2,10.7
						c-2.1,2.2-5.3,3.1-8.5,3.1c-2.9,0-5.8-0.6-7.9-2.3c-2.7-2-4-4.9-4-10.1v-11.6c0-4.2-0.4-4.5-3.9-4.8v-1.5h13.3v1.5
						c-3.5,0.3-3.9,0.6-3.9,4.8V318c0,5.6,2.7,9.1,7.8,9.1c5.8,0,8-4,8-11.1v-5.3c0-3.5-0.1-5.2-0.2-6.5c-0.2-2.1-1.4-2.6-4.6-2.8
						v-1.5h11.2V301.4z"/>
					<path class="st0" d="M346.2,307.5c-0.5-1.9-1.3-3.5-1.8-4.2c-0.8-1.1-1.2-1.4-3.8-1.4h-3.5v21.7c0,3.7,0.4,4.1,4.6,4.4v1.5
						h-14.5V328c4-0.3,4.4-0.6,4.4-4.4v-21.7h-3.3c-2.5,0-3.3,0.4-4.1,1.6c-0.6,0.9-1.1,2.3-1.7,4.1h-1.6c0.3-3.1,0.6-6.4,0.7-8.8
						h1.3c0.7,1.1,1.2,1.1,2.5,1.1h18.2c1.2,0,1.8-0.2,2.5-1.1h1.2c0,2,0.2,5.7,0.4,8.6L346.2,307.5z"/>
				</g>
			</g>
		</g>
		<g>
			<path class="st3" d="M173.6,211.4c0.4-0.4,0.8-0.9,1.1-1.4c1.7-2.2,2.9-4.3,3.9-6.5c0.9-2.2,1.5-4.1,1.5-6c0-1.8-0.6-3.3-1.6-4.7
				c-0.9-1.3-2.2-2.2-3.6-2.7c-1.5-0.5-3.2-0.8-5.1-0.8c-2.1,0-4.3,0.3-6.6,0.9c-0.1-0.4-0.3-0.8-0.4-1.1c-1.4-2.9-2.8-5.3-4.7-7
				c-0.8-0.9-1.9-1.5-2.8-2c-1.1-0.5-2.1-0.8-3.2-0.8c-1.1,0-2.2,0.3-3.2,0.8c-1.8,0.8-3.3,2.3-4.8,4.1c-1.1,1.7-2.2,3.5-3,5.7
				c-2.4-0.6-4.6-0.9-6.6-0.9c-1.9,0-3.5,0.3-5,0.8c-1.5,0.6-2.7,1.5-3.6,2.6c-1.1,1.3-1.5,3-1.5,4.8c0,1.9,0.4,3.8,1.4,6
				c1.1,2.5,2.7,5.1,4.8,7.8c-0.3,0.4-0.7,0.9-1,1.3c-1.8,2.3-3,4.5-4,6.6c-0.9,2.1-1.4,4.1-1.4,6c0,1.7,0.4,3.4,1.4,4.7
				c1,1.3,2.3,2.1,3.8,2.6c1.5,0.6,3.1,0.8,5,0.8c2.1,0,4.2-0.2,6.6-0.8c0.2,0.3,0.4,0.7,0.5,1.1c1.3,2.8,2.8,5.2,4.6,7
				c0.9,0.8,1.9,1.5,2.8,2c1.1,0.5,2.2,0.8,3.2,0.8c1.2,0,2.2-0.3,3.2-0.8c1.9-0.8,3.4-2.4,4.8-4.2c1.2-1.6,2.2-3.4,3-5.7
				c2.4,0.6,4.6,0.9,6.7,0.9c1.9,0,3.5-0.2,5-0.7c1.5-0.7,2.6-1.5,3.6-2.7c1-1.3,1.5-2.9,1.5-4.8s-0.5-3.8-1.4-6
				C177.4,216.7,175.8,214.1,173.6,211.4 M169.8,191.7c1.7,0,3.1,0.2,4.3,0.7c1.2,0.4,2,1,2.6,1.9c0.7,0.9,1,2,1,3.3
				c0,1.5-0.3,3.1-1.2,5c-0.9,2.3-2.5,4.6-4.4,7l-0.2-0.2c-1.6-1.8-3.3-3.5-5.4-5.3c-0.4-4.3-1.3-8.2-2.5-11.7
				C166.1,191.9,168.1,191.7,169.8,191.7 M166.7,207.4c1.4,1.4,2.7,2.6,3.8,4l-0.4,0.4c-1.1,1.2-2.2,2.3-3.4,3.4
				c0.1-1.3,0.1-2.6,0.1-3.9C166.8,210,166.8,208.8,166.7,207.4 M164.5,211.3c0,2.1,0,4.1-0.2,6.2c-1.6,1.2-3.1,2.4-4.9,3.6
				c-2.4,1.7-5,3.2-7.4,4.5c-2.5-1.3-5-2.8-7.4-4.5c-1.8-1.3-3.3-2.5-4.8-3.8c-0.2-1.9-0.3-3.9-0.3-6c0-2.2,0.1-4.2,0.3-6.1
				c1.6-1.4,3.1-2.5,4.8-3.8c2.6-1.7,5-3.1,7.5-4.4c2.5,1.3,4.9,2.8,7.4,4.6c1.7,1.1,3.3,2.4,4.8,3.6
				C164.5,207.2,164.5,209.3,164.5,211.3 M162.8,196.3c0.4,1.8,0.8,3.6,1,5.6c-1-0.8-1.9-1.6-2.9-2.3c-2.1-1.5-4.1-2.7-6.2-3.9
				c1.3-0.6,2.5-1.1,3.6-1.5c1.2-0.5,2.4-0.9,3.4-1.3C162,194.1,162.4,195.2,162.8,196.3 M143.5,190.2c1.2-2.7,2.5-4.8,4-6.3
				c0.7-0.7,1.6-1.2,2.3-1.6c0.8-0.4,1.6-0.5,2.3-0.5c0.8,0,1.6,0.1,2.3,0.5c1.4,0.6,2.6,1.8,3.8,3.4c1.1,1.5,2,3.1,2.8,5.1
				c-1.2,0.4-2.4,0.7-3.5,1.2c-1.8,0.7-3.5,1.4-5.2,2.4c-2-1-3.7-1.8-5.5-2.4c-1.2-0.5-2.4-0.9-3.4-1.3
				C143.3,190.5,143.4,190.4,143.5,190.2 M142.4,192.9c1.1,0.3,2.3,0.7,3.5,1.2s2.4,1.1,3.6,1.7c-2.1,1.1-4.1,2.5-6.2,3.8
				c-1.1,0.8-2.2,1.6-3.2,2.4C140.7,198.6,141.5,195.6,142.4,192.9 M127.7,202.5c-0.8-2-1.2-3.6-1.2-5.1c0-1.4,0.3-2.4,1-3.4
				c0.7-0.8,1.6-1.4,2.6-1.8c1.2-0.5,2.6-0.7,4.2-0.7c1.7,0,3.6,0.2,5.8,0.8c-0.4,1.1-0.8,2.3-1.1,3.5c-0.6,2.5-1.1,5.3-1.5,8.1
				c-2.1,1.8-3.9,3.6-5.6,5.5c-0.2-0.3-0.4-0.7-0.7-1C129.8,206.4,128.6,204.4,127.7,202.5 M137.3,207.4v3.9v3.8
				c-1.3-1.3-2.5-2.6-3.8-3.9l0.4-0.4C135,209.7,136.2,208.5,137.3,207.4 M134.3,231c-1.6,0-3.1-0.3-4.2-0.7
				c-1.2-0.4-2.1-1.1-2.6-1.9c-0.7-0.9-1-2-1-3.3c0-1.5,0.4-3.2,1.3-5.1c0.9-2.2,2.4-4.5,4.3-6.9l0.2,0.1c1.6,1.8,3.4,3.6,5.4,5.4
				c0.5,4.2,1.3,8.1,2.5,11.6C138,230.7,136,231,134.3,231 M141.3,226.2c-0.5-1.7-0.8-3.6-1.2-5.5c1.1,0.7,2.1,1.5,3.1,2.3
				c2.1,1.4,4.1,2.7,6.2,3.9c-1.3,0.5-2.5,1-3.6,1.6c-1.2,0.4-2.4,0.8-3.5,1.2C141.9,228.6,141.6,227.4,141.3,226.2 M160.7,232.5
				c-1.3,2.6-2.6,4.8-4,6.2c-0.9,0.7-1.6,1.2-2.4,1.6c-0.7,0.4-1.5,0.6-2.3,0.6c-0.7,0-1.5-0.2-2.3-0.6c-1.3-0.5-2.6-1.8-3.8-3.4
				c-1-1.4-2-3-2.7-5c1.1-0.4,2.4-0.8,3.5-1.2c1.7-0.7,3.4-1.5,5.3-2.4c1.8,0.9,3.5,1.7,5.3,2.4c1.3,0.6,2.4,0.9,3.5,1.3
				C160.8,232.1,160.8,232.4,160.7,232.5 M161.7,229.8c-1.2-0.4-2.4-0.8-3.5-1.2c-1.2-0.5-2.5-1.1-3.6-1.7c2.1-1.2,4.1-2.4,6.2-3.8
				c1-0.8,2.1-1.6,3-2.4C163.3,224,162.6,227.1,161.7,229.8 M176.5,228.7c-0.6,0.7-1.5,1.3-2.6,1.9c-1.1,0.3-2.6,0.6-4.1,0.6
				c-1.7,0-3.7-0.3-5.8-0.8c0.3-1.1,0.7-2.3,1-3.4c0.7-2.5,1.2-5.4,1.5-8.3c2.1-1.8,3.9-3.5,5.6-5.4c0.2,0.4,0.5,0.7,0.7,1
				c1.7,2.1,2.8,4,3.6,6c0.8,1.9,1.2,3.6,1.2,5C177.5,226.5,177.2,227.7,176.5,228.7"/>
			<path class="st3" d="M152,205.6c-3.1,0-5.8,2.5-5.8,5.8c0,3.1,2.6,5.9,5.8,5.9s5.8-2.7,5.8-5.9
				C157.8,208.1,155.3,205.6,152,205.6"/>
			<path class="st3" d="M325,234.7c0.7,0.4,1.5,0.1,1.8-0.5l3-5.3c0.2-0.3,0.2-0.7,0.1-1s-0.3-0.6-0.6-0.8l-2.1-1.2
				c0.3-1.2,0.5-2.5,0.5-3.8l2.3-0.6c0.7-0.2,1.1-0.9,0.9-1.7l-1.6-5.9c-0.1-0.3-0.3-0.6-0.6-0.8c-0.3-0.2-0.7-0.2-1-0.1l-2.3,0.6
				c-0.7-1.1-1.4-2.1-2.3-3l1.2-2.1c0.4-0.7,0.1-1.5-0.5-1.8l-5.3-3c-0.3-0.2-0.7-0.2-1-0.1s-0.6,0.3-0.8,0.6l-1.2,2.1
				c-1.2-0.3-2.5-0.5-3.8-0.5l-0.6-2.3c-0.1-0.3-0.3-0.6-0.6-0.8c-0.3-0.2-0.7-0.2-1-0.1l-5.9,1.6c-0.3,0.1-0.6,0.3-0.8,0.6
				c-0.2,0.3-0.2,0.7-0.1,1l0.6,2.3c-1.1,0.7-2.1,1.4-3,2.3l-2.1-1.2c-0.3-0.2-0.7-0.2-1-0.1s-0.6,0.3-0.8,0.6l-3,5.3
				c-0.4,0.7-0.1,1.5,0.5,1.8l2.1,1.2c-0.3,1.2-0.5,2.5-0.5,3.8l-2.3,0.6c-0.3,0.1-0.6,0.3-0.8,0.6c-0.2,0.3-0.2,0.7-0.1,1l1.6,5.9
				c0.1,0.3,0.3,0.6,0.6,0.8c0.3,0.2,0.7,0.2,1,0.1l2.3-0.6c0.7,1.1,1.4,2.1,2.3,3l-1.2,2.1c-0.4,0.7-0.1,1.5,0.5,1.8l5.3,3
				c0.1,0,0.2,0.1,0.2,0.1c0.6,0.2,1.3,0,1.6-0.6l1.2-2.1c1.2,0.3,2.5,0.5,3.8,0.5l0.6,2.3c0.1,0.3,0.3,0.6,0.6,0.8
				c0.3,0.2,0.7,0.2,1,0.1l5.9-1.6c0.7-0.2,1.1-0.9,0.9-1.7l-0.6-2.3c1.1-0.7,2.1-1.4,3-2.3L325,234.7z M321.7,230.9
				c-1.1,1.3-2.4,2.3-3.9,3.1c-0.6,0.3-0.9,0.9-0.7,1.6l0.6,2l-3.3,0.9l-0.6-2c-0.2-0.6-0.8-1-1.4-1c-1.7,0.1-3.4-0.1-5-0.6
				c-0.6-0.2-1.3,0.1-1.6,0.6l-1,1.8l-2.9-1.7l1-1.8c0.3-0.6,0.2-1.3-0.3-1.7c-1.3-1.1-2.3-2.4-3.1-3.9c-0.3-0.6-0.9-0.9-1.6-0.7
				l-2,0.6l-0.9-3.3l2-0.6c0.6-0.2,1-0.8,1-1.4c-0.1-1.7,0.1-3.4,0.6-5c0.2-0.6-0.1-1.3-0.6-1.6l-1.8-1l1.7-2.9l1.8,1
				c0.6,0.3,1.3,0.2,1.7-0.3c1.1-1.3,2.4-2.3,3.9-3.1c0.6-0.3,0.9-0.9,0.7-1.6l-0.6-2l3.3-0.9l0.6,2c0.2,0.6,0.8,1,1.4,1
				c1.7-0.1,3.4,0.1,5,0.6c0.6,0.2,1.3-0.1,1.6-0.6l1-1.8l2.9,1.7l-1,1.8c-0.3,0.6-0.2,1.3,0.3,1.7c1.3,1.1,2.3,2.4,3.1,3.9
				c0.3,0.6,1,0.9,1.6,0.7l2-0.6l0.9,3.3l-2,0.6c-0.6,0.2-1,0.8-1,1.4c0.1,1.7-0.1,3.4-0.6,5c-0.2,0.6,0.1,1.3,0.6,1.6l1.8,1l-1.7,3
				l-1.8-1C322.8,230.3,322.1,230.4,321.7,230.9z"/>
			<path class="st3" d="M316.4,213.5c-2.3-1.3-4.9-1.6-7.4-0.9s-4.6,2.3-5.9,4.6c-1.3,2.3-1.6,4.9-0.9,7.4s2.3,4.6,4.6,5.9
				c0.5,0.3,1.1,0.6,1.7,0.8c4.3,1.5,9.3-0.3,11.6-4.4C322.7,222.1,321,216.1,316.4,213.5z M317.7,225.4c-0.9,1.6-2.4,2.8-4.2,3.3
				c-1.8,0.5-3.7,0.3-5.3-0.7c-1.6-0.9-2.8-2.4-3.3-4.2c-0.5-1.8-0.3-3.7,0.7-5.3c0.9-1.6,2.4-2.8,4.2-3.3c1.4-0.4,2.8-0.3,4.1,0.1
				c0.4,0.1,0.8,0.3,1.2,0.5C318.4,217.8,319.6,222.1,317.7,225.4z"/>
			<path class="st3" d="M275.1,194.1c-0.1,0.6,0.3,1.1,0.8,1.2l1.7,0.3c0.1,1,0.3,1.9,0.6,2.8l-1.5,1c-0.2,0.2-0.4,0.4-0.4,0.7
				c0,0.3,0,0.5,0.2,0.8l2.6,3.8c0.3,0.5,1,0.6,1.4,0.3l1.5-1c0.7,0.6,1.5,1.1,2.4,1.6l-0.3,1.7c0,0.3,0,0.5,0.2,0.8
				c0.1,0.2,0.3,0.3,0.5,0.4h0.1l4.5,0.8c0.6,0.1,1.1-0.3,1.2-0.8l0.3-1.7c1-0.1,1.9-0.3,2.8-0.6l1,1.5c0.3,0.5,1,0.6,1.4,0.3
				l3.8-2.6c0.5-0.3,0.6-1,0.3-1.4l-1-1.5c0.6-0.7,1.1-1.5,1.6-2.4l1.7,0.3c0.3,0,0.5,0,0.8-0.2c0.2-0.2,0.4-0.4,0.4-0.7l0.8-4.5
				c0.1-0.6-0.3-1.1-0.8-1.2l-1.7-0.3c-0.1-1-0.3-1.9-0.6-2.8l1.5-1c0.2-0.2,0.4-0.4,0.4-0.7c0.1-0.3,0-0.5-0.2-0.8l-2.6-3.8
				c-0.2-0.2-0.4-0.4-0.7-0.4c-0.3,0-0.5,0-0.8,0.2l-1.5,1c-0.7-0.6-1.5-1.1-2.4-1.6l0.3-1.7c0.1-0.6-0.3-1.1-0.8-1.2l-4.5-0.8
				c-0.3,0-0.5,0-0.8,0.2s-0.4,0.4-0.4,0.7l-0.3,1.7c-1,0.1-1.9,0.3-2.8,0.6l-1-1.5c-0.2-0.2-0.4-0.4-0.7-0.4c-0.3,0-0.5,0-0.8,0.2
				l-3.8,2.6c-0.2,0.2-0.4,0.4-0.4,0.7c-0.1,0.3,0,0.5,0.2,0.8l1,1.5c-0.6,0.7-1.1,1.5-1.6,2.4l-1.7-0.3c-0.3,0-0.5,0-0.8,0.2
				c-0.2,0.2-0.4,0.4-0.4,0.7L275.1,194.1z M279.3,191.3c0.5,0.1,0.9-0.2,1.1-0.6c0.5-1.2,1.2-2.2,2-3.1c0.3-0.3,0.4-0.9,0.1-1.3
				l-0.9-1.3l2.1-1.4l0.9,1.3c0.3,0.4,0.8,0.5,1.2,0.4c1.2-0.5,2.4-0.8,3.7-0.8c0.5,0,0.9-0.4,1-0.8l0.3-1.5l2.5,0.5l-0.2,1.3
				c-0.1,0.5,0.2,0.9,0.6,1.1c1.2,0.5,2.2,1.2,3.1,2c0.3,0.3,0.9,0.4,1.3,0.1l1.3-0.9l1.4,2.1l-1.3,0.9c-0.4,0.3-0.5,0.8-0.4,1.2
				c0.5,1.2,0.8,2.4,0.8,3.7c0,0.5,0.4,0.9,0.8,1l1.5,0.3l-0.5,2.5l-1.5-0.3c-0.5-0.1-0.9,0.2-1.1,0.6c-0.5,1.2-1.2,2.2-2,3.1
				c-0.3,0.3-0.4,0.9-0.1,1.3l0.9,1.3l-2.1,1.4l-0.9-1.3c-0.3-0.4-0.8-0.6-1.2-0.4c-1.2,0.5-2.4,0.8-3.7,0.8c-0.5,0-0.9,0.4-1,0.8
				l-0.3,1.5l-2.5-0.5l0.3-1.5c0.1-0.5-0.2-0.9-0.6-1.1c-1.2-0.5-2.2-1.2-3.1-2c-0.1-0.1-0.2-0.2-0.4-0.2c-0.3-0.1-0.6-0.1-0.9,0.1
				l-1.3,0.9l-1.4-2.1l1.3-0.9c0.4-0.3,0.6-0.8,0.4-1.2c-0.5-1.2-0.8-2.4-0.8-3.7c0-0.5-0.4-0.9-0.8-1l-1.5-0.3l0.5-2.5L279.3,191.3
				z"/>
			<path class="st3" d="M287.5,201.5c0.3,0.1,0.7,0.2,1,0.3c4,0.7,7.8-1.9,8.5-5.9s-1.9-7.8-5.9-8.5s-7.8,1.9-8.5,5.9
				C282,196.8,284.1,200.3,287.5,201.5 M290.8,189.3c0.3,0,0.5,0.1,0.7,0.2c2.5,0.8,4,3.4,3.5,6c-0.5,2.9-3.3,4.8-6.2,4.2
				c-2.9-0.5-4.8-3.3-4.2-6.2C285.2,190.7,287.9,188.8,290.8,189.3"/>
			<path class="st3" d="M391.9,195h7v-5.4H370c-9.8,0-13.3,4-14.7,8l1.8,1.5c3-2.2,3.2-3.5,10.7-3.9l-2.1,21l0,0
				c-0.6,5.6-5.1,8.3-6.5,10.9s2.4,6.1,6.5,6.1c2.4,0,4.2-2.2,4.6-6.5c0-0.3,2.3-23.3,3.1-31.7c0.4,0,0.8,0,1.2,0h11.5
				c-0.7,7.4-2.6,26.1-2.8,28.9c-0.6,5.4,1.1,9.3,5.9,9.3c3.9,0,7.8-2.4,8.1-8.9h-2.4c0,0-0.8,3.5-3.3,3.8c-1.5,0.2-2.9-0.9-2.5-5.3
				L391.9,195z"/>
			<path class="st3" d="M228.6,203.1c2.4-0.5,4.2-2.6,4.2-5.1c0-2.9-2.4-5.3-5.3-5.3s-5.3,2.4-5.3,5.3c0,2.5,1.8,4.6,4.4,5.1v33.7
				c-1.5,0.5-2.4,1.6-2.4,3c0,1.8,1.4,3.2,3.2,3.2c1.8,0,3.2-1.4,3.2-3.2c0-1.4-0.9-2.5-2.1-3L228.6,203.1L228.6,203.1z
				 M228.8,239.8c0,0.7-0.6,1.3-1.3,1.3c-0.7,0-1.3-0.6-1.3-1.3s0.6-1.3,1.3-1.3C228.2,238.4,228.8,239,228.8,239.8z M224.3,197.9
				c0-1.8,1.4-3.2,3.2-3.2c1.8,0,3.2,1.4,3.2,3.2c0,1.8-1.4,3.2-3.2,3.2S224.3,199.7,224.3,197.9z"/>
			<path class="st3" d="M237.2,215.5c6.3-3.5,10.6-10.2,10.5-18c-0.1-10.5-8.6-19.3-19.1-19.9c-11.6-0.6-21.2,8.6-21.2,20.1
				c0,7.6,4.3,14.3,10.5,17.7V243c0,0-2.7,1.6-2.7,3c0,1.8,1.4,3.2,3.2,3.2c1.8,0,3.2-1.4,3.2-3.2c0-1.4-1.8-3-1.8-3v-28.1
				c-0.8-0.4-1.5-0.8-2.3-1.2c-5.7-3.6-9.4-10.2-8.7-17.6c0.8-8.7,7.8-15.9,16.5-16.9c11.3-1.3,20.9,7.6,20.9,18.6
				c0,6.7-3.5,12.5-8.8,15.9c-0.7,0.5-1.5,0.9-2.3,1.2v14.6c-1.2,0.5-2.1,1.6-2.1,3c0,1.8,1.4,3.2,3.2,3.2c1.8,0,3.2-1.4,3.2-3.2
				c0-1.4-2.5-3-2.5-3v-14H237.2z M218.5,247.4c-0.7,0-1.3-0.6-1.3-1.3s0.6-1.3,1.3-1.3c0.7,0,1.3,0.6,1.3,1.3
				C219.8,246.8,219.2,247.4,218.5,247.4z M237.8,232.6c0,0.7-0.6,1.3-1.3,1.3c-0.7,0-1.3-0.6-1.3-1.3s0.6-1.3,1.3-1.3
				C237.2,231.2,237.8,231.8,237.8,232.6z"/>
			<path class="st3" d="M222.4,246c0,2.2-1.7,3.9-3.9,3.9c-2.2,0-3.9-1.7-3.9-3.9c0-2.1,1.7-3.9,3.9-3.9
				C220.6,242.1,222.4,243.9,222.4,246"/>
			<path class="st3" d="M240.4,232.6c0,2.2-1.7,3.9-3.9,3.9c-2.2,0-3.9-1.7-3.9-3.9c0-2.1,1.7-3.9,3.9-3.9
				C238.6,228.7,240.4,230.4,240.4,232.6"/>
			<path class="st3" d="M228.8,239.8c0,0.7-0.6,1.3-1.3,1.3c-0.7,0-1.3-0.6-1.3-1.3s0.6-1.3,1.3-1.3
				C228.2,238.4,228.8,239,228.8,239.8"/>
		</g>
	</g>
	<g>
		<g>
			<defs>
				<path id="SVGID_1_" d="M101.4,87.4c0,0,0.5,34.2,1,43.4c-0.2,38.5,6.2,94.7,24.6,142.3c28.3,71.5,139.3,131.6,139.3,131.6
					s111.6-60.8,139.4-131.6c18.3-46.9,25.1-104.5,23.6-142.6c0.6-10.7,0.4-10.4,0.5-18.4c0.2-13.3-0.1-22.2-0.1-24.3
					c0-0.3,0-0.5,0-0.5c-45.1,4.6-115.2,7.2-163.3-40.9C214.1,93,147,92,109.1,88L101.4,87.4z"/>
			</defs>
			<clipPath id="SVGID_3_">
				<use xlink:href="#SVGID_1_"  style="overflow:visible;"/>
			</clipPath>
			<path class="st5" d="M424.9,282.4v4.6c-1.8,0.3-3.7,0.4-5.5,0.4c-3.9,0-7.5-0.6-10.8-1.5c-5.5-1.5-10.4-3.9-15.2-6.2
				c-7.7-3.8-15-7.3-24.4-7.3s-16.7,3.6-24.4,7.3c-7.7,3.8-15.7,7.7-26,7.7s-18.3-3.9-26-7.7s-15-7.3-24.4-7.3s-16.7,3.6-24.4,7.3
				c-7.7,3.8-15.8,7.7-26,7.7c-10.3,0-18.3-3.9-26-7.7c-7.7-3.8-15-7.3-24.4-7.3s-16.7,3.6-24.4,7.3c-6.2,3-12.6,6.2-20.2,7.3
				c-1.9,0.3-3.8,0.4-5.8,0.4c-3.4,0-6.7-0.4-10.1-1.3v-4h-1.3V281c3.9,1.2,7.6,1.8,11.3,1.8c1.5,0,2.9-0.1,4.3-0.2
				c7.4-0.9,13.6-3.9,20.1-7.1c7.7-3.8,15.7-7.7,26-7.7s18.3,3.9,26,7.7s15,7.3,24.4,7.3s16.7-3.6,24.4-7.3c7.7-3.8,15.8-7.7,26-7.7
				c10.3,0,18.3,3.9,26,7.7s15,7.3,24.4,7.3s16.7-3.6,24.4-7.3c7.7-3.8,15.7-7.7,26-7.7s18.3,3.9,26,7.7c5,2.4,9.7,4.8,15,6.1
				c2.9,0.8,6,1.2,9.4,1.2C421.2,282.8,423,282.7,424.9,282.4"/>
		</g>
		<g>
			<defs>
				<path id="SVGID_4_" d="M101.4,87.4c0,0,0.5,34.2,1,43.4c-0.2,38.5,6.2,94.7,24.6,142.3c28.3,71.5,139.3,131.6,139.3,131.6
					s111.6-60.8,139.4-131.6c18.3-46.9,25.1-104.5,23.6-142.6c0.6-10.7,0.4-10.4,0.5-18.4c0.2-13.3-0.1-22.2-0.1-24.3
					c0-0.3,0-0.5,0-0.5c-45.1,4.6-115.2,7.2-163.3-40.9C214.1,93,147,92,109.1,88L101.4,87.4z"/>
			</defs>
			<clipPath id="SVGID_5_">
				<use xlink:href="#SVGID_4_"  style="overflow:visible;"/>
			</clipPath>
			<path class="st6" d="M425.4,258.9v4.6c-1.8,0.3-3.7,0.4-5.5,0.4c-3.9,0-7.5-0.6-10.8-1.5c-5.5-1.5-10.4-3.9-15.2-6.2
				c-7.7-3.8-15-7.3-24.4-7.3s-16.7,3.6-24.4,7.3c-7.7,3.8-15.7,7.7-26,7.7s-18.3-3.9-26-7.7c-7.7-3.8-15-7.3-24.4-7.3
				s-16.7,3.6-24.4,7.3c-7.7,3.8-15.8,7.7-26,7.7c-10.3,0-18.3-3.9-26-7.7c-7.7-3.8-15-7.3-24.4-7.3s-16.7,3.6-24.4,7.3
				c-6.2,3-12.6,6.2-20.2,7.3c-1.9,0.3-3.8,0.4-5.8,0.4c-3.4,0-6.7-0.4-10.1-1.3v-4h-1.3v-1.1c3.9,1.2,7.6,1.8,11.3,1.8
				c1.5,0,2.9-0.1,4.3-0.2c7.4-0.9,13.6-3.9,20.1-7.1c7.7-3.8,15.7-7.7,26-7.7s18.3,3.9,26,7.7s15,7.3,24.4,7.3
				c9.4,0,16.7-3.6,24.4-7.3c7.7-3.8,15.8-7.7,26-7.7c10.3,0,18.3,3.9,26,7.7s15,7.3,24.4,7.3s16.7-3.6,24.4-7.3
				c7.7-3.8,15.7-7.7,26-7.7s18.3,3.9,26,7.7c5,2.4,9.7,4.8,15,6.1c2.9,0.8,6,1.2,9.4,1.2C421.7,259.3,423.5,259.2,425.4,258.9"/>
		</g>
		<g>
			<path id="SVGID_2_" class="st7" d="M101.4,87.4c0,0,0.5,34.2,1,43.4c-0.2,38.5,6.2,94.7,24.6,142.3
				c28.3,71.5,139.3,131.6,139.3,131.6s111.6-60.8,139.4-131.6c18.3-46.9,25.1-104.5,23.6-142.6c0.6-10.7,0.4-10.4,0.5-18.4
				c0.2-13.3-0.1-22.2-0.1-24.3c0-0.3,0-0.5,0-0.5c-45.1,4.6-115.2,7.2-163.3-40.9C214.1,93,147,92,109.1,88L101.4,87.4z"/>
		</g>
	</g>
</g>
</svg>
