<?xml version="1.0" encoding="utf-8"?>
<!-- Generator: Adobe Illustrator 23.0.0, SVG Export Plug-In . SVG Version: 6.00 Build 0)  -->
<svg version="1.1" id="Layer_1" xmlns="http://www.w3.org/2000/svg" xmlns:xlink="http://www.w3.org/1999/xlink" x="0px" y="0px"
	 viewBox="0 0 1000 1000" style="enable-background:new 0 0 1000 1000;" xml:space="preserve">
<style type="text/css">
	.st0{clip-path:url(#SVGID_4_);fill:#5A5D5E;}
	.st1{clip-path:url(#SVGID_4_);fill:none;stroke:#FFFFFF;stroke-width:7;stroke-miterlimit:10;}
	.st2{clip-path:url(#SVGID_4_);fill:#FFFFFF;}
	.st3{clip-path:url(#SVGID_6_);fill:#55010F;}
	.st4{clip-path:url(#SVGID_6_);fill:#FFFFFF;}
	.st5{clip-path:url(#SVGID_8_);fill:#FFFFFF;}
	.st6{clip-path:url(#SVGID_8_);fill:#5A5D5E;}
	.st7{clip-path:url(#SVGID_8_);}
	.st8{clip-path:url(#SVGID_10_);fill:#55010F;}
	.st9{clip-path:url(#SVGID_10_);}
	.st10{clip-path:url(#SVGID_10_);fill:#5A5D5E;}
	.st11{clip-path:url(#SVGID_12_);fill:#55010F;}
	.st12{clip-path:url(#SVGID_14_);fill:#6B0C13;}
	.st13{fill:#D6A83F;stroke:#D6A83F;stroke-width:3;stroke-miterlimit:10;}
	.st14{fill-rule:evenodd;clip-rule:evenodd;fill:#55010F;}
	.st15{fill:none;stroke:#55010F;stroke-width:3;stroke-miterlimit:10;}
	.st16{fill:#FFFFFF;}
	.st17{clip-path:url(#SVGID_16_);fill:#550313;}
	.st18{clip-path:url(#SVGID_16_);fill:none;stroke:#FFFFFF;stroke-width:7;stroke-miterlimit:10;}
	.st19{clip-path:url(#SVGID_16_);fill:#FFFFFF;}
	.st20{clip-path:url(#SVGID_18_);fill:#55010F;}
	.st21{clip-path:url(#SVGID_18_);fill:#FFFFFF;}
	.st22{clip-path:url(#SVGID_20_);fill:#FFFFFF;}
	.st23{clip-path:url(#SVGID_20_);fill:#010A2A;}
	.st24{clip-path:url(#SVGID_20_);}
	.st25{clip-path:url(#SVGID_22_);fill:#010A2A;}
	.st26{clip-path:url(#SVGID_22_);}
	.st27{clip-path:url(#SVGID_22_);fill:#6B0C13;}
	.st28{clip-path:url(#SVGID_24_);fill:#010A2A;}
	.st29{clip-path:url(#SVGID_26_);fill:#010A2A;}
	.st30{clip-path:url(#SVGID_28_);fill:#550313;}
	.st31{clip-path:url(#SVGID_28_);fill:none;stroke:#FFFFFF;stroke-width:7;stroke-miterlimit:10;}
	.st32{clip-path:url(#SVGID_28_);fill:#FFFFFF;}
	.st33{clip-path:url(#SVGID_30_);fill:#55010F;}
	.st34{clip-path:url(#SVGID_30_);fill:#FFFFFF;}
	.st35{clip-path:url(#SVGID_32_);fill:#FFFFFF;}
	.st36{clip-path:url(#SVGID_32_);fill:#010A2A;}
	.st37{clip-path:url(#SVGID_32_);}
	.st38{clip-path:url(#SVGID_34_);fill:#010A2A;}
	.st39{clip-path:url(#SVGID_34_);}
	.st40{clip-path:url(#SVGID_34_);fill:#6B0C13;}
	.st41{clip-path:url(#SVGID_36_);fill:#010A2A;}
	.st42{clip-path:url(#SVGID_38_);fill:#010A2A;}
	.st43{clip-path:url(#SVGID_40_);}
	.st44{clip-path:url(#SVGID_40_);fill:#FFFFFF;}
	.st45{clip-path:url(#SVGID_40_);fill:none;stroke:#000000;stroke-width:7;stroke-miterlimit:10;}
	.st46{clip-path:url(#SVGID_42_);}
	.st47{clip-path:url(#SVGID_42_);fill:#FFFFFF;}
	.st48{clip-path:url(#SVGID_44_);}
	.st49{clip-path:url(#SVGID_46_);fill:#FFFFFF;}
	.st50{clip-path:url(#SVGID_48_);fill:#FFFFFF;}
	.st51{clip-path:url(#SVGID_50_);}
	.st52{clip-path:url(#SVGID_50_);fill:#FFFFFF;}
	.st53{clip-path:url(#SVGID_50_);fill:none;stroke:#000000;stroke-width:7;stroke-miterlimit:10;}
	.st54{clip-path:url(#SVGID_52_);}
	.st55{clip-path:url(#SVGID_52_);fill:#FFFFFF;}
	.st56{clip-path:url(#SVGID_54_);fill:#FFFFFF;}
	.st57{clip-path:url(#SVGID_54_);}
	.st58{clip-path:url(#SVGID_54_);fill:#1D1D1B;}
	.st59{clip-path:url(#SVGID_54_);fill:#2D2920;}
	.st60{clip-path:url(#SVGID_54_);fill:none;stroke:#2D2920;stroke-width:1.237;stroke-miterlimit:10;}
	.st61{clip-path:url(#SVGID_54_);fill:none;stroke:#2D2920;stroke-width:1.542;stroke-miterlimit:10;}
	.st62{clip-path:url(#SVGID_56_);}
	.st63{clip-path:url(#SVGID_58_);}
	.st64{clip-path:url(#SVGID_60_);fill:#FFFFFF;}
	.st65{clip-path:url(#SVGID_62_);}
	.st66{clip-path:url(#SVGID_62_);fill:#FFFFFF;}
	.st67{clip-path:url(#SVGID_62_);fill:none;stroke:#FFFFFF;stroke-width:1.237;stroke-miterlimit:10;}
	.st68{clip-path:url(#SVGID_62_);fill:none;stroke:#FFFFFF;stroke-width:1.542;stroke-miterlimit:10;}
	.st69{clip-path:url(#SVGID_64_);fill:#FFFFFF;}
	.st70{clip-path:url(#SVGID_66_);fill:#FFFFFF;}
	.st71{clip-path:url(#SVGID_68_);}
	.st72{clip-path:url(#SVGID_68_);fill:#FFFFFF;}
	.st73{clip-path:url(#SVGID_68_);fill:none;stroke:#000000;stroke-width:7;stroke-miterlimit:10;}
	.st74{clip-path:url(#SVGID_70_);}
	.st75{clip-path:url(#SVGID_70_);fill:#FFFFFF;}
	.st76{clip-path:url(#SVGID_72_);fill:#FFFFFF;}
	.st77{clip-path:url(#SVGID_72_);}
	.st78{clip-path:url(#SVGID_72_);fill:#1D1D1B;}
	.st79{clip-path:url(#SVGID_72_);fill:#2D2920;}
	.st80{clip-path:url(#SVGID_72_);fill:none;stroke:#2D2920;stroke-width:1.237;stroke-miterlimit:10;}
	.st81{clip-path:url(#SVGID_72_);fill:none;stroke:#2D2920;stroke-width:1.542;stroke-miterlimit:10;}
	.st82{clip-path:url(#SVGID_74_);}
	.st83{clip-path:url(#SVGID_76_);}
	.st84{clip-path:url(#SVGID_78_);}
	.st85{clip-path:url(#SVGID_78_);fill:#01072B;}
	.st86{clip-path:url(#SVGID_78_);fill:none;stroke:#FFFFFF;stroke-width:7;stroke-miterlimit:10;}
	.st87{clip-path:url(#SVGID_78_);fill:#FFFFFF;}
	.st88{clip-path:url(#SVGID_80_);fill:#FFFFFF;}
	.st89{clip-path:url(#SVGID_82_);fill:#01072B;}
	.st90{clip-path:url(#SVGID_82_);fill:#FFFFFF;}
	.st91{clip-path:url(#SVGID_82_);fill:none;stroke:#FFFFFF;stroke-width:1.542;stroke-miterlimit:10;}
	.st92{clip-path:url(#SVGID_82_);}
	.st93{clip-path:url(#SVGID_84_);fill:#FFFFFF;}
	.st94{clip-path:url(#SVGID_86_);fill:#FFFFFF;}
	.st95{clip-path:url(#SVGID_88_);fill:#FFFFFF;}
	.st96{fill-rule:evenodd;clip-rule:evenodd;fill:#FFFFFF;}
	.st97{fill:#FFFFFF;stroke:#FFFFFF;stroke-width:3;stroke-miterlimit:10;}
	.st98{fill:none;stroke:#000000;stroke-width:2;stroke-miterlimit:10;}
	.st99{fill:none;stroke:#FFFFFF;stroke-width:7;stroke-miterlimit:10;}
	.st100{fill:#FFFFFF;stroke:#FFFFFF;stroke-width:2;stroke-miterlimit:10;}
	.st101{clip-path:url(#SVGID_90_);}
	.st102{clip-path:url(#SVGID_90_);fill:#FFFFFF;}
	.st103{clip-path:url(#SVGID_90_);fill:none;stroke:#000000;stroke-width:7;stroke-miterlimit:10;}
	.st104{clip-path:url(#SVGID_92_);}
	.st105{clip-path:url(#SVGID_92_);fill:#FFFFFF;}
	.st106{clip-path:url(#SVGID_94_);}
	.st107{clip-path:url(#SVGID_96_);fill:#FFFFFF;}
	.st108{clip-path:url(#SVGID_98_);fill:#FFFFFF;}
	.st109{clip-path:url(#SVGID_100_);}
	.st110{clip-path:url(#SVGID_100_);fill:#FFFFFF;}
	.st111{clip-path:url(#SVGID_100_);fill:none;stroke:#000000;stroke-width:7;stroke-miterlimit:10;}
	.st112{clip-path:url(#SVGID_102_);}
	.st113{clip-path:url(#SVGID_102_);fill:#FFFFFF;}
	.st114{clip-path:url(#SVGID_104_);fill:#FFFFFF;}
	.st115{clip-path:url(#SVGID_104_);}
	.st116{clip-path:url(#SVGID_104_);fill:#1D1D1B;}
	.st117{clip-path:url(#SVGID_104_);fill:#2D2920;}
	.st118{clip-path:url(#SVGID_104_);fill:none;stroke:#2D2920;stroke-width:1.237;stroke-miterlimit:10;}
	.st119{clip-path:url(#SVGID_104_);fill:none;stroke:#2D2920;stroke-width:1.542;stroke-miterlimit:10;}
	.st120{clip-path:url(#SVGID_106_);}
	.st121{clip-path:url(#SVGID_108_);}
	.st122{clip-path:url(#SVGID_110_);fill:#FFFFFF;}
	.st123{clip-path:url(#SVGID_112_);}
	.st124{clip-path:url(#SVGID_112_);fill:#FFFFFF;}
	.st125{clip-path:url(#SVGID_112_);fill:none;stroke:#FFFFFF;stroke-width:1.237;stroke-miterlimit:10;}
	.st126{clip-path:url(#SVGID_112_);fill:none;stroke:#FFFFFF;stroke-width:1.542;stroke-miterlimit:10;}
	.st127{clip-path:url(#SVGID_114_);fill:#FFFFFF;}
	.st128{clip-path:url(#SVGID_116_);fill:#FFFFFF;}
	.st129{clip-path:url(#SVGID_118_);}
	.st130{clip-path:url(#SVGID_118_);fill:#FFFFFF;}
	.st131{clip-path:url(#SVGID_118_);fill:none;stroke:#000000;stroke-width:7;stroke-miterlimit:10;}
	.st132{clip-path:url(#SVGID_120_);}
	.st133{clip-path:url(#SVGID_120_);fill:#FFFFFF;}
	.st134{clip-path:url(#SVGID_122_);fill:#FFFFFF;}
	.st135{clip-path:url(#SVGID_122_);}
	.st136{clip-path:url(#SVGID_122_);fill:#1D1D1B;}
	.st137{clip-path:url(#SVGID_122_);fill:#2D2920;}
	.st138{clip-path:url(#SVGID_122_);fill:none;stroke:#2D2920;stroke-width:1.237;stroke-miterlimit:10;}
	.st139{clip-path:url(#SVGID_122_);fill:none;stroke:#2D2920;stroke-width:1.542;stroke-miterlimit:10;}
	.st140{clip-path:url(#SVGID_124_);}
	.st141{clip-path:url(#SVGID_126_);}
	.st142{clip-path:url(#SVGID_128_);}
	.st143{clip-path:url(#SVGID_128_);fill:none;stroke:#FFFFFF;stroke-width:7;stroke-miterlimit:10;}
	.st144{clip-path:url(#SVGID_128_);fill:#FFFFFF;}
	.st145{clip-path:url(#SVGID_130_);fill:#FFFFFF;}
	.st146{clip-path:url(#SVGID_132_);}
	.st147{clip-path:url(#SVGID_132_);fill:#FFFFFF;}
	.st148{clip-path:url(#SVGID_132_);fill:none;stroke:#FFFFFF;stroke-width:1.237;stroke-miterlimit:10;}
	.st149{clip-path:url(#SVGID_132_);fill:none;stroke:#FFFFFF;stroke-width:1.542;stroke-miterlimit:10;}
	.st150{clip-path:url(#SVGID_134_);fill:#FFFFFF;}
	.st151{clip-path:url(#SVGID_136_);fill:#FFFFFF;}
	.st152{clip-path:url(#SVGID_138_);fill:#FFFFFF;}
	.st153{clip-path:url(#SVGID_140_);}
	.st154{clip-path:url(#SVGID_140_);fill:#FFFFFF;}
	.st155{clip-path:url(#SVGID_140_);fill:none;stroke:#000000;stroke-width:7;stroke-miterlimit:10;}
	.st156{clip-path:url(#SVGID_142_);}
	.st157{clip-path:url(#SVGID_142_);fill:#FFFFFF;}
	.st158{clip-path:url(#SVGID_144_);}
	.st159{clip-path:url(#SVGID_146_);fill:#FFFFFF;}
	.st160{clip-path:url(#SVGID_148_);fill:#FFFFFF;}
	.st161{clip-path:url(#SVGID_150_);}
	.st162{clip-path:url(#SVGID_150_);fill:#FFFFFF;}
	.st163{clip-path:url(#SVGID_150_);fill:none;stroke:#000000;stroke-width:7;stroke-miterlimit:10;}
	.st164{clip-path:url(#SVGID_152_);}
	.st165{clip-path:url(#SVGID_152_);fill:#FFFFFF;}
	.st166{clip-path:url(#SVGID_154_);fill:#FFFFFF;}
	.st167{clip-path:url(#SVGID_154_);}
	.st168{clip-path:url(#SVGID_154_);fill:#1D1D1B;}
	.st169{clip-path:url(#SVGID_154_);fill:#2D2920;}
	.st170{clip-path:url(#SVGID_154_);fill:none;stroke:#2D2920;stroke-width:1.237;stroke-miterlimit:10;}
	.st171{clip-path:url(#SVGID_154_);fill:none;stroke:#2D2920;stroke-width:1.542;stroke-miterlimit:10;}
	.st172{clip-path:url(#SVGID_156_);}
	.st173{clip-path:url(#SVGID_158_);}
	.st174{clip-path:url(#SVGID_160_);fill:#FFFFFF;}
	.st175{clip-path:url(#SVGID_162_);}
	.st176{clip-path:url(#SVGID_162_);fill:#FFFFFF;}
	.st177{clip-path:url(#SVGID_162_);fill:none;stroke:#FFFFFF;stroke-width:1.237;stroke-miterlimit:10;}
	.st178{clip-path:url(#SVGID_162_);fill:none;stroke:#FFFFFF;stroke-width:1.542;stroke-miterlimit:10;}
	.st179{clip-path:url(#SVGID_164_);fill:#FFFFFF;}
	.st180{clip-path:url(#SVGID_166_);fill:#FFFFFF;}
	.st181{clip-path:url(#SVGID_168_);}
	.st182{clip-path:url(#SVGID_168_);fill:#FFFFFF;}
	.st183{clip-path:url(#SVGID_168_);fill:none;stroke:#000000;stroke-width:7;stroke-miterlimit:10;}
	.st184{clip-path:url(#SVGID_170_);}
	.st185{clip-path:url(#SVGID_170_);fill:#FFFFFF;}
	.st186{clip-path:url(#SVGID_172_);fill:#FFFFFF;}
	.st187{clip-path:url(#SVGID_172_);}
	.st188{clip-path:url(#SVGID_172_);fill:#1D1D1B;}
	.st189{clip-path:url(#SVGID_172_);fill:#2D2920;}
	.st190{clip-path:url(#SVGID_172_);fill:none;stroke:#2D2920;stroke-width:1.237;stroke-miterlimit:10;}
	.st191{clip-path:url(#SVGID_172_);fill:none;stroke:#2D2920;stroke-width:1.542;stroke-miterlimit:10;}
	.st192{clip-path:url(#SVGID_174_);}
	.st193{clip-path:url(#SVGID_176_);}
	.st194{clip-path:url(#SVGID_178_);}
	.st195{clip-path:url(#SVGID_178_);fill:none;stroke:#FFFFFF;stroke-width:7;stroke-miterlimit:10;}
	.st196{clip-path:url(#SVGID_178_);fill:#FFFFFF;}
	.st197{clip-path:url(#SVGID_180_);fill:#FFFFFF;}
	.st198{clip-path:url(#SVGID_182_);}
	.st199{clip-path:url(#SVGID_182_);fill:#FFFFFF;}
	.st200{clip-path:url(#SVGID_182_);fill:none;stroke:#FFFFFF;stroke-width:1.237;stroke-miterlimit:10;}
	.st201{clip-path:url(#SVGID_182_);fill:none;stroke:#FFFFFF;stroke-width:1.542;stroke-miterlimit:10;}
	.st202{clip-path:url(#SVGID_184_);fill:#FFFFFF;}
	.st203{clip-path:url(#SVGID_186_);fill:#FFFFFF;}
	.st204{clip-path:url(#SVGID_188_);fill:#FFFFFF;}
	.st205{clip-path:url(#SVGID_190_);fill:#01042C;}
	.st206{clip-path:url(#SVGID_190_);fill:none;stroke:#FFFFFF;stroke-width:7;stroke-miterlimit:10;}
	.st207{clip-path:url(#SVGID_190_);fill:#FFFFFF;}
	.st208{clip-path:url(#SVGID_192_);fill:#FFFFFF;}
	.st209{clip-path:url(#SVGID_192_);fill:#01042C;}
	.st210{clip-path:url(#SVGID_194_);fill:#FFFFFF;}
	.st211{clip-path:url(#SVGID_194_);fill-rule:evenodd;clip-rule:evenodd;fill:#EA8431;}
	.st212{clip-path:url(#SVGID_194_);fill:#01042C;}
	.st213{clip-path:url(#SVGID_194_);}
	.st214{fill:none;stroke:#EA8431;stroke-width:4;stroke-miterlimit:10;}
	.st215{clip-path:url(#SVGID_196_);fill:#01042C;}
	.st216{clip-path:url(#SVGID_198_);}
	.st217{clip-path:url(#SVGID_200_);fill:#01042C;}
	.st218{clip-path:url(#SVGID_198_);fill:#01042C;}
	.st219{fill-rule:evenodd;clip-rule:evenodd;fill:#01042C;}
	.st220{clip-path:url(#SVGID_202_);fill:#01042C;}
	.st221{clip-path:url(#SVGID_202_);fill:#FFFFFF;}
	.st222{clip-path:url(#SVGID_204_);fill:#FFFFFF;}
	.st223{clip-path:url(#SVGID_204_);fill:#01042C;}
	.st224{clip-path:url(#SVGID_206_);fill:#FFFFFF;}
	.st225{clip-path:url(#SVGID_206_);fill-rule:evenodd;clip-rule:evenodd;fill:#EA8431;}
	.st226{clip-path:url(#SVGID_206_);fill:#01042C;}
	.st227{clip-path:url(#SVGID_206_);}
	.st228{clip-path:url(#SVGID_208_);fill:#01042C;}
	.st229{clip-path:url(#SVGID_210_);}
	.st230{clip-path:url(#SVGID_212_);fill:#01042C;}
	.st231{clip-path:url(#SVGID_210_);fill:#01042C;}
	.st232{clip-path:url(#SVGID_214_);fill:#01042C;}
	.st233{clip-path:url(#SVGID_214_);fill:#FFFFFF;}
	.st234{clip-path:url(#SVGID_216_);fill:#FFFFFF;}
	.st235{clip-path:url(#SVGID_216_);fill:#01042C;}
	.st236{clip-path:url(#SVGID_218_);fill:#FFFFFF;}
	.st237{clip-path:url(#SVGID_218_);fill-rule:evenodd;clip-rule:evenodd;fill:#EA8431;}
	.st238{clip-path:url(#SVGID_218_);fill:#01042C;}
	.st239{clip-path:url(#SVGID_218_);}
	.st240{clip-path:url(#SVGID_220_);fill:#01042C;}
	.st241{clip-path:url(#SVGID_222_);}
	.st242{clip-path:url(#SVGID_224_);fill:#01042C;}
	.st243{clip-path:url(#SVGID_222_);fill:#01042C;}
	.st244{clip-path:url(#SVGID_226_);fill:#01042C;}
	.st245{clip-path:url(#SVGID_226_);fill:none;stroke:#FFFFFF;stroke-width:7;stroke-miterlimit:10;}
	.st246{clip-path:url(#SVGID_226_);fill:#FFFFFF;}
	.st247{clip-path:url(#SVGID_228_);fill:#FFFFFF;}
	.st248{clip-path:url(#SVGID_228_);fill:#01042C;}
	.st249{clip-path:url(#SVGID_230_);fill:#FFFFFF;}
	.st250{clip-path:url(#SVGID_230_);fill-rule:evenodd;clip-rule:evenodd;fill:#EA8431;}
	.st251{clip-path:url(#SVGID_230_);fill:#01042C;}
	.st252{clip-path:url(#SVGID_230_);}
	.st253{clip-path:url(#SVGID_232_);fill:#01042C;}
	.st254{clip-path:url(#SVGID_234_);}
	.st255{clip-path:url(#SVGID_236_);fill:#01042C;}
	.st256{clip-path:url(#SVGID_234_);fill:#01042C;}
	.st257{fill:#EA8431;}
	.st258{fill-rule:evenodd;clip-rule:evenodd;fill:#EA8431;}
	.st259{fill:#01042C;}
	.st260{clip-path:url(#SVGID_238_);fill:#01042C;}
	.st261{fill:none;stroke:#FFFFFF;stroke-width:4;stroke-miterlimit:10;}
	.st262{clip-path:url(#SVGID_240_);fill:#FFFFFF;}
	.st263{clip-path:url(#SVGID_241_);fill:#01042C;}
	.st264{clip-path:url(#SVGID_242_);fill:#FFFFFF;}
</style>
<g>
	<path class="st16" d="M345.3,619.4h15.2l-7.4-20.4C350.4,605.9,347.7,612.7,345.3,619.4z"/>
	<g>
		<g>
			<line class="st261" x1="766.9" y1="284.5" x2="825.6" y2="284.5"/>
			<line class="st261" x1="554.1" y1="284.5" x2="745.6" y2="284.5"/>
			<line class="st261" x1="222.8" y1="284.5" x2="177.5" y2="284.5"/>
			<line class="st261" x1="454.3" y1="284.5" x2="244.4" y2="284.5"/>
			<line class="st261" x1="610.8" y1="203.7" x2="543.1" y2="251.1"/>
			<line class="st261" x1="632.5" y1="188.5" x2="610.8" y2="203.7"/>
			<line class="st261" x1="659.9" y1="169.3" x2="632.5" y2="188.5"/>
			<line class="st261" x1="615" y1="226.1" x2="730.8" y2="170"/>
			<line class="st261" x1="581.1" y1="243.1" x2="606.8" y2="230.7"/>
			<line class="st261" x1="550.7" y1="257.8" x2="581.1" y2="243.1"/>
			<line class="st261" x1="712.6" y1="217.3" x2="821.3" y2="184.5"/>
			<line class="st261" x1="667.5" y1="230.9" x2="685.8" y2="225.4"/>
			<line class="st261" x1="550.7" y1="266.2" x2="649.6" y2="236.3"/>
			<line class="st261" x1="696.4" y1="251.6" x2="825.6" y2="230.2"/>
			<line class="st261" x1="648.7" y1="259.5" x2="678.3" y2="254.6"/>
			<line class="st261" x1="546.6" y1="276.4" x2="618.2" y2="264.5"/>
			<line class="st261" x1="512.5" y1="230.2" x2="543.1" y2="123.6"/>
			<line class="st261" x1="575.9" y1="155.6" x2="584" y2="142"/>
			<line class="st261" x1="565.8" y1="172.6" x2="575.9" y2="155.6"/>
			<line class="st261" x1="527.9" y1="236.3" x2="565.8" y2="172.6"/>
			<line class="st261" x1="604" y1="173.4" x2="618.1" y2="156.3"/>
			<line class="st261" x1="539.8" y1="243" x2="595.4" y2="182.1"/>
			<line class="st261" x1="386.4" y1="204.5" x2="461.5" y2="257"/>
			<line class="st261" x1="364.7" y1="189.2" x2="386.4" y2="204.5"/>
			<line class="st261" x1="337.3" y1="170" x2="364.7" y2="189.2"/>
			<line class="st261" x1="382.2" y1="226.8" x2="264.8" y2="170"/>
			<line class="st261" x1="416.1" y1="243.8" x2="390.4" y2="231.4"/>
			<line class="st261" x1="454.3" y1="262.3" x2="416.1" y2="243.8"/>
			<line class="st261" x1="284.6" y1="218.1" x2="177.7" y2="185.8"/>
			<line class="st261" x1="329.6" y1="231.7" x2="311.4" y2="226.1"/>
			<line class="st261" x1="456" y1="269.8" x2="347.6" y2="237.1"/>
			<line class="st261" x1="300.8" y1="252.3" x2="171.6" y2="230.9"/>
			<line class="st261" x1="348.5" y1="260.2" x2="318.9" y2="255.3"/>
			<line class="st261" x1="456" y1="278.1" x2="379" y2="265.3"/>
			<line class="st261" x1="489.5" y1="230.2" x2="456" y2="124.5"/>
			<line class="st261" x1="431.4" y1="173.4" x2="415.1" y2="145.9"/>
			<line class="st261" x1="431.4" y1="173.4" x2="426.3" y2="164.9"/>
			<line class="st261" x1="469.6" y1="237.6" x2="431.4" y2="173.4"/>
			<line class="st261" x1="397.7" y1="176.9" x2="380.6" y2="158.2"/>
			<line class="st261" x1="465.7" y1="251.3" x2="401.7" y2="181.3"/>
		</g>
	</g>
	<circle class="st16" cx="501.9" cy="286.3" r="59.1"/>
	<g>
		<path class="st16" d="M879.2,120.3c0-0.8-0.1-1.1-0.1-1.1C774.8,129.8,612.5,135.8,501,24.4c-110.2,110.2-290.4,104-378.1,94.7
			c-0.2,6.7-0.7,25.4-0.3,57.4c0.3,18.6-2.4,18.6-1.1,43.3c-0.4,89.1,14.4,219.3,57,329.3C244.1,714.8,501,853.8,501,853.8
			S759.5,713,823.6,549.2c42.3-108.6,58-241.8,54.7-330c1.3-24.8,0.9-24,1.1-42.6C879.9,145.8,879.3,125.2,879.2,120.3z
			 M851.6,195.8c-0.2,17.2,0.1,16.5-1.1,39.5c3.1,81.7-11.4,205.1-50.7,305.8C740.5,692.9,501,823.3,501,823.3
			S262.9,694.5,202.1,541.1C162.6,439.2,149,318.5,149.3,236c-1.2-22.9,1.3-22.9,1.1-40.1c-0.4-29.7,0.1-47,0.3-53.2
			c81.3,8.6,248.2,14.4,350.3-87.8c103.3,103.3,253.6,97.6,350.4,87.8c0,0,0,0.4,0,1.1C851.5,148.2,852.1,167.3,851.6,195.8z"/>
	</g>
	<g>
		<g>
			<defs>
				<path id="SVGID_1_" d="M176,163c-0.2,5.7,0.8,72.6,1.9,93.7c-0.3,75.8,12.2,186.7,48.5,280.3C282.2,678,500.9,796.3,500.9,796.3
					s220-119.8,274.6-259.3c36-92.5,49.4-205.8,46.5-280.9c1.1-21.1,0.7-20.4,1-36.3c0.4-26.2-0.1-43.7-0.2-47.9c0-0.6,0-1,0-1
					c-88.9,9.1-227,14.2-321.8-80.6c-93.8,93.8-247.2,88.5-321.8,80.6"/>
			</defs>
			<clipPath id="SVGID_4_">
				<use xlink:href="#SVGID_1_"  style="overflow:visible;"/>
			</clipPath>
			<path class="st2" d="M815.3,553.3v9.1c-3.6,0.5-7.3,0.8-10.9,0.8c-7.7,0-14.7-1.1-21.3-2.9c-10.8-2.9-20.4-7.6-29.9-12.3
				c-15.2-7.4-29.5-14.4-48.1-14.4c-18.6,0-33,7-48.1,14.4c-15.3,7.5-31,15.2-51.3,15.2c-20.2,0-36-7.7-51.2-15.2
				c-15.2-7.4-29.6-14.4-48.1-14.4s-32.9,7-48.1,14.4c-15.3,7.5-31,15.2-51.2,15.2c-20.2,0-36-7.7-51.2-15.2
				c-15.2-7.4-29.6-14.4-48.1-14.4c-18.6,0-32.9,7-48.1,14.4c-12.3,6-24.9,12.2-39.9,14.3c-3.7,0.5-7.4,0.8-11.4,0.8
				c-6.6,0-13.2-0.9-19.9-2.6v-7.8h-2.5v-2.2c7.6,2.3,15,3.5,22.3,3.5c2.9,0,5.7-0.2,8.4-0.5c14.7-1.7,26.9-7.7,39.7-14
				c15.3-7.5,31-15.2,51.2-15.2c20.2,0,36,7.7,51.2,15.2c15.2,7.4,29.6,14.4,48.1,14.4c18.6,0,32.9-7,48.1-14.4
				c15.3-7.5,31-15.2,51.2-15.2c20.2,0,36,7.7,51.2,15.2c15.2,7.4,29.6,14.4,48.1,14.4c18.6,0,32.9-7,48.1-14.4
				c15.2-7.5,31-15.2,51.2-15.2c20.2,0,36,7.7,51.2,15.2c9.8,4.8,19.2,9.4,29.6,12.1c5.8,1.5,11.9,2.4,18.5,2.4
				C808.1,554.2,811.7,553.9,815.3,553.3"/>
			<path class="st2" d="M814.3,509v9.1c-3.6,0.5-7.3,0.8-10.9,0.8c-7.7,0-14.7-1.1-21.3-2.9c-10.8-2.9-20.4-7.6-29.9-12.3
				c-15.2-7.4-29.5-14.4-48.1-14.4c-18.6,0-33,7-48.1,14.4c-15.3,7.5-31,15.2-51.3,15.2s-36-7.7-51.2-15.2
				c-15.2-7.4-29.6-14.4-48.1-14.4c-18.6,0-32.9,7-48.1,14.4c-15.3,7.5-31,15.2-51.2,15.2c-20.2,0-36-7.7-51.2-15.2
				c-15.2-7.4-29.6-14.4-48.1-14.4c-18.6,0-32.9,7-48.1,14.4c-12.3,6-24.9,12.2-39.9,14.3c-3.7,0.5-7.4,0.8-11.4,0.8
				c-6.6,0-13.2-0.9-19.9-2.6v-7.8h-2.5v-2.2c7.6,2.3,15,3.5,22.3,3.5c2.9,0,5.7-0.2,8.4-0.5c14.7-1.7,26.9-7.7,39.7-14
				c15.3-7.5,31-15.2,51.2-15.2c20.2,0,36,7.7,51.2,15.2c15.2,7.4,29.6,14.4,48.1,14.4c18.6,0,32.9-7,48.1-14.4
				c15.3-7.5,31-15.2,51.2-15.2c20.2,0,36,7.7,51.2,15.2c15.2,7.4,29.6,14.4,48.1,14.4c18.6,0,32.9-7,48.1-14.4
				c15.2-7.5,31-15.2,51.2-15.2c20.2,0,36,7.7,51.2,15.2c9.8,4.8,19.2,9.4,29.6,12.1c5.8,1.5,11.9,2.4,18.5,2.4
				C807.1,509.8,810.7,509.5,814.3,509"/>
			<use xlink:href="#SVGID_1_"  style="overflow:visible;fill:none;stroke:#FFFFFF;stroke-width:10;stroke-miterlimit:10;"/>
		</g>
		<path class="st16" d="M94.4,545.2c0,0,44.4-23.5,38.4-70.9C132.8,474.3,81.8,482.8,94.4,545.2"/>
		<path class="st16" d="M80.6,476.8c0,0,43.4-26,34.8-73.4C115.5,403.4,64.6,414.8,80.6,476.8"/>
		<path class="st16" d="M64.8,409.9c1.4,32.9,5.2,65.8,11.7,98c6.5,32.3,15.8,64,27.8,94.5c12,30.6,26.8,60,44.3,87.9
			c17.4,27.8,37.4,54,59.5,78.2c44.2,48.5,96.7,89.1,153.5,121.7c56.9,32.7,118.1,57.5,181,75.9l0,0c4.1,1.2,6.4,5.4,5.2,9.5
			c-1.2,4.1-5.4,6.4-9.5,5.2c0,0-0.1,0-0.1,0c-63.7-19.6-125.5-45.8-182.9-79.9c-57.3-34-110.1-76.1-154.3-126.1
			c-22.1-25-42-51.8-59.3-80.3c-17.3-28.5-31.8-58.6-43.6-89.7c-11.7-31.1-20.6-63.3-26.7-95.9c-6.1-32.6-9.5-65.8-10.4-98.9
			c0-1,0.8-1.8,1.8-1.9C63.9,408.1,64.8,408.9,64.8,409.9"/>
		<path class="st16" d="M395.3,903.2c0,0,37.8-56.8,0-109.5C395.3,793.7,339.9,837,395.3,903.2"/>
		<path class="st16" d="M370.5,919.6c0,0-56.5,38.2-109.5,0.7C261,920.3,303.9,864.6,370.5,919.6"/>
		<path class="st16" d="M304.3,876.3c0,0-56.5,38.2-109.5,0.7C194.8,877.1,237.7,821.4,304.3,876.3"/>
		<path class="st16" d="M241,831.2c0,0-58,24.8-99.5-18.6C141.5,812.6,190.2,769.6,241,831.2"/>
		<path class="st16" d="M185.6,776.2c0,0-56,14.6-87.8-30.4C97.8,745.8,147.9,713.4,185.6,776.2"/>
		<path class="st16" d="M134.9,706.2c0,0-55.6,8.6-81.9-38C53,668.3,104.6,641.8,134.9,706.2"/>
		<path class="st16" d="M100.5,632.1c0,0-51.8,7.1-75.5-36.6C25,595.5,73.3,571.7,100.5,632.1"/>
		<path class="st16" d="M71.7,557c0,0-50,0.9-67.5-43.3C4.2,513.7,52.8,496.6,71.7,557"/>
		<path class="st16" d="M60.1,484c0,0-51.2-10.6-59-59.8C1.1,424.2,54.7,418,60.1,484"/>
		<path class="st16" d="M63.3,415.7c0,0,25.8-36.8,1.8-72.1C65.1,343.6,27.9,371.2,63.3,415.7"/>
		<path class="st16" d="M332.5,866c0,0,37.8-56.8,0-109.5C332.5,756.5,277.1,799.8,332.5,866"/>
		<path class="st16" d="M268.6,818.8c0,0,37.8-48.6,7.3-98.6C275.9,720.3,223.1,755.5,268.6,818.8"/>
		<path class="st16" d="M207,756.7c0,0,36.1-47.7,5.8-95.9C212.8,660.8,162,695.7,207,756.7"/>
		<path class="st16" d="M158.4,700c0,0,35.9-41.9,10.6-87.9C169,612.1,120.3,641.4,158.4,700"/>
		<path class="st16" d="M124.5,620.6c0,0,39.9-35.2,21.9-82.5C146.4,538.1,96,559.6,124.5,620.6"/>
		<path class="st16" d="M906.7,545.2c0,0-44.4-23.5-38.4-70.9C868.3,474.3,919.4,482.8,906.7,545.2"/>
		<path class="st16" d="M920.5,476.8c0,0-43.4-26-34.8-73.4C885.7,403.4,936.5,414.8,920.5,476.8"/>
		<path class="st16" d="M939.9,410c-0.9,33.1-4.3,66.3-10.4,98.9c-6.1,32.6-15,64.8-26.7,95.9c-11.7,31.1-26.3,61.2-43.6,89.7
			C842,723,822.1,749.9,800,774.9c-44.2,50-97,92.1-154.3,126.1c-57.4,34.1-119.2,60.3-182.9,79.9c-4,1.2-8.3-1-9.6-5.1
			c-1.2-4,1-8.3,5.1-9.6c0,0,0,0,0.1,0l0.1,0c62.9-18.4,124.1-43.3,181-75.9c56.8-32.6,109.3-73.2,153.5-121.7
			c22.1-24.2,42.1-50.4,59.5-78.2c17.4-27.8,32.2-57.3,44.3-87.9c12-30.6,21.3-62.3,27.8-94.5c6.5-32.3,10.3-65.1,11.7-98
			c0-1,0.9-1.8,1.9-1.7C939.2,408.2,940,409,939.9,410"/>
		<path class="st16" d="M605.8,903.2c0,0-37.8-56.8,0-109.5C605.8,793.7,661.2,837,605.8,903.2"/>
		<path class="st16" d="M630.6,919.6c0,0,56.5,38.2,109.5,0.7C740.1,920.3,697.2,864.6,630.6,919.6"/>
		<path class="st16" d="M696.8,876.3c0,0,56.5,38.2,109.5,0.7C806.3,877.1,763.4,821.4,696.8,876.3"/>
		<path class="st16" d="M760.1,831.2c0,0,58,24.8,99.5-18.6C859.6,812.6,810.9,769.6,760.1,831.2"/>
		<path class="st16" d="M815.5,776.2c0,0,56,14.6,87.8-30.4C903.3,745.8,853.2,713.4,815.5,776.2"/>
		<path class="st16" d="M866.2,706.2c0,0,55.6,8.6,81.9-38C948.1,668.3,896.5,641.8,866.2,706.2"/>
		<path class="st16" d="M900.6,632.1c0,0,51.8,7.1,75.5-36.6C976.1,595.5,927.8,571.7,900.6,632.1"/>
		<path class="st16" d="M929.4,557c0,0,50,0.9,67.5-43.3C996.9,513.7,948.3,496.6,929.4,557"/>
		<path class="st16" d="M941,484c0,0,51.2-10.6,59-59.8C1000,424.2,946.4,418,941,484"/>
		<path class="st16" d="M937.8,415.7c0,0-25.8-36.8-1.8-72.1C936,343.6,973.2,371.2,937.8,415.7"/>
		<path class="st16" d="M668.6,866c0,0-37.8-56.8,0-109.5C668.6,756.5,724,799.8,668.6,866"/>
		<path class="st16" d="M732.5,818.8c0,0-37.8-48.6-7.2-98.6C725.2,720.3,778,755.5,732.5,818.8"/>
		<path class="st16" d="M794.1,756.7c0,0-36.1-47.7-5.8-95.9C788.3,660.8,839.1,695.7,794.1,756.7"/>
		<path class="st16" d="M842.7,700c0,0-35.9-41.9-10.6-87.9C832.1,612.1,880.8,641.4,842.7,700"/>
		<path class="st16" d="M876.6,620.6c0,0-39.9-35.2-21.9-82.5C854.7,538.1,905.1,559.6,876.6,620.6"/>
	</g>
	<g>
		<path class="st16" d="M219.5,503.4V380.8c0-32.8,26.6-59.4,59.4-59.4c32.8,0,59.4,26.6,59.4,59.4v105.8c6.8,2.6,13.2,5.7,19.5,8.8
			c3.3,1.6,6.5,3.2,9.8,4.7V380.8c0-32.8,26.6-59.4,59.4-59.4h0c32.8,0,59.4,26.6,59.4,59.4v101.7c5.9-1.4,12.2-2.3,18.9-2.3
			c3.6,0,7,0.3,10.4,0.7V380.8c0-32.8,26.6-59.4,59.4-59.4c32.8,0,59.4,26.6,59.4,59.4v122.6h0.9c5.9-2.4,11.6-5.2,17.5-8
			c3.6-1.8,7.2-3.5,10.9-5.2V380.8c0-32.8,26.6-59.4,59.4-59.4c32.8,0,59.4,26.6,59.4,59.4v122.6h5c21.1-66.6,31.9-139.8,34.3-200.1
			H179c3.4,60.4,13.9,132.8,35.2,200.1H219.5z"/>
	</g>
	<path class="st16" d="M751.8,543.2c-15.2-7.4-29.5-14.4-48.1-14.4c-18.6,0-33,7-48.1,14.4c-15.3,7.5-31,15.2-51.2,15.2
		c-20.2,0-36-7.7-51.2-15.2c-15.2-7.4-29.6-14.4-48.1-14.4c-18.6,0-32.9,7-48.1,14.4c-15.3,7.5-31,15.2-51.2,15.2
		c-20.2,0-36-7.7-51.2-15.2c-15.2-7.4-29.6-14.4-48.1-14.4s-32.9,7-48.1,14.4c-7.5,3.7-15.1,7.4-23.3,10.2
		c67.7,131.4,264.8,238,264.8,238S701,681.6,766.1,549.9C761.2,547.8,756.5,545.5,751.8,543.2z M366.1,635.2c-1-3-2.6-7.2-4.1-11.5
		h-18.2c-1.1,3.2-2.4,6.7-3.5,9.8c-1.9,5.7-0.1,6.4,7.1,7.2v3h-21.7v-3c5.7-0.7,7.1-1.5,10.2-9.2l18.6-46.7l3.8-0.7
		c5.7,15.5,11.8,31.8,17.6,47c3.2,8.2,4,8.8,10,9.5v3h-24.7v-3C367.1,639.8,367.4,638.9,366.1,635.2z M404.9,704.1
		c-2.7,2.7-7,4-13,4c-2.1,0-4.2-0.2-6.1-0.5c-1.4-0.2-3.2-0.7-5.4-1.4c0.3-3.5,0.5-6.9,0.5-10.3v-2h2.9c0.8,3.9,1.7,6.6,2.8,7.9
		c1.5,1.8,3.5,2.7,6.2,2.7c2.1,0,3.8-0.6,5-1.9c1.3-1.2,1.9-2.8,1.9-4.8c0-1.2-0.3-2.3-0.8-3.3c-0.5-0.9-1.3-1.8-2.3-2.6
		c-1-0.8-2.9-1.8-5.7-3.1c-4.2-2-7-3.9-8.4-5.7c-1.4-1.8-2.1-4-2.1-6.4c0-3.6,1.3-6.7,4-9.1c2.7-2.4,6.6-3.6,11.6-3.6
		c3.4,0,7,0.6,11,1.9c-0.1,3.1-0.2,5.3-0.2,6.5c0,1.4,0.1,2.9,0.2,4.5h-3c-0.7-3.8-1.6-6.3-3-7.6c-1.3-1.3-3.1-1.9-5.4-1.9
		c-2,0-3.6,0.5-4.8,1.6s-1.7,2.4-1.7,4c0,1.5,0.5,2.8,1.6,4c1,1.2,3.5,2.7,7.5,4.5c3.9,1.8,6.7,3.7,8.3,5.6c1.6,2,2.3,4.5,2.3,7.4
		C408.9,698.3,407.5,701.4,404.9,704.1z M407.8,642.1c-0.6-2.2-2-10.4-2.6-14.9l3.2-0.8c1.8,5.8,6.4,14.9,15.4,14.9
		c5.8,0,9.4-3.8,9.4-9.6c0-5.8-3.4-8.8-11.1-12.9c-9.4-5.1-15.2-9.5-15.2-18.5c0-8.9,7.1-16.4,20-16.4c5.8,0,10.5,1.3,12.5,1.6
		c0.4,3.3,0.9,7.6,1.6,13.3l-3.2,0.7c-1.7-5.8-4.2-12.1-12.5-12.1c-5.8,0-8.9,4.2-8.9,9.1c0,5.4,3.5,8.4,11.3,12.3
		c10,5,15.6,9.5,15.6,18.3c0,10.2-8.6,17.7-21,17.7C416.8,645,411.9,643.5,407.8,642.1z M465.6,677.6c-1.4-4.2-2.2-6.5-2.5-7.1
		c-0.3-0.6-0.7-0.9-1.3-1.2c-0.6-0.2-2.3-0.3-5.3-0.3h-2.9v27.7c0,3.4,0.1,5.5,0.4,6.2c0.1,0.4,0.4,0.7,0.9,0.9s2.3,0.6,5.4,1.2v2.2
		c-6-0.2-9.9-0.3-11.6-0.3c-2.3,0-5.9,0.1-10.7,0.3V705c3.2-0.6,5-1,5.6-1.3c0.4-0.2,0.7-0.6,0.8-1.1c0.1-0.5,0.2-2.6,0.2-6.2V669
		h-5c-1.7,0-2.8,0.1-3.3,0.4c-0.5,0.3-1,0.8-1.4,1.5c-0.5,1.1-1.3,3.3-2.3,6.7h-2.7c0.3-2.9,0.5-4.9,0.6-6c0.1-1.1,0.2-3.3,0.3-6.5
		c7.8,0.2,15.5,0.3,23,0.3c6.3-0.1,10.9-0.1,13.7-0.3c0,3.8,0.3,8,0.9,12.5H465.6z M481.8,616.4c-2.8-5.5-6-11.4-11.2-20.5
		c-3.4-5.9-4.6-7.1-10.1-7.6v-3h24.8v3c-6.2,0.8-5.9,2-4.4,5.1c3.2,6.2,7.2,13.7,10.8,20.3c2.9-5.4,7.5-14.4,10-19.7
		c1.8-3.9,1.3-5-5.4-5.8v-3H517v3c-5.9,0.7-7.7,1.8-11,7.4c-3.5,5.9-6.5,11.3-10.9,19.9c-0.8,1.7-1.1,2.7-1.1,4.9v11.1
		c0,7.7,0.7,8,8.5,8.9v3H475v-3c7.5-1,8.1-1.2,8.1-8.9v-10.8C483,619,482.7,618.1,481.8,616.4z M522.8,707.2
		c-6.8-0.2-13.8-0.3-21.2-0.3c-3.3,0-8,0.1-14,0.3V705c3.3-0.6,5.2-1.1,5.6-1.4c0.7-0.5,1-1.6,1-3.4v-1l0.1-11.8v-9.5l0-4.4
		c0-2.1-0.1-3.4-0.3-3.9c-0.2-0.5-0.6-0.9-1.3-1.2c-0.6-0.3-2.3-0.6-5.1-1v-2.2c4.8,0.2,10,0.3,15.6,0.3c6.5,0,13.2-0.1,20.1-0.3
		c0.1,4.1,0.3,7.7,0.7,10.8h-2.5c-0.2-0.6-0.4-1.1-0.5-1.5c-1-2.8-1.7-4.5-2.3-4.9c-0.6-0.5-1.8-0.7-3.7-0.7h-11.4
		c-0.2,3.3-0.3,8.2-0.3,14.5l5.2,0.1c2.7,0,4.4-0.3,5-0.8c0.6-0.5,1.3-2.3,2-5.3h2.5c-0.2,2.9-0.3,5.5-0.3,7.7
		c0,2.1,0.1,4.8,0.3,7.9h-2.5c-0.6-3.2-1.1-5-1.6-5.5c-0.5-0.5-2.1-0.7-4.7-0.7h-5.8v16.6h11.8c1.3,0,2.2-0.1,2.6-0.2
		c0.7-0.3,1.3-0.7,1.9-1.4c1.2-1.3,2.6-3.5,4.2-6.3h2.6C525.3,698.7,524.1,702.6,522.8,707.2z M533.8,588.3v-3h26.3v3
		c-6.9,0.6-7.7,1.2-7.7,9.4v23.4c0,11.1,5.4,18,15.4,18c11.4,0,15.9-7.9,15.9-21.9v-10.5c0-6.9-0.3-10.2-0.4-12.8
		c-0.3-4.1-2.7-5.2-9.1-5.6v-3h22v3c-5.7,0.5-7.4,2.1-7.7,5.6c-0.2,2.5-0.4,5.8-0.4,12.8v11c0,8.2-1.2,15.7-6.3,21.2
		c-4.2,4.3-10.4,6-16.8,6c-5.7,0-11.5-1.2-15.6-4.5c-5.3-4-7.8-9.7-7.8-20v-22.8C541.5,589.6,540.7,589,533.8,588.3z M604.3,667.3
		c-0.6,0.1-1,0.2-1.3,0.2c-2.5,0.4-4,0.8-4.4,1.2s-0.7,1.1-0.8,2.2c-0.1,1.1-0.2,5.6-0.2,13.5c0,10,0,15.2,0,15.6
		c0.1,1.6,0.2,2.5,0.3,2.9c0.2,0.4,0.4,0.6,0.6,0.8c0.7,0.4,2.1,0.8,4.3,1.1l1.3,0.3v2.2c-4.8-0.2-8.4-0.3-10.9-0.3
		c-2.6,0-6.4,0.1-11.5,0.3V705c3.1-0.6,4.9-0.9,5.3-1.1c0.4-0.2,0.7-0.4,0.9-0.7c0.2-0.3,0.3-0.7,0.4-1.1c0.1-0.5,0.1-2.5,0.1-6.1
		c0-7.8,0.1-13.9,0.1-18.2c0-0.4,0-1.7,0-3.9c-1.1,2.3-5.1,11-11.9,26.4l-3,6.6h-2.3c-2.2-5-7.3-16.1-15.1-33.2
		c0,2.6-0.1,4.8-0.1,6.6c0,9.9,0.1,16.4,0.3,19.6c0.1,1.8,0.2,2.8,0.3,3.1c0.1,0.4,0.4,0.7,0.9,0.9c0.5,0.2,1.8,0.5,4,0.9
		c0.3,0.1,0.7,0.1,1.2,0.2v2.2c-2.8-0.2-5.5-0.3-8.1-0.3c-2.6,0-5.6,0.1-9,0.3V705c2.6-0.5,4.1-0.8,4.7-1s1-0.5,1.2-1
		c0.3-0.5,0.4-1.3,0.4-2.6l0.4-18.9c0.1-3.3,0.1-5.8,0.1-7.4c0-2.5-0.1-4.1-0.4-4.9c-0.2-0.5-0.5-0.8-0.9-1.1
		c-0.4-0.2-1.9-0.5-4.3-0.8c-0.3,0-0.8-0.1-1.4-0.2v-2.2c3.5,0.2,6.5,0.3,8.8,0.3c2.5,0,5.1-0.1,8-0.3c0.8,2.3,1.9,4.9,3.3,8
		c3.7,8.3,6.9,15.4,9.8,21.2l7.5-16.2c1.2-2.6,2.1-4.8,2.8-6.5c0.7-1.7,1.6-3.9,2.5-6.5c3.8,0.2,6.5,0.3,8.2,0.3
		c1.5,0,4.1-0.1,7.9-0.3V667.3z M666.1,600.3c-0.9-3.7-2.6-6.9-3.5-8.3c-1.6-2.1-2.3-2.8-7.5-2.8h-6.9V632c0,7.4,0.8,8,9,8.6v3
		h-28.5v-3c7.9-0.6,8.7-1.3,8.7-8.6v-42.7h-6.4c-5,0-6.4,0.7-8.1,3.1c-1.2,1.7-2.3,4.6-3.4,8.1h-3.2c0.6-6.2,1.2-12.7,1.4-17.3h2.5
		c1.3,2.1,2.4,2.2,5,2.2h35.8c2.5,0,3.5-0.5,5-2.2h2.4c0.1,3.9,0.4,11.3,0.9,16.9L666.1,600.3z"/>
	<g>
		<path class="st16" d="M319.1,411.1c0.8-0.8,1.5-1.7,2.1-2.7c3.3-4.3,5.8-8.5,7.7-12.8c1.7-4.3,2.9-8.1,2.9-11.8
			c0-3.5-1.2-6.6-3.1-9.3c-1.7-2.5-4.3-4.3-7.1-5.4c-2.9-1-6.4-1.5-10.1-1.5c-4.1,0-8.5,0.6-12.9,1.7c-0.2-0.8-0.6-1.5-0.8-2.1
			c-2.7-5.8-5.6-10.4-9.3-13.7c-1.5-1.7-3.7-2.9-5.6-3.9c-2.1-1-4.1-1.6-6.4-1.6c-2.1,0-4.2,0.6-6.4,1.6c-3.5,1.5-6.6,4.4-9.5,8.1
			c-2.1,3.3-4.2,7-6,11.2c-4.6-1.2-9.1-1.7-12.9-1.7c-3.7,0-7,0.6-9.9,1.5c-2.9,1.2-5.4,2.9-7.2,5.2c-2.1,2.5-2.9,6-2.9,9.5
			c0,3.7,0.8,7.5,2.7,11.8c2.1,4.8,5.4,10,9.5,15.5c-0.6,0.8-1.4,1.7-1.9,2.5c-3.5,4.4-6,8.9-7.9,12.9c-1.7,4.1-2.7,8.1-2.7,11.8
			c0,3.3,0.8,6.8,2.7,9.3c1.9,2.5,4.4,4.1,7.5,5.2c2.9,1.2,6.2,1.5,9.9,1.5c4.1,0,8.3-0.4,12.9-1.5c0.4,0.6,0.8,1.4,1,2.1
			c2.5,5.6,5.6,10.2,9.1,13.7c1.7,1.5,3.7,2.9,5.6,3.9c2.1,1,4.3,1.5,6.4,1.5c2.3,0,4.3-0.6,6.4-1.5c3.7-1.6,6.8-4.6,9.5-8.3
			c2.3-3.1,4.3-6.8,6-11.2c4.6,1.2,9.1,1.7,13.1,1.7c3.7,0,7-0.4,9.9-1.4c2.9-1.4,5.2-2.9,7.2-5.4c1.9-2.5,2.9-5.8,2.9-9.5
			c0-3.7-1-7.5-2.7-11.8C326.7,421.5,323.4,416.3,319.1,411.1 M311.6,372.2c3.3,0,6.2,0.4,8.5,1.4c2.3,0.8,3.9,1.9,5,3.7
			c1.4,1.7,1.9,3.9,1.9,6.6c0,2.9-0.6,6.2-2.3,9.9c-1.7,4.4-4.8,9.1-8.7,13.7l-0.4-0.4c-3.1-3.5-6.6-7-10.6-10.4
			c-0.8-8.5-2.5-16.2-4.8-23C304.5,372.6,308.3,372.2,311.6,372.2 M305.6,403.1c2.7,2.7,5.4,5.2,7.5,7.9l-0.8,0.8
			c-2.1,2.3-4.2,4.4-6.8,6.8c0.2-2.5,0.2-5.2,0.2-7.7C305.8,408.2,305.8,405.8,305.6,403.1 M301.2,410.9c0,4.1,0,8.1-0.4,12.2
			c-3.1,2.3-6.2,4.8-9.7,7.2c-4.8,3.3-9.9,6.4-14.5,8.9c-4.8-2.5-9.9-5.6-14.5-8.9c-3.5-2.5-6.6-4.8-9.5-7.5
			c-0.4-3.7-0.6-7.7-0.6-11.8c0-4.2,0.2-8.3,0.6-12c3.1-2.7,6.2-5,9.5-7.5c5-3.3,9.9-6.2,14.7-8.7c4.8,2.5,9.7,5.6,14.5,9.1
			c3.3,2.1,6.6,4.6,9.5,7.2C301.2,402.7,301.2,406.8,301.2,410.9 M297.9,381.3c0.8,3.5,1.5,7.2,1.9,11c-1.9-1.6-3.7-3.1-5.8-4.4
			c-4.1-2.9-8.1-5.4-12.2-7.7c2.5-1.2,4.8-2.1,7.2-2.9c2.3-1,4.6-1.7,6.8-2.5C296.3,376.8,297.1,379,297.9,381.3 M259.8,369.1
			c2.3-5.4,5-9.5,7.9-12.4c1.3-1.4,3.1-2.3,4.4-3.1c1.6-0.8,3.1-1,4.4-1c1.5,0,3.1,0.2,4.4,1c2.7,1.2,5.2,3.5,7.5,6.8
			c2.1,2.9,3.9,6.2,5.6,10.1c-2.3,0.8-4.6,1.4-7,2.3c-3.5,1.4-7,2.7-10.2,4.6c-3.9-1.9-7.3-3.5-10.8-4.8c-2.3-1-4.6-1.7-6.8-2.5
			C259.4,369.9,259.6,369.5,259.8,369.1 M257.7,374.5c2.1,0.6,4.4,1.4,6.9,2.3c2.3,1,4.6,2.1,7.2,3.3c-4.1,2.1-8.1,4.8-12.2,7.5
			c-2.1,1.5-4.3,3.1-6.4,4.6C254.4,385.7,256,379.8,257.7,374.5 M228.7,393.5c-1.6-3.9-2.3-7.1-2.3-10.1c0-2.7,0.6-4.8,1.9-6.8
			c1.4-1.5,3.1-2.7,5.2-3.5c2.3-1,5-1.4,8.3-1.4c3.3,0,7.1,0.4,11.4,1.5c-0.8,2.1-1.5,4.4-2.1,7c-1.2,4.8-2.1,10.4-2.9,16
			c-4.1,3.5-7.7,7.1-11,10.8c-0.4-0.6-0.8-1.4-1.3-1.9C232.8,401.2,230.4,397.1,228.7,393.5 M247.6,403.1v7.7v7.5
			c-2.6-2.5-5-5.2-7.5-7.7l0.8-0.8C243,407.6,245.5,405.3,247.6,403.1 M241.6,449.5c-3.1,0-6.2-0.6-8.3-1.4
			c-2.3-0.8-4.1-2.1-5.2-3.7c-1.4-1.7-1.9-3.9-1.9-6.6c0-2.9,0.8-6.4,2.5-10.1c1.7-4.2,4.6-8.9,8.5-13.5l0.4,0.2
			c3.1,3.5,6.8,7.1,10.6,10.6c1,8.3,2.5,16,4.8,22.8C249,448.9,245.1,449.5,241.6,449.5 M255.6,440.2c-1-3.3-1.5-7.1-2.3-10.8
			c2.1,1.4,4.1,2.9,6.2,4.4c4.1,2.7,8.1,5.4,12.2,7.7c-2.5,1-4.8,1.9-7.2,3.1c-2.3,0.8-4.6,1.5-7,2.3
			C256.7,444.9,256.1,442.6,255.6,440.2 M293.6,452.6c-2.5,5.2-5.2,9.5-7.9,12.2c-1.7,1.4-3.1,2.3-4.6,3.1c-1.4,0.8-2.9,1.2-4.4,1.2
			c-1.4,0-2.9-0.4-4.4-1.2c-2.5-1-5.2-3.5-7.5-6.8c-1.9-2.7-3.9-6-5.4-9.9c2.1-0.8,4.6-1.6,7-2.3c3.3-1.4,6.8-2.9,10.4-4.6
			c3.5,1.7,7,3.3,10.4,4.6c2.5,1.2,4.6,1.7,7,2.5C294,451.8,293.8,452.4,293.6,452.6 M295.8,447.2c-2.3-0.8-4.6-1.5-7-2.3
			c-2.3-1-4.8-2.1-7.2-3.3c4.1-2.3,8.1-4.6,12.2-7.5c1.9-1.5,4.1-3.1,6-4.6C298.9,435.8,297.5,442,295.8,447.2 M324.9,445.1
			c-1.2,1.3-2.9,2.5-5.2,3.7c-2.1,0.6-5,1.2-8.1,1.2c-3.3,0-7.3-0.6-11.4-1.6c0.6-2.1,1.4-4.4,1.9-6.8c1.3-5,2.3-10.6,2.9-16.4
			c4.1-3.5,7.7-7,11-10.6c0.4,0.8,1,1.3,1.4,1.9c3.3,4.1,5.6,7.9,7.1,11.8c1.5,3.7,2.3,7.1,2.3,9.9
			C326.9,440.8,326.3,443.1,324.9,445.1"/>
		<path class="st16" d="M276.6,399.5c-6.2,0-11.4,5-11.4,11.4c0,6.2,5.2,11.6,11.4,11.6c6.4,0,11.4-5.4,11.4-11.6
			C288,404.5,283,399.5,276.6,399.5"/>
		<path class="st16" d="M617.5,456.8c1.3,0.7,2.9,0.3,3.6-1l5.9-10.5c0.3-0.6,0.4-1.3,0.3-2c-0.2-0.7-0.6-1.3-1.3-1.6l-4-2.3
			c0.6-2.4,0.9-4.9,0.9-7.4l4.5-1.2c1.4-0.4,2.3-1.9,1.9-3.3l-3.2-11.6c-0.2-0.7-0.6-1.3-1.3-1.6c-0.6-0.4-1.3-0.4-2-0.2l-4.5,1.2
			c-1.3-2.2-2.8-4.1-4.6-5.9l2.3-4c0.7-1.3,0.3-2.9-1-3.6l-10.5-5.9c-0.6-0.3-1.3-0.4-2-0.2c-0.7,0.2-1.3,0.6-1.6,1.3l-2.3,4
			c-2.4-0.6-4.9-0.9-7.4-0.9l-1.2-4.5c-0.2-0.7-0.6-1.3-1.3-1.6c-0.6-0.4-1.3-0.4-2-0.3l-11.6,3.2c-0.7,0.2-1.3,0.6-1.6,1.3
			c-0.3,0.6-0.4,1.3-0.2,2l1.2,4.5c-2.2,1.3-4.1,2.8-5.9,4.6l-4-2.3c-0.6-0.4-1.3-0.4-2-0.2c-0.7,0.2-1.3,0.6-1.6,1.3l-5.9,10.5
			c-0.7,1.3-0.3,2.9,1,3.6l4,2.3c-0.6,2.4-0.9,4.9-0.9,7.4l-4.5,1.2c-0.7,0.2-1.3,0.6-1.6,1.3c-0.3,0.6-0.4,1.3-0.2,2l3.2,11.6
			c0.2,0.7,0.6,1.3,1.3,1.6c0.6,0.3,1.3,0.4,2,0.2l4.5-1.2c1.3,2.2,2.8,4.1,4.6,5.9l-2.3,4c-0.7,1.3-0.3,2.9,1,3.6l10.5,5.9
			c0.1,0.1,0.3,0.2,0.5,0.2c1.2,0.4,2.5-0.1,3.2-1.2l2.3-4c2.4,0.6,4.9,0.9,7.4,0.9l1.2,4.5c0.2,0.7,0.6,1.3,1.3,1.6
			c0.6,0.4,1.3,0.4,2,0.3l11.6-3.2c1.4-0.4,2.3-1.9,1.9-3.3l-1.2-4.5c2.2-1.3,4.1-2.8,5.9-4.6L617.5,456.8z M610.9,449.4
			c-2.2,2.5-4.8,4.5-7.8,6.1c-1.1,0.6-1.7,1.9-1.3,3.1l1.1,3.9l-6.4,1.8l-1.1-3.9c-0.3-1.2-1.5-2-2.7-2c-3.3,0.2-6.6-0.2-9.8-1.2
			c-1.2-0.4-2.5,0.1-3.1,1.2l-2,3.5l-5.8-3.3l2-3.5c0.6-1.1,0.4-2.5-0.6-3.3c-2.5-2.2-4.5-4.8-6-7.8c-0.6-1.1-1.9-1.7-3.1-1.4
			l-3.9,1.1l-1.8-6.4l3.9-1.1c1.2-0.3,2-1.5,2-2.7c-0.2-3.3,0.2-6.6,1.2-9.8c0.4-1.2-0.1-2.5-1.2-3.1l-3.5-2l3.3-5.8l3.5,2
			c1.1,0.6,2.5,0.4,3.3-0.6c2.2-2.5,4.8-4.5,7.8-6c1.1-0.6,1.7-1.9,1.4-3.1l-1.1-3.9l6.4-1.8l1.1,3.9c0.3,1.2,1.5,2,2.7,2
			c3.3-0.2,6.6,0.2,9.8,1.2c1.2,0.4,2.5-0.1,3.1-1.2l2-3.5l5.8,3.3l-2,3.5c-0.6,1.1-0.4,2.5,0.6,3.3c2.5,2.2,4.5,4.8,6,7.8
			c0.6,1.1,1.9,1.7,3.1,1.4l3.9-1.1l1.8,6.4l-3.9,1.1c-1.2,0.3-2,1.5-2,2.7c0.2,3.3-0.2,6.6-1.2,9.8c-0.4,1.2,0.1,2.5,1.2,3.1l3.5,2
			l-3.3,5.8l-3.5-2C613.2,448.2,611.8,448.5,610.9,449.4z"/>
		<path class="st16" d="M600.4,415.1c-4.5-2.5-9.7-3.2-14.6-1.8c-4.9,1.4-9.1,4.6-11.6,9.1c-2.5,4.5-3.2,9.7-1.8,14.6
			c1.4,4.9,4.6,9.1,9.1,11.6c1.1,0.6,2.2,1.1,3.3,1.5c8.6,2.9,18.3-0.6,22.9-8.7C612.9,432.1,609.7,420.3,600.4,415.1z M603,438.6
			c-1.8,3.2-4.8,5.5-8.4,6.5c-3.6,1-7.3,0.5-10.5-1.3c-3.2-1.8-5.5-4.8-6.5-8.4c-1-3.6-0.5-7.3,1.3-10.5c1.8-3.2,4.8-5.5,8.4-6.5
			c2.7-0.8,5.5-0.7,8.1,0.2c0.8,0.3,1.6,0.6,2.4,1.1C604.5,423.5,606.8,432,603,438.6z"/>
		<path class="st16" d="M519.2,377c-0.2,1.1,0.5,2.1,1.6,2.3l3.4,0.6c0.2,1.9,0.6,3.7,1.2,5.5l-2.9,2c-0.4,0.3-0.7,0.8-0.8,1.3
			c-0.1,0.5,0,1.1,0.3,1.5l5.1,7.5c0.6,0.9,1.9,1.1,2.8,0.5l2.9-2c1.5,1.2,3,2.2,4.7,3.1l-0.6,3.4c-0.1,0.5,0,1.1,0.3,1.5
			c0.2,0.4,0.6,0.6,1,0.8c0.1,0,0.2,0.1,0.3,0.1l8.9,1.7c1.1,0.2,2.1-0.5,2.3-1.6l0.6-3.4c1.9-0.2,3.7-0.6,5.5-1.2l2,2.9
			c0.6,0.9,1.9,1.1,2.8,0.5l7.5-5.1c0.9-0.6,1.1-1.9,0.5-2.8l-2-2.9c1.2-1.5,2.2-3,3.1-4.7l3.4,0.6c0.5,0.1,1.1,0,1.5-0.3
			c0.4-0.3,0.7-0.8,0.8-1.3l1.7-8.9c0.2-1.1-0.5-2.1-1.6-2.3l-3.4-0.6c-0.2-1.9-0.6-3.7-1.2-5.5l2.9-2c0.4-0.3,0.7-0.8,0.8-1.3
			c0.1-0.5,0-1.1-0.3-1.5l-5.1-7.5c-0.3-0.4-0.8-0.7-1.3-0.8c-0.5-0.1-1.1,0-1.5,0.3l-2.9,2c-1.5-1.2-3-2.2-4.7-3.1l0.6-3.4
			c0.2-1.1-0.5-2.1-1.6-2.3l-8.9-1.7c-0.5-0.1-1.1,0-1.5,0.3c-0.4,0.3-0.7,0.8-0.8,1.3l-0.6,3.4c-1.9,0.2-3.7,0.6-5.5,1.2l-2-2.9
			c-0.3-0.4-0.8-0.7-1.3-0.8c-0.5-0.1-1.1,0-1.5,0.3l-7.5,5.1c-0.4,0.3-0.7,0.8-0.8,1.3c-0.1,0.5,0,1.1,0.3,1.5l2,2.9
			c-1.2,1.5-2.2,3-3.1,4.7l-3.4-0.6c-0.5-0.1-1.1,0-1.5,0.3c-0.4,0.3-0.7,0.8-0.8,1.3L519.2,377z M527.5,371.3
			c0.9,0.2,1.9-0.3,2.2-1.2c0.9-2.3,2.3-4.4,4-6.2c0.7-0.7,0.7-1.7,0.2-2.5l-1.7-2.5l4.1-2.8l1.7,2.5c0.5,0.8,1.6,1.1,2.4,0.7
			c2.3-1,4.7-1.5,7.2-1.5c1,0,1.8-0.7,1.9-1.6l0.6-3l4.9,0.9l-0.6,3c-0.2,0.9,0.3,1.9,1.2,2.2c2.3,0.9,4.4,2.3,6.2,4
			c0.7,0.7,1.7,0.7,2.5,0.2l2.5-1.7l2.8,4.1l-2.5,1.7c-0.8,0.5-1.1,1.6-0.7,2.4c1,2.3,1.5,4.7,1.5,7.2c0,1,0.7,1.8,1.6,1.9l3,0.6
			l-0.9,4.9l-3-0.6c-0.9-0.2-1.9,0.3-2.2,1.2c-0.9,2.3-2.3,4.4-4,6.2c-0.7,0.7-0.7,1.7-0.2,2.5l1.7,2.5l-4.1,2.8l-1.7-2.5
			c-0.5-0.8-1.6-1.1-2.4-0.7c-2.3,1-4.7,1.5-7.2,1.5c-1,0-1.8,0.7-1.9,1.6l-0.6,3l-4.9-0.9l0.6-3c0.2-0.9-0.3-1.9-1.2-2.2
			c-2.3-0.9-4.4-2.3-6.2-4c-0.2-0.2-0.5-0.4-0.7-0.5c-0.6-0.2-1.2-0.1-1.8,0.2l-2.5,1.7l-2.8-4.1l2.5-1.7c0.8-0.5,1.1-1.6,0.7-2.4
			c-1-2.3-1.5-4.7-1.5-7.2c0-1-0.7-1.8-1.6-1.9l-3-0.6l0.9-4.9L527.5,371.3z"/>
		<path class="st16" d="M543.5,391.4c0.6,0.2,1.3,0.4,2,0.5c7.8,1.5,15.4-3.7,16.8-11.6c1.5-7.8-3.7-15.4-11.6-16.8
			c-7.8-1.5-15.4,3.7-16.8,11.6C532.7,382.3,536.8,389.2,543.5,391.4 M550.1,367.5c0.5,0.1,1,0.2,1.4,0.4c4.8,1.6,7.9,6.6,6.9,11.8
			c-1,5.7-6.5,9.4-12.2,8.3c-5.7-1.1-9.4-6.5-8.3-12.2C539,370.2,544.4,366.5,550.1,367.5"/>
		<path class="st16" d="M749.3,378.6h13.8v-10.7h-57c-19.3,0-26.1,7.8-29,15.7l3.6,3c5.9-4.4,6.4-6.9,21.1-7.7l-4.1,41.4l0,0
			c-1.2,11-10.1,16.3-12.9,21.4c-2.7,5.1,4.8,12,12.9,12c4.7,0,8.3-4.3,9.1-12.8c0.1-0.5,4.5-46,6.1-62.4c0.8,0,1.6,0,2.4,0h22.6
			c-1.4,14.5-5.1,51.5-5.6,56.9c-1.3,10.7,2.1,18.3,11.5,18.3c7.7,0,15.3-4.8,16-17.6h-4.8c0,0-1.6,6.9-6.4,7.6
			c-2.9,0.4-5.8-1.8-4.9-10.4L749.3,378.6z"/>
		<path class="st16" d="M427.5,394.5c4.8-1,8.2-5.2,8.2-10.1c0-5.7-4.6-10.4-10.4-10.4c-5.7,0-10.4,4.6-10.4,10.4
			c0,4.9,3.5,9.1,8.7,10.1V461c-3,0.9-4.7,3.2-4.7,5.9c0,3.5,2.9,6.4,6.4,6.4c3.5,0,6.4-2.9,6.4-6.4c0-2.7-1.7-5-4.2-5.9V394.5z
			 M428,466.9c0,1.5-1.2,2.6-2.7,2.6c-1.5,0-2.6-1.2-2.6-2.6c0-1.5,1.2-2.6,2.6-2.6C426.8,464.3,428,465.4,428,466.9z M419,384.4
			c0-3.5,2.8-6.3,6.3-6.3c3.5,0,6.3,2.8,6.3,6.3c0,3.5-2.8,6.3-6.3,6.3C421.8,390.7,419,387.9,419,384.4z"/>
		<path class="st16" d="M444.5,419c12.5-6.8,20.9-20.1,20.7-35.4c-0.3-20.7-16.9-38-37.6-39.1c-22.9-1.2-41.8,17-41.8,39.6
			c0,15.1,8.4,28.1,20.7,34.9v54.3c0,0-5.4,3.2-5.4,5.9c0,3.5,2.8,6.4,6.4,6.4c3.5,0,6.4-2.8,6.4-6.4c0-2.7-3.6-5.9-3.6-5.9v-55.3
			c-1.5-0.7-3.1-1.5-4.5-2.4c-11.3-7.1-18.4-20.1-17.1-34.7c1.6-17.2,15.3-31.3,32.5-33.2c22.3-2.5,41.1,14.9,41.1,36.7
			c0,13.2-6.9,24.7-17.3,31.3c-1.4,0.9-2.9,1.7-4.5,2.4v28.8c-2.4,0.9-4.1,3.2-4.1,5.9c0,3.5,2.9,6.4,6.4,6.4c3.5,0,6.4-2.9,6.4-6.4
			c0-2.7-4.9-5.9-4.9-5.9V419z M407.6,481.8c-1.5,0-2.7-1.2-2.7-2.7c0-1.5,1.2-2.6,2.7-2.6c1.5,0,2.6,1.2,2.6,2.6
			C410.2,480.7,409,481.8,407.6,481.8z M445.7,452.7c0,1.5-1.2,2.6-2.7,2.6c-1.5,0-2.6-1.2-2.6-2.6c0-1.5,1.2-2.7,2.6-2.7
			C444.5,450,445.7,451.2,445.7,452.7z"/>
		<path class="st16" d="M415.3,479.2c0,4.3-3.4,7.7-7.7,7.7c-4.3,0-7.7-3.4-7.7-7.7c0-4.2,3.4-7.7,7.7-7.7
			C411.8,471.5,415.3,474.9,415.3,479.2"/>
		<path class="st16" d="M450.7,452.7c0,4.3-3.4,7.7-7.7,7.7c-4.3,0-7.7-3.4-7.7-7.7c0-4.2,3.4-7.7,7.7-7.7
			C447.3,445,450.7,448.4,450.7,452.7"/>
		<path class="st16" d="M428,466.9c0,1.5-1.2,2.6-2.7,2.6c-1.5,0-2.6-1.2-2.6-2.6c0-1.5,1.2-2.6,2.6-2.6
			C426.8,464.3,428,465.4,428,466.9"/>
	</g>
</g>
</svg>
